<svg width="99" height="239" viewBox="0 0 99 239" fill="none" xmlns="http://www.w3.org/2000/svg">
<path d="M50.4312 4.91624C50.4641 7.8876 50.3786 9.96093 50.2149 10.1563C50.0351 10.3726 50.0441 10.5411 50.2418 10.663C50.6171 10.8936 50.5931 16.2879 50.2149 16.6661C49.9986 16.8824 49.9986 17.0132 50.2149 17.1459C50.6445 17.41 50.62 20.9938 50.188 21.1396C49.9162 21.231 49.9162 21.3523 50.188 21.6767C50.4205 21.954 50.5119 22.7164 50.4581 23.9323C50.3781 25.7421 50.3643 25.7726 49.4991 25.9984C48.7248 26.201 48.6214 26.336 48.6214 27.1462C48.6214 27.8214 48.7606 28.1076 49.1484 28.2265C49.6312 28.3753 49.6748 28.6722 49.6748 31.8055C49.6748 34.1555 49.5738 35.2985 49.3509 35.4658C49.1078 35.6481 49.1078 35.7419 49.3509 35.8405C49.7829 36.0155 49.8056 38.9552 49.3778 39.3824C49.1347 39.6256 49.1347 39.7069 49.3778 39.7069C49.8349 39.7069 49.8098 42.5826 49.3509 42.7971C49.0916 42.9184 49.094 42.9812 49.3647 43.1108C49.5882 43.2184 49.7023 43.8941 49.7023 45.1095C49.7023 46.3248 49.5882 47.0012 49.3647 47.1081C49.0946 47.2378 49.0946 47.3029 49.3647 47.4325C49.5846 47.5383 49.7023 48.189 49.7023 49.2962C49.7023 50.674 49.6121 51.0313 49.2297 51.1735C48.7702 51.3444 48.7702 51.3569 49.2297 51.6192C49.5888 51.8242 49.7023 52.2406 49.7023 53.3478C49.7023 54.455 49.5888 54.8744 49.2297 55.0901C48.9058 55.2843 48.8544 55.4373 49.0677 55.5765C49.241 55.6894 49.4621 56.4004 49.5672 57.1837C49.731 58.3991 49.6802 58.6536 49.189 59.0718C48.5407 59.6245 48.4314 60.2979 49.0271 60.0679C49.2434 59.9842 49.4322 60.0249 49.4322 60.1545C49.4322 60.2842 48.9058 60.5775 48.2844 60.7891C47.2041 61.1577 47.1366 61.2444 47.1366 62.2613V63.3416L48.2844 63.2472C49.3916 63.1558 49.4322 63.1803 49.4322 63.9361C49.4322 64.6919 49.3509 64.7362 47.8387 65.0462C45.3806 65.5505 43.502 67.1309 44.5704 67.796C44.8524 67.9716 44.8607 69.4462 44.6128 75.2808C44.2124 84.7082 44.2095 84.5457 44.7866 84.5576C45.2455 84.5672 46.6622 85.5626 46.4345 85.7156C46.3754 85.755 45.6512 86.0896 44.841 86.4511C42.8812 87.3252 39.7862 90.3803 38.8075 92.4064C37.1118 95.9179 36.8285 99.4288 37.9662 102.833C39.212 106.561 41.3899 109.089 44.841 110.815C45.8132 111.301 46.6873 111.813 46.7996 111.963C46.9114 112.112 47.0022 113.043 47.0022 114.042C47.0022 115.771 46.9657 115.871 46.192 116.274C45.1386 116.821 45.089 117.831 46.0838 118.476L46.7865 118.932L46.0838 119.3C45.1386 119.796 45.1236 120.901 46.0569 121.325C46.713 121.624 46.7321 121.714 46.7321 124.496C46.7321 126.074 46.6168 130.817 46.4758 135.058C46.3348 139.286 46.085 147.078 45.9219 152.345C45.7582 157.619 45.4487 167.526 45.233 174.36C45.0173 181.194 44.7149 191.465 44.5602 197.185C44.2602 208.287 43.8665 221.747 43.5833 230.545C43.4704 234.056 43.3054 236.018 43.1124 236.15C42.9487 236.262 40.6274 236.352 37.953 236.352C33.0816 236.352 21.1244 236.902 14.3177 237.439C10.3742 237.749 0.661859 238.743 0.00162163 238.902C-0.221246 238.956 22.5567 239 50.6487 239C105.834 239 105.077 239.025 89.546 237.718C79.2815 236.855 74.9365 236.615 66.8559 236.465C62.6961 236.388 59.031 236.271 58.712 236.204C58.1701 236.091 58.1205 235.88 57.9693 233.044C57.8803 231.369 57.6855 225.522 57.5367 220.011C57.2529 209.53 56.8334 194.842 56.5968 187.056C56.5197 184.525 56.3387 177.737 56.1929 171.93C55.4956 144.135 55.3361 138.147 55.0953 130.737C54.9531 126.361 54.8366 122.501 54.8366 122.174C54.8366 121.793 55.1067 121.451 55.593 121.219C56.7008 120.69 56.7283 119.725 55.6468 119.355L54.8091 119.068L55.4305 118.64C56.7002 117.765 56.7647 117.121 55.6468 116.48C54.8575 116.028 54.8366 115.962 54.8366 113.936V111.856L56.7546 110.851C63.6157 107.254 66.3301 98.701 62.7373 92.0025C61.6164 89.913 59.0239 87.465 56.7815 86.3806L54.8904 85.4658L56.025 84.9729C57.4029 84.3748 57.5463 84.1447 57.3915 82.7914C57.3234 82.1981 57.1519 78.6722 57.0109 74.9713C56.7773 68.8398 56.7946 68.1867 57.1997 67.732C57.5373 67.3538 57.5797 67.1273 57.3748 66.7999C56.9709 66.1552 54.9447 65.1855 53.5669 64.9769C52.4866 64.8132 52.4054 64.7439 52.4054 63.9773C52.4054 63.2107 52.446 63.1576 53.4181 63.2478L54.4309 63.3422L54.5122 62.1944C54.5904 61.0872 54.5635 61.04 53.7557 60.8709C53.0537 60.7233 52.9425 60.5973 53.0668 60.0876C53.1791 59.6281 53.0835 59.4465 52.6754 59.3449C52.2046 59.2272 52.1353 58.9667 52.1353 57.3188C52.1353 56.0491 52.2464 55.3835 52.4729 55.2927C52.743 55.1845 52.7454 55.1534 52.4866 55.1367C52.0815 55.111 52.0009 51.5917 52.4054 51.5917C52.5673 51.5917 52.6754 51.4836 52.6754 51.3217C52.6754 51.1777 52.4866 51.0516 52.2703 51.0516C51.9554 51.0516 51.8652 50.6734 51.8652 49.3499C51.8652 48.3778 52.0038 47.509 52.1891 47.3238C52.4323 47.0806 52.4323 46.9994 52.1891 46.9994C51.7314 46.9994 51.7571 43.3134 52.216 43.0989C52.4753 42.9776 52.4729 42.9149 52.2022 42.7852C51.9919 42.6842 51.8646 42.0831 51.8646 41.1917C51.8646 40.3002 51.9919 39.6991 52.2022 39.5981C52.4723 39.4685 52.4723 39.4033 52.2022 39.2737C51.9871 39.1703 51.8646 38.5441 51.8646 37.5451C51.8646 36.5461 51.9871 35.9295 52.2022 35.8434C52.4723 35.7353 52.4753 35.66 52.216 35.4652C51.9931 35.2979 51.8921 34.1955 51.8921 31.9268C51.8921 28.9555 51.9441 28.6035 52.4191 28.3478C52.7752 28.156 52.9461 27.767 52.9461 27.1456C52.9461 26.3354 52.8427 26.2004 52.0684 25.9978L51.1907 25.7684L51.2851 23.756C51.337 22.6488 51.5193 21.6528 51.6902 21.5411C51.9053 21.4007 51.8927 21.268 51.6495 21.1091C51.4016 20.9472 51.3143 20.272 51.3526 18.8129C51.3825 17.6782 51.334 16.6732 51.2462 16.5842C51.0658 16.402 51.2647 10.8309 51.4631 10.5064C51.5354 10.3887 51.4601 10.2107 51.2982 10.1145C51.1148 10.0063 51.0216 9.10172 51.0544 7.75078C51.1805 2.59136 51.0723 -0.00178528 50.7306 -0.00178528C50.4605 -0.00178528 50.3918 1.13287 50.4336 4.91444M52.673 60.2364C52.673 60.3983 52.5649 60.5064 52.403 60.5064C52.2411 60.5064 52.1329 60.3983 52.1329 60.2364C52.1329 60.0745 52.2411 59.9663 52.403 59.9663C52.5649 59.9663 52.673 60.0745 52.673 60.2364ZM47.271 70.1764C47.271 70.2989 46.9197 70.5211 46.4608 70.6896C45.8394 70.9173 45.6506 70.9077 45.6506 70.649C45.6506 70.4596 45.7337 70.2284 45.8394 70.122C46.0999 69.8615 47.271 69.9057 47.271 70.1758M55.9145 70.4871C55.9145 70.9573 55.8201 70.986 55.0368 70.7572C54.5504 70.615 54.1226 70.5002 54.0778 70.5002C54.0294 70.5002 54.0616 70.3921 54.159 70.2302C54.2469 70.0838 54.686 69.9601 55.118 69.9601C55.7125 69.9601 55.9151 70.0939 55.9151 70.4865M47.271 71.8512C47.271 72.1481 47.1796 72.3913 47.0685 72.3913C46.9574 72.3913 46.5821 72.4672 46.2583 72.5532C45.7719 72.6829 45.6506 72.607 45.6506 72.175C45.6506 71.6773 46.0289 71.4347 46.9472 71.3433C47.1253 71.3254 47.271 71.5542 47.271 71.8512ZM55.9754 71.9593C56.1714 72.2563 56.2419 72.9321 56.0764 72.9321C56.0328 72.9321 55.6038 72.7952 55.1443 72.6351C54.5773 72.4373 54.2935 72.1667 54.2935 71.8249C54.2935 71.3953 54.4148 71.3403 55.0362 71.4873C55.4413 71.5829 55.8679 71.798 55.9748 71.9599M47.271 73.6072C47.271 74.0273 46.4608 74.5525 45.8126 74.5525C45.2623 74.5525 45.5425 73.5493 46.137 73.3927C47.0016 73.1651 47.2716 73.2159 47.2716 73.6072M55.982 73.661C56.0914 73.7196 56.1846 73.9986 56.1846 74.2687C56.1846 74.7114 56.0764 74.7359 55.2393 74.485C54.591 74.2902 54.2941 74.044 54.2941 73.7016C54.2941 73.3019 54.4428 73.2368 55.0368 73.3778C55.4419 73.4734 55.8715 73.6024 55.982 73.6616M47.271 75.6059C47.271 76.1478 46.7847 76.443 45.8932 76.443C45.2449 76.443 45.2097 75.7546 45.8394 75.3872C46.6228 74.9301 47.271 75.0293 47.271 75.6053M56.1439 75.4977C56.1935 75.5401 56.1935 75.8222 56.1439 76.0922C56.0627 76.5344 55.9276 76.5738 55.1712 76.376C54.5498 76.2135 54.2935 75.9847 54.2935 75.5927C54.2935 75.1159 54.4148 75.0651 55.1712 75.2282C55.6576 75.3328 56.0914 75.4535 56.1439 75.4983M47.2669 77.8208C47.2693 77.9122 46.8522 78.1064 46.3121 78.2665C45.4206 78.53 45.3591 78.5103 45.4361 77.9827C45.57 77.0644 47.2442 76.9162 47.2669 77.8208ZM55.9689 77.442C56.2933 77.626 56.1851 78.3382 55.8338 78.3323C54.9423 78.3173 54.2941 77.966 54.2941 77.4964C54.2941 77.0674 54.4154 77.0118 55.0368 77.1588C55.4419 77.2544 55.8655 77.3828 55.9689 77.4414M47.1145 79.3337C47.2023 79.5769 47.2352 79.7932 47.1898 79.8284C46.9197 80.0375 45.3853 80.4193 45.2718 80.3058C45.0161 80.0501 45.4612 79.3659 46.0283 79.1431C46.8385 78.8246 46.9376 78.8419 47.1145 79.3331M55.7526 79.1353C56.5359 79.4352 56.7139 80.2275 55.9958 80.2186C54.9692 80.206 54.2941 79.8762 54.2941 79.3875C54.2941 78.8174 54.7261 78.7427 55.7526 79.1353ZM47.1085 81.1841C47.2143 81.4578 47.0273 81.6932 46.5684 81.8647C45.3256 82.3277 44.8344 82.1389 45.3232 81.3867C45.4869 81.1345 45.9745 80.9368 46.7847 80.794C46.8785 80.7772 47.0147 80.9409 47.1085 81.1841ZM55.7526 81.024C56.4009 81.2714 56.7564 82.1156 56.2114 82.1156C55.1849 82.1156 54.2935 81.7267 54.2935 81.2785C54.2935 80.7085 54.7255 80.6332 55.752 81.024" fill="#231F20"/>
</svg>
