<svg width="322" height="110" viewBox="0 0 322 110" fill="none" xmlns="http://www.w3.org/2000/svg">
<path d="M21.8858 60.0984C22.116 59.4715 22.4332 59.1244 23.2355 59.1335C26.3728 59.1688 29.5118 59.1292 32.6481 59.0441C33.3007 59.0265 32.9862 59.4047 33.0473 59.6256C33.9484 62.8709 33.95 62.7639 37.2833 62.8987C39.1133 62.9725 39.8566 62.6302 40.1754 60.5788C40.6841 57.303 41.3947 54.0519 41.8186 50.7274C42.0435 54.2557 42.7658 57.6956 43.4147 61.1469C43.7614 62.9912 44.1445 64.8292 44.546 66.6623C44.6136 66.9704 44.7263 67.4401 45.1164 67.432C45.6477 67.4208 45.3327 66.7725 45.7486 66.3333C45.5538 67.6904 46.2982 67.7332 47.1697 67.7193C49.1602 67.6877 51.1518 67.7091 53.145 67.9161H46.7055C46.7007 68.0696 46.6959 68.2232 46.691 68.3761C48.2699 68.3761 49.8488 68.3735 51.4276 68.3772C52.0555 68.3788 52.7258 68.2585 53.3006 68.4377C54.0326 68.6661 54.1324 68.45 54.243 67.7979C54.697 65.1186 55.4 62.4793 55.6201 59.7155C56.022 63.5015 56.9011 67.1924 57.4072 70.9924C58.9324 69.968 59.9064 71.1962 61.0028 71.714C61.5288 71.9627 62.1384 72.8052 62.4379 71.7814C63.1613 69.308 64.7906 70.9806 65.5967 71.2684C67.7954 72.0531 67.7278 72.2419 68.8951 70.0616C69.6657 71.2427 71.1534 71.3652 72.0915 72.3302C72.4725 72.7223 72.9168 72.3387 73.182 71.8964C73.5603 71.2657 73.965 70.6511 74.4281 69.9204C74.8521 71.3978 76.3832 71.7198 77.3057 71.9627C78.3157 72.2291 78.9839 70.6773 79.0085 69.4674C79.0563 67.132 78.9925 64.7939 79.0526 62.459C79.0703 61.7775 78.6495 61.5288 78.2132 61.0805C80.2 61.1431 82.148 61.1704 84.0962 61.1287C85.3192 61.1025 85.6858 60.6745 85.6423 59.5325C85.5886 58.1343 85.7158 56.7226 85.0418 55.4137C85.2666 57.08 83.2745 58.7724 85.301 60.359C83.5047 60.7949 83.5568 60.7954 83.582 59.2041C83.5997 58.0888 83.4495 56.9708 83.3684 55.7625C82.6869 56.0112 82.9552 56.3771 82.9058 56.6328C82.8157 57.0965 82.4926 57.1714 82.1475 57.0543C81.6763 56.8949 81.7359 56.5745 82.0708 56.314C82.7749 55.7657 82.0622 55.4822 81.8899 55.073C80.5917 55.9101 81.693 58.1573 79.7459 58.8136C79.7255 59.2528 80.5525 58.9222 80.7028 59.3389C80.8354 59.7058 80.9926 60.1594 80.8853 60.4937C80.7318 60.9725 80.1973 60.6633 79.8382 60.7072C79.279 60.7762 79.1771 60.3402 79.2109 59.9193C79.3579 58.1102 78.7934 56.2953 80.12 54.5236C80.8375 53.5651 80.5853 51.8871 80.7742 50.5343C81.5674 44.8557 82.4384 39.1873 83.0641 33.4606C83.2128 35.4526 83.3056 37.4505 83.5241 39.4344C83.8289 42.1983 84.2223 44.9525 84.5926 47.7084C84.6607 48.2165 84.7444 48.7161 85.4684 48.7563C86.2197 48.7975 86.2519 48.2936 86.377 47.7897C86.9845 45.3446 87.1471 42.8434 87.3704 40.3475C87.4562 39.3895 87.6038 38.4368 87.7873 37.4809C88.2076 41.0536 88.2269 44.6664 89.0238 48.4396C90.3145 46.8595 91.9352 47.5907 93.3912 47.549C97.0475 47.4447 97.0572 47.5094 97.1361 43.8581C97.1876 41.4655 97.2107 39.0718 97.2541 36.6786C97.2558 36.5743 97.332 36.4716 97.5396 35.9533C97.5396 39.5425 97.5971 42.7198 97.5107 45.8934C97.4774 47.1243 97.7361 47.6453 99.0869 47.5543C100.3 47.4725 101.48 47.2093 102.367 48.8552C102.818 49.6929 104.783 49.1393 106.329 49.0344C105.075 48.4284 103.958 48.9413 102.948 48.6081C102.948 48.339 103.134 48.3209 103.3 48.3118C106.438 48.1411 106.293 48.1144 106.892 44.967C107.534 41.5949 107.696 38.1876 108.077 34.7962C108.138 34.2501 108.02 33.6542 108.543 32.9599C108.655 38.2731 109.447 43.3296 109.765 48.3669C111.095 44.883 110.866 41.0803 111.514 36.9214C112.039 42.1352 112.722 46.8648 112.928 51.6148C113.087 55.2864 114.585 58.7093 114.492 62.429C114.465 63.524 114.171 64.6296 114.338 65.7711C114.527 67.0565 114.403 68.3868 114.416 69.6974C114.421 70.1531 114.42 70.6094 114.438 71.0651C114.453 71.4251 114.535 71.7482 115.001 71.7466C115.376 71.7455 115.462 71.4845 115.497 71.1871C115.677 69.6824 116.898 69.4914 117.974 68.8132C119.801 67.662 121.189 65.8075 121.574 63.4924C121.666 62.942 121.659 62.375 121.743 61.8192C121.96 63.7374 123.092 64.6839 125.138 64.6585C127.288 64.6318 127.493 64.4403 127.645 62.2322C127.707 61.3229 127.479 60.2889 127.843 59.5304C128.326 58.5231 128.224 57.364 128.866 56.445C131.285 57.1003 133.712 56.6611 136.136 56.4488H128.868C128.3 55.3019 128.279 53.3923 129.027 52.7397C129.573 52.2637 129.623 51.7148 129.504 51.2302C129.187 49.9363 129.645 48.6787 129.53 47.3997C129.445 46.4444 129.734 46.5733 130.387 45.4987C130.819 44.7889 130.684 43.5773 130.466 42.6712C130.091 41.114 130.69 40.8642 132.048 41.0151C133.059 41.1274 134.094 41.0231 135.119 41.0151L135.062 40.9734C136.059 41.1087 136.455 41.5505 136.283 42.6535C136.111 43.7554 136.245 44.9044 136.245 46.0823C137.013 45.9796 136.431 45.1767 137.125 45.0916C137.552 47.91 137.468 50.7376 136.959 53.7068C137.851 53.4105 137.069 52.7574 137.638 52.6959C138.198 52.6354 138.244 53.2153 138.276 53.541C138.407 54.8596 138.418 56.1893 138.53 57.51C138.786 60.5595 139.074 63.6064 139.36 66.6532C139.368 66.7334 139.506 66.8019 139.607 66.8993C140.719 66.1702 140.704 65.01 140.756 63.8738C140.923 60.2381 140.494 56.5777 141.209 52.9644C141.318 52.4156 141.408 51.8635 141.749 51.3083C141.889 52.3054 142.029 53.3024 142.198 54.5038C143.943 52.3418 145.512 50.4252 145.287 47.5468C145.11 45.2863 145.333 42.9932 145.411 40.7155C145.444 39.7645 145.484 38.7936 146.28 37.8671C146.363 38.9065 146.434 39.7976 146.477 40.3325C146.628 34.9963 148.632 30.0366 152.647 25.9869C153.729 24.8962 153.84 23.6381 154.076 21.8285C154.864 23.9098 155.542 22.9684 156.229 22.2794C156.993 21.5134 157.763 20.7549 158.518 19.9804C158.898 19.5915 159.1 19.1021 158.961 18.5704C158.463 16.6554 158.338 14.9421 159.467 13.0137C160.144 11.8589 160.176 10.1167 160.381 8.62964C160.773 5.77912 160.978 2.90292 161.587 -0.00323486C161.729 1.27305 161.948 2.54667 161.997 3.8267C162.107 6.72858 162.549 9.59354 163.128 12.4189C163.417 13.8338 164.564 15.056 164.188 16.6661C164.151 16.8266 164.249 17.0261 164.195 17.1743C163.121 20.0927 165.625 21.1925 167.092 22.794C168.06 23.851 167.73 22.1537 168.507 22.2136C167.914 24.7437 170.032 25.8922 171.317 27.5092C174.351 31.3268 175.969 36.019 175.987 41.2499C176.156 40.0908 175.812 38.9846 176.393 37.7029C177.254 39.9806 176.824 42.171 177.096 44.2737C177.205 45.1157 177.245 45.9994 177.114 46.8327C176.604 50.0994 178.326 52.4766 180.154 54.904C180.77 53.9278 180.369 52.8365 180.814 51.7528C182.366 56.7708 181.235 61.9006 182.195 66.8468C182.983 65.6406 182.938 64.3082 183.013 63.0003C183.099 61.4769 183.062 59.9305 183.863 58.551C183.779 65.095 183.699 71.6327 183.628 78.1703C183.626 78.3586 183.598 78.6287 183.953 78.687C184.49 78.2751 184.272 77.6573 184.273 77.1427C184.275 74.4693 184.249 71.7947 184.186 69.1218C184.153 67.6904 184.22 66.2895 184.811 64.9586C185.38 64.4456 185.949 63.9327 186.834 63.133C186.834 64.3039 186.861 65.1346 186.826 65.9621C186.792 66.7666 187.27 67.9926 185.589 67.5984C185.178 67.5021 185.14 67.8444 185.15 68.1354C185.158 68.3708 185.263 68.6388 185.534 68.5955C187.727 68.244 189.93 68.5484 192.127 68.4831C192.658 68.4671 192.629 68.1386 192.64 67.8059C192.67 66.8308 192.188 67.6401 191.959 67.6299C191.387 67.6037 190.757 67.7113 190.757 66.8367C190.758 65.5026 190.757 64.1686 190.757 62.5719C191.53 63.6016 192.16 64.4392 192.789 65.2769C192.959 65.2074 193.129 65.1378 193.299 65.0683C191.952 62.8982 189.78 61.0057 190.814 57.7293C189.918 58.6708 189.963 59.3517 189.953 60.0177C189.923 62.0107 189.914 64.0049 189.846 65.9969C189.826 66.5821 190.216 67.4786 189.021 67.4593C187.825 67.4401 188.077 66.5917 188.077 65.8787C188.077 64.4424 188.077 63.0067 188.077 61.5705C187.99 61.5705 187.903 61.571 187.815 61.5716V67.1127C187.64 67.1106 187.465 67.1084 187.29 67.1068V57.7743C187.061 57.7454 186.831 57.7165 186.602 57.6882C187.38 60.5135 186.261 62.7478 184.718 64.85C184.206 64.4783 184.383 63.9268 184.385 63.4454C184.392 61.8005 184.208 60.1808 183.85 58.5782C183.863 57.9642 183.623 57.4111 183.238 56.7034H191.779C191.779 56.5868 191.78 56.4696 191.78 56.353C189.765 56.353 187.738 56.2156 185.739 56.3953C184.064 56.5461 183.428 56.0722 183.724 54.4006C183.821 53.8518 183.689 53.2597 184.124 52.6921C184.658 52.9687 184.23 53.6068 184.75 54.2621C184.762 51.0248 184.524 48.147 184.808 45.3307C185.586 45.1002 185.167 46.0074 185.766 45.9539C185.62 44.5289 186.03 43.0873 185.406 41.6677C185.12 41.0172 185.822 41.0038 186.172 40.9964C188.048 40.9568 189.926 40.9776 191.827 40.9776C190.973 42.7359 191.661 44.5155 191.421 46.3465C192.254 46.1732 191.723 45.465 192.206 45.2569C192.704 45.2847 192.589 45.7367 192.568 45.9999C192.445 47.5217 192.859 49.0564 192.39 50.5798C192.251 51.0312 192.25 51.7705 192.524 52.0636C194.058 53.6993 193.218 55.6528 193.526 57.4373C193.907 59.6497 193.882 61.9738 194.68 64.0894C195.134 65.2903 196.389 64.4735 197.268 64.6264C198.054 64.7634 198.216 64.2253 198.196 63.5721C198.179 63.0057 198.193 62.4387 198.349 61.8294C197.986 64.5794 199.824 66.2793 201.245 68.1756C201.678 68.7527 202.155 69.0913 202.945 69.11C204.049 69.1368 204.047 69.216 204.455 70.4655C204.957 70.3981 204.536 69.8418 204.908 69.6744C205.101 70.013 205.27 70.3762 205.498 70.6987C205.808 71.1368 205.565 72.1344 206.599 71.8611C207.42 71.6439 207.148 70.9191 207.107 70.4286C206.913 68.1151 207.869 65.715 206.596 63.4844C208.329 61.5764 206.31 58.8083 208.114 56.912C208.455 56.5531 208.405 56.0642 208.448 55.6159C209.02 49.6683 209.958 43.757 210.308 37.7709C211.052 40.2849 210.635 42.9493 211.33 45.8186C212.539 41.6088 212.306 37.5286 213.142 33.5569C213.268 35.0739 213.372 36.593 213.523 38.1073C213.824 41.1066 214.175 44.101 214.45 47.1023C214.529 47.9598 214.874 48.1732 215.721 48.2732C218.329 48.5814 220.705 47.0307 223.334 47.4623C224.172 47.5998 223.975 46.683 223.979 46.1695C224.001 42.9846 223.99 39.7992 223.99 36.6139C224.157 36.6139 224.324 36.6128 224.49 36.6123C224.49 39.7425 224.539 42.8734 224.465 46.002C224.437 47.1911 224.787 47.6308 226.005 47.549C227.429 47.4538 228.863 47.5169 230.293 47.5308C230.685 47.5345 231.145 47.4907 231.455 47.6715C232.605 48.3417 232.563 48.3695 232.822 46.9429C233.351 44.0218 233.386 41.0547 233.95 38.0726C234.125 39.8805 234.289 41.6896 234.48 43.496C234.611 44.7418 234.679 46.0079 234.974 47.2168C235.122 47.8277 234.732 49.0184 236.099 48.8862C237.328 48.7675 236.836 47.7608 236.908 47.1558C237.457 42.5829 238.097 38.018 238.495 33.3894C238.546 33.6467 238.629 33.9024 238.644 34.1613C239.016 40.7664 239.822 47.3356 241.099 53.809C241.475 55.7154 242.203 57.6496 242.145 59.5753C242.113 60.612 242.162 61.0244 243.289 61.2918C242.142 61.3352 242.131 62.0017 242.133 62.7067C242.143 65.1004 242.169 67.4952 242.122 69.8883C242.101 70.9876 242.817 71.6482 243.375 72.4249C243.567 72.6934 243.866 72.8865 244.05 72.5885C244.779 71.4064 246.22 71.0411 247.116 70.0258C247.26 70.2938 247.445 70.6811 247.667 71.0459C248.75 72.825 248.887 72.887 250.391 71.4481C251.026 70.8415 252.326 71.3604 252.394 69.7519C252.737 70.4211 252.92 70.7677 253.095 71.1175C253.637 72.2034 254.348 72.841 255.38 71.684C256.097 70.8806 257.728 71.6872 257.743 69.7765C258.241 70.6276 258.516 71.1154 258.807 71.5936C259.279 72.3666 259.78 72.7148 260.43 71.7343C260.697 71.3315 261.13 71.124 261.62 71.1967C262.53 71.332 262.768 70.6602 263.126 69.8659C263.352 70.419 263.525 70.8405 263.697 71.2625C264.603 67.2646 265.536 63.2977 265.91 59.2041C266.352 62.0428 266.76 64.8736 267.404 67.6642C267.543 68.267 267.463 68.5655 268.367 68.4633C270.288 68.2456 272.247 68.3547 274.19 68.3194C276.239 68.2825 277.399 67.3941 277.707 65.3914C278.458 60.5178 279.757 55.7282 279.993 50.7547C280.335 54.3321 281.209 57.8069 281.693 61.3405C281.865 62.5949 282.271 63.0779 283.502 62.8639C283.78 62.8158 284.073 62.8489 284.359 62.8468C287.085 62.8286 288.595 61.5645 288.889 59.0543H298.769C298.772 59.2239 298.775 59.3929 298.779 59.5625C295.634 59.7534 292.434 59.118 289.329 60.115C292.787 60.115 296.245 60.138 299.702 60.1006C300.705 60.0899 300.919 59.3287 301.031 58.4638C301.359 55.9374 301.837 53.4319 302.067 50.8729C302.992 57.1918 304.149 63.4395 305.485 69.5995C306.154 69.7482 305.815 68.8511 306.554 69.048C306.653 70.3221 306.721 71.6712 306.867 73.0122C307.463 78.4629 307.184 83.9361 307.302 89.3991C307.337 91.0188 308.555 92.0372 308.964 93.5794C309.591 93.1429 309.516 92.5251 309.828 91.9094C310.52 94.7877 310.571 97.5297 310.568 100.282C310.567 101.064 310.253 102.094 311.62 102.186C311.961 102.209 312.073 102.558 312.027 102.838C311.739 104.562 313.016 105.212 314.139 105.993C314.604 106.317 315.191 106.633 315.415 107.099C315.887 108.08 316.658 108.119 317.54 108.114C318.569 108.108 319.598 108.153 320.628 108.165C321.359 108.173 322.038 108.218 321.999 109.224C321.958 110.291 321.139 109.94 320.602 109.942C312.195 109.966 303.789 109.969 295.382 109.967C231.045 109.957 166.709 109.944 102.372 109.933C68.9176 109.927 35.4629 109.922 2.00816 109.917C1.6078 109.917 1.20745 109.905 0.807097 109.917C0.237693 109.935 -0.0381532 109.707 0.00424342 109.106C0.0402001 108.597 0.160413 108.205 0.771677 108.199C0.885987 108.198 1.00566 108.157 1.113 108.179C4.53478 108.904 6.85211 106.965 9.14582 104.916C9.68249 104.436 10.1381 104.009 10.063 103.215C10.0142 102.698 10.0319 102.136 10.7735 102.099C11.8093 102.048 11.6789 101.318 11.6848 100.628C11.7084 97.8656 11.6199 95.0937 12.2268 92.3298C12.7973 92.5925 12.6245 93.1777 12.9347 93.5088C13.02 93.482 13.1477 93.4826 13.1907 93.4227C14.5152 91.5762 15.3438 89.628 15.2112 87.2423C15.0696 84.6887 15.1989 82.1131 15.3395 79.5541C15.4334 77.8408 15.1399 76.1478 15.5686 74.3949C15.9937 72.6559 15.823 70.7725 15.9298 68.6308C16.6575 69.814 17.0874 69.7032 17.3005 68.627C17.7422 66.3927 18.2284 64.1664 18.6405 61.9268C19.3157 58.2568 20.0954 54.6028 20.5017 50.8617C20.7475 53.9796 21.1006 57.0666 21.8852 60.0861C25.4347 60.0856 28.9848 60.0856 32.6663 60.0856C32.3652 59.4384 31.9568 59.4566 31.5699 59.4544C28.8372 59.441 26.1045 59.4432 23.3718 59.4159C22.7493 59.41 22.2679 59.6181 21.8874 60.0931L21.8858 60.0984ZM211.532 73.8215C210.142 73.8975 209.783 74.7094 209.83 75.9799C209.942 78.9925 209.96 82.0083 210.042 85.0219C210.052 85.3926 209.798 85.9297 210.72 86.2142C210.72 84.1757 210.643 82.2666 210.741 80.3661C210.84 78.472 210.191 76.5645 210.527 74.4821C211.318 75.016 210.776 75.7268 211.354 76.0301C211.56 75.3287 211.608 74.5816 211.499 73.7889C213.042 73.622 211.704 75.1154 212.493 75.4337C212.337 73.714 212.385 72.052 213.475 70.6019C213.655 70.3623 213.569 70.0665 213.359 69.8364C213.821 70.0253 214.234 70.0814 214.619 70.6238C215.719 72.1713 215.685 73.9007 215.659 76.0077C216.141 75.0315 215.707 74.3029 216.178 73.7247C216.771 74.3698 216.034 75.7857 216.815 75.8199C218.115 75.8777 217.64 76.5993 217.641 77.1385C217.643 79.7017 217.587 82.2656 217.586 84.8288C217.586 85.307 217.431 85.8719 218.354 86.686C218.354 82.6657 218.356 79.1053 218.345 75.545C218.345 75.4038 218.25 75.2379 218.152 75.1251C216.777 73.5535 215.623 71.8231 214.782 69.9274C214.251 68.7308 213.892 69.1502 213.406 69.8707C212.723 71.1598 211.733 72.304 211.531 73.8204L211.532 73.8215ZM78.5089 72.2162C78.9012 72.3853 79.3069 73.1176 79.6617 72.1601C79.9488 71.3855 80.2788 70.6265 80.7076 69.5711C81.6559 71.3165 82.9649 72.503 82.5645 74.4399C82.4599 74.9459 82.1738 75.7226 83.0271 76.0585C83.9926 76.4388 83.3507 74.9352 84.2502 75.1192V82.2623C84.4471 82.2591 84.6446 82.2559 84.8416 82.2527C84.452 79.5921 84.9698 76.9363 84.4697 74.2762C84.4503 74.1735 84.3618 74.0772 84.2894 73.9921C83.1355 72.6415 82.2624 71.1042 81.3726 69.5824C80.9384 68.8399 80.6266 68.9137 80.1881 69.5727C79.6096 70.4414 79.3794 71.5278 78.5277 72.2248C78.0361 73.0437 77.7334 73.9328 77.603 75.001C77.3293 74.6388 77.1211 74.1628 76.951 74.1761C76.3918 74.2189 76.5571 74.7517 76.5485 75.109C76.4991 77.1363 76.4379 79.1642 76.4503 81.192C76.4588 82.6753 76.5742 84.1581 76.6418 85.6408C76.9907 85.4269 77.0701 85.2225 77.0712 85.0177C77.0798 83.2027 76.9939 81.383 77.0986 79.5739C77.1887 78.0082 76.3821 76.2762 78.1939 74.9534C78.6984 74.5854 78.4252 73.1588 78.5089 72.2173V72.2162ZM176.533 54.6055C177.224 56.1 176.466 57.8358 177.448 59.3052V53.7368C176.99 53.985 177.538 55.111 176.497 54.6429C176.487 53.8545 175.928 53.3035 175.611 52.6509C175.044 51.4832 174.167 50.4332 174.237 49.0317C174.328 47.2211 174.439 45.411 174.542 43.603C176.911 43.5842 175.834 45.6255 176.534 47.0809C176.488 45.0258 177.358 43.0579 174.655 42.5888C174.114 42.4946 174.343 41.941 174.31 41.573C174.206 40.4021 174.112 39.2301 174.014 38.0581C173.785 38.0667 173.558 38.0752 173.33 38.0838C173.33 41.1937 173.41 44.3069 173.307 47.4136C173.208 50.3786 174.685 52.5541 176.534 54.6065L176.533 54.6055ZM158.689 72.4532L158.654 72.4211C158.687 73.0684 157.855 73.638 158.474 74.404C159.151 73.4957 159.457 72.259 160.921 72.3115C162.277 72.3596 162.786 73.5171 163.468 74.3457C164.891 70.2152 163.111 67.0111 160.947 63.8102C160.141 65.3635 159.313 66.7843 158.656 68.2799C158.061 69.6353 157.855 71.0694 158.689 72.4537V72.4532ZM153.884 42.6663C152.865 41.0044 154.091 38.9691 152.934 37.1215C152.769 38.8712 152.275 40.3908 152.593 41.9255C152.023 42.1908 151.928 41.5965 151.605 41.6147C150.942 41.6522 150.201 41.5275 149.725 42.1389C149.584 42.3197 149.523 42.7894 149.642 42.9044C150.107 43.3542 150.757 43.1788 151.267 43.0525C152.227 42.8145 152.326 43.2842 152.247 43.9951C151.919 46.9456 152.869 50.0015 151.515 52.8708C151.461 52.9852 151.548 53.165 151.574 53.3543C153.143 51.3532 153.876 49.2002 153.841 46.8857C153.82 45.4677 153.846 44.0485 153.85 42.6305C155.167 42.6273 156.549 43.1515 157.741 42.1496C157.705 42.9391 157.586 43.7351 157.651 44.5161C157.743 45.6238 157.546 46.2331 156.243 45.8303C155.29 45.5356 154.768 45.9619 154.571 47.1275C155.683 46.6589 156.626 46.6872 157.208 47.6774C157.589 48.3257 157.388 48.9943 156.96 49.5955C156.314 50.5027 155.497 50.4193 154.51 49.8132C154.848 51.9283 156.206 51.1045 157.325 51.005C156.731 53.5079 156.884 55.9187 156.877 58.3311C157.107 58.3391 157.338 58.3472 157.568 58.3557V51.9711C158.377 51.9679 158.123 52.7269 158.815 52.7135C159.197 50.3952 159.162 48.0288 159.161 45.6629C159.161 44.6498 158.686 43.4393 159.312 42.6979C159.66 42.2855 160.923 42.6979 161.758 42.6038C162.031 42.5733 162.293 42.577 162.562 42.5658C162.958 42.5487 163.186 42.3106 163.192 41.9084C163.2 41.3852 162.949 41.3847 162.452 41.3328C161.743 41.2595 161.071 41.1868 160.37 41.3467C159.491 41.5478 158.784 41.6356 158.863 40.279C158.933 39.098 158.692 37.8987 158.588 36.7075C157.763 38.4962 158.058 40.3914 157.705 42.2127C156.93 40.6883 155.704 41.4596 154.558 41.5254C153.563 41.5826 153.809 42.1149 153.885 42.6663H153.884ZM102.021 62.152C103.053 60.7211 101.707 60.0332 101.086 58.9885C100.767 59.7802 100.294 60.3755 100.346 61.1565C100.072 61.4502 99.1234 60.7933 99.3804 61.8567C99.5028 62.3638 99.1421 62.7521 98.7337 62.5034C98.0506 62.0872 96.7583 63.0864 96.7051 62.0247C96.6354 60.6446 95.452 60.2316 94.9814 58.7323C94.7967 60.3686 93.7186 60.9827 93.4497 62.1514C93.2318 63.0977 92.1585 62.1092 91.4995 62.4301C91.2199 62.566 90.6177 62.5087 90.7014 62.1113C91.0261 60.5654 89.158 60.421 88.9347 59.1501C88.8736 60.1562 87.6634 60.6077 87.8609 61.7133C88.0546 61.6491 88.1635 61.6395 88.2387 61.5839C88.5886 61.3255 88.5387 60.4146 89.2433 60.8109C89.6292 61.0281 90.1186 61.5769 89.9066 62.0765C89.6673 62.6403 89.0099 62.3087 88.5269 62.3419C87.6854 62.4002 86.8455 62.4788 86.0051 62.5489C85.8537 62.765 85.7024 62.9811 85.5511 63.1972C87.6392 62.3119 87.6897 63.494 87.7729 64.6933C88.6342 64.2253 87.7407 62.8645 89.18 62.8174C90.7299 62.7671 89.743 64.3076 90.5072 64.6141C91.031 64.0894 90.1948 62.9383 91.2531 62.9206C92.2572 62.9035 91.3782 64.1942 92.0147 64.597C92.6071 64.1258 91.8633 62.9779 92.8111 62.9099C94.0084 62.8243 93.0257 64.2948 93.8892 64.7136C94.2424 64.0728 93.5989 62.98 95.1005 62.9302C96.7609 62.8752 95.8025 64.2483 96.366 64.6757C96.9182 64.1627 96.1298 62.9056 97.2761 62.9051C98.3184 62.9051 97.5676 64.1407 98.1042 64.605C98.5931 64.1407 97.8649 62.9607 98.9162 62.995C99.8017 63.0239 99.2167 64.213 99.8876 64.7029C100.121 63.9888 99.6783 62.9848 101.033 62.8682C102.557 62.7372 101.951 64.037 102.478 64.8565C102.625 64.0712 102.626 63.5427 102.83 63.1089C103.044 62.6548 103.823 63.4502 104.071 62.6906C103.48 62.1027 102.574 62.7671 102.02 62.1525L102.021 62.152ZM168.935 42.4042C168.927 43.3157 168.918 44.2272 168.91 45.1392C168.904 45.8972 168.956 46.5059 167.801 45.9485C166.886 45.5067 165.818 45.5292 165.522 47.2612C166.734 46.3952 167.608 46.6412 168.36 47.5747C168.91 48.2572 168.602 48.8739 168.24 49.4597C167.635 50.4369 166.773 50.7659 165.585 50.2016C166.857 52.0181 167.92 51.7528 169.139 49.3677C169.925 50.9692 170.069 52.7905 171.387 54.1251C170.205 51.1173 170.351 47.9946 170.332 44.8777C170.324 43.5719 170.317 42.5273 172.119 43.1954C172.529 43.3473 173.074 43.3954 173.135 42.6931C173.182 42.1352 172.872 41.81 172.348 41.7789C171.595 41.7335 170.837 41.7672 170.061 41.7672C170.038 40.3309 170.175 38.9685 169.617 37.6842C169.379 38.3106 169.403 38.9386 169.28 39.5366C169.081 40.5064 169.713 41.5864 168.885 42.4652C168.784 40.8685 167.473 41.4596 166.69 41.3959C165.682 41.3141 164.553 41.8929 164.758 40.0218C164.878 38.9215 164.57 37.7741 164.456 36.6481C163.812 39.8051 163.384 42.9611 163.41 46.2015C161.407 45.2248 160.334 45.4842 159.833 47.1548C161.074 46.4267 162.082 46.5819 162.894 47.6913C163.425 48.4166 163.075 48.9697 162.616 49.5206C161.83 50.4658 160.91 50.4402 159.868 49.7699C160.053 50.9344 160.738 51.1949 161.695 51.1847C162.913 51.1714 163.53 50.5503 163.623 49.3168C163.843 52.3915 165.425 55.1195 164.999 58.2006C165.657 57.6769 165.492 57.0949 165.492 56.5558C165.492 52.8077 164.655 49.1125 164.862 45.3403C165.003 42.7771 164.881 42.7867 167.44 42.7273C167.94 42.7156 168.434 42.5208 168.935 42.4042H168.935ZM144.926 73.4888C145.279 73.7471 145.267 74.366 145.867 74.4174C146.089 74.0306 146.279 73.6134 146.544 73.2502C147.523 71.9081 149.443 71.8851 150.204 73.3593C150.69 74.2997 151.101 74.2334 151.803 73.8338C151.813 73.9456 151.78 74.1178 151.84 74.1596C152.347 74.5158 152.316 73.9413 152.46 73.7541C154.02 71.7386 155.428 71.7814 156.876 73.9087C157.025 74.1275 157.089 74.4575 157.441 74.3725C158.73 70.3419 156.757 67.1838 154.719 64.0429C152.057 69.0635 151.19 69.6706 152.144 72.128C152.542 70.4131 152.388 68.4649 155.05 68.9266C156.769 69.2245 155.64 70.6404 156.351 71.239C156.964 70.6094 156.118 69.707 156.845 68.6671C156.966 70.2579 157.058 71.4577 157.154 72.7271C154.238 71.0978 153.583 71.2486 151.767 73.8819C151.804 70.2114 150.537 67.0073 148.259 63.9872C147.162 66.6323 145.099 68.7458 145.416 70.6634C145.569 68.672 143.548 66.5425 142.138 63.777C140.864 66.443 138.899 68.4714 139.515 71.5075C140.034 71.0079 139.789 70.4601 139.886 69.9835C139.98 69.5299 139.802 68.8292 140.474 68.796C141.624 68.7393 142.783 68.8469 143.937 68.9036C143.973 68.9052 144.046 69.117 144.024 69.2127C143.661 70.8036 145.007 72.0226 144.963 73.538C143.943 71.8712 142.746 71.362 140.967 71.821C139.803 72.1216 139.591 72.9881 139.539 74.113C141.389 71.8274 142.435 71.2224 144.736 74.4126C145.038 74.1542 144.974 73.8199 144.925 73.4883L144.926 73.4888ZM43.6991 76.2473C44.5326 74.6784 43.9401 73.0384 44.0163 71.071C43.5928 71.9007 43.9181 72.6142 43.3331 73.1807C42.4524 71.5974 41.5637 70.1659 41.0657 68.2825C40.2848 69.8065 39.5754 71.0362 39.0247 72.3323C38.7489 72.9806 37.6917 72.7784 37.7942 73.8686C38.0061 76.1184 37.9058 76.1275 35.6636 76.1371C35.2064 76.1393 34.7459 76.1114 34.2919 76.1494C33.4466 76.22 32.8638 76.1286 32.9169 75.016C32.9631 74.0494 33.2465 73.6921 34.2565 73.8675C34.5028 73.9103 35.1221 74.1922 35.318 73.5139C33.5486 73.369 31.8071 73.3556 30.0785 73.6744C30.5288 73.8488 30.9823 73.9328 31.4186 73.8793C32.405 73.7589 32.7157 74.2591 32.7887 75.1326C32.8799 76.22 32.1715 76.1489 31.4567 76.1334C30.8851 76.1211 30.313 76.1334 29.7409 76.1382C27.5352 76.1558 27.5503 76.1564 27.5991 74.0226C27.6136 73.4011 27.5143 72.7768 27.4676 72.1542C27.4392 73.3305 26.6143 73.7365 25.7476 73.4176C24.5052 72.9603 22.6033 74.6897 21.9641 72.3077C21.9609 72.2965 21.8638 72.3157 21.8112 72.3115C21.0727 72.2515 21.0185 72.2189 20.8221 71.8386C20.2639 70.756 19.7004 69.6754 19.0634 68.4478C18.7463 69.0919 18.5096 69.5973 18.252 70.0916C16.4611 73.5268 16.4617 73.5712 20.2344 73.4091C21.6942 73.3465 21.1242 74.4308 21.3271 75.0507C21.5632 75.7712 21.3539 76.2355 20.4319 76.1927C19.2051 76.136 17.9735 76.1788 16.7439 76.1788C19.7767 76.5667 22.7992 76.5929 25.8201 76.5522C26.8193 76.5388 27.2492 76.7442 27.1333 77.8959C26.9454 79.7627 26.9433 81.6499 26.9159 83.5295C26.902 84.4924 26.7442 85.4868 27.1215 86.7106C27.7419 85.9923 27.6152 85.4113 27.6211 84.8903C27.6404 83.1241 27.6152 81.3568 27.62 79.5905C27.6292 76.5335 27.6351 76.6127 30.8035 76.5404C32.2606 76.5073 32.5611 76.9357 32.4881 78.3511C32.3508 81.0235 32.1962 83.7173 32.4629 86.6133C33.2711 86.034 33.0586 85.4199 33.0618 84.9117C33.0763 82.5753 33.108 80.2366 33.0071 77.9039C32.9609 76.8411 33.2647 76.5217 34.3257 76.549C36.9543 76.6164 39.5861 76.5913 42.2163 76.5565C42.732 76.5495 43.3793 76.8667 43.7538 76.1895L43.6996 76.2495L43.6991 76.2473ZM160.934 85.674C160.934 85.7125 160.934 85.751 160.934 85.789C154.359 85.789 147.783 85.82 141.208 85.7622C139.926 85.751 139.348 85.9955 139.45 87.4242C139.593 89.4413 139.532 91.4734 139.557 93.4991C139.566 94.1833 139.56 94.8674 139.585 95.5505C139.601 95.9881 139.523 96.5947 140.178 96.561C140.741 96.5321 140.545 95.9581 140.566 95.6045C140.612 94.8086 140.606 94.0094 140.627 93.2119C140.653 92.2683 140.901 91.4836 142.056 91.4895C143.275 91.4954 143.572 92.2935 143.567 93.3242C143.564 94.1223 143.57 94.9199 143.566 95.7179C143.565 96.125 143.558 96.4508 144.104 96.608C146.052 97.1691 146.893 96.5786 146.912 94.5647C146.918 93.9388 146.889 93.3012 146.997 92.6904C147.129 91.9447 147.612 91.4729 148.425 91.4863C149.142 91.4981 149.629 91.8811 149.778 92.5684C149.898 93.1194 149.906 93.6955 149.955 94.2614C150.05 95.3729 149.37 96.7562 151.605 96.7284C153.925 96.6995 152.963 95.2023 153.127 94.1742C153.198 93.727 153.127 93.2552 153.216 92.8139C153.364 92.0886 153.752 91.5601 154.593 91.5473C155.42 91.5344 155.909 91.9902 156.009 92.746C156.129 93.6441 156.104 94.5604 156.158 95.4681C156.183 95.8966 156.045 96.3732 156.642 96.6032C158.213 97.2082 159.409 96.4486 159.407 94.8145C159.407 94.2448 159.372 93.6714 159.422 93.1055C159.501 92.2164 159.908 91.5735 160.908 91.566C161.891 91.5585 162.37 92.1399 162.43 93.0573C162.482 93.8522 162.52 94.6594 162.441 95.4483C162.294 96.8985 163.301 96.631 164.114 96.6177C164.891 96.6048 165.956 97.0023 165.827 95.5067C165.758 94.715 165.803 93.911 165.834 93.1145C165.869 92.194 166.324 91.5644 167.291 91.5639C168.283 91.5628 168.674 92.2475 168.716 93.1456C168.75 93.8848 168.776 94.6305 168.72 95.3665C168.645 96.3363 169.058 96.5711 169.997 96.6749C171.669 96.86 172.32 96.309 172.041 94.639C171.958 94.141 172.014 93.6142 172.046 93.1028C172.103 92.1966 172.516 91.566 173.502 91.5414C174.536 91.5157 174.892 92.2287 174.954 93.0948C175.016 93.9447 174.99 94.8033 174.963 95.6564C174.94 96.3727 175.206 96.6219 175.961 96.6562C178.2 96.7562 178.221 96.7717 178.219 94.5016C178.219 93.933 178.19 93.3515 178.296 92.7984C178.436 92.0608 178.9 91.5853 179.718 91.5756C180.548 91.566 181.024 92.0276 181.115 92.7909C181.222 93.6922 181.198 94.6086 181.255 95.5174C181.284 95.9929 181.109 96.6722 181.926 96.6182C182.617 96.5722 182.407 95.9603 182.416 95.5521C182.474 92.8177 182.445 90.0795 182.58 87.3493C182.648 85.9719 182.162 85.6323 180.833 85.6446C174.201 85.7071 167.567 85.6729 160.934 85.6729V85.674ZM160.917 99.6565V99.6886C167.544 99.6886 174.17 99.6886 180.797 99.6886C181.661 99.6886 182.489 99.8148 182.52 98.4604C182.55 97.1215 181.796 97.1451 180.882 97.1841C179.801 97.2301 178.719 97.2933 177.637 97.2927C165.471 97.2895 153.305 97.2745 141.14 97.2665C140.326 97.2665 139.439 96.9707 139.396 98.4069C139.35 99.9801 140.365 99.6463 141.209 99.6479C147.779 99.6618 154.348 99.6554 160.918 99.6554L160.917 99.6565ZM152.572 83.7007C153.941 83.7007 155.311 83.698 156.681 83.7029C157.024 83.7039 157.439 83.6996 157.43 84.1698C157.421 84.5785 157.074 84.7106 156.695 84.7042C155.159 84.6791 153.345 85.2637 152.178 84.4341C151.308 83.8152 151.845 82.0115 151.791 80.7336C151.762 80.0505 151.81 79.3637 151.765 78.6822C151.71 77.8338 151.969 76.9331 151.314 76.1419C151.086 78.0441 151.038 79.9408 151.105 81.8339C151.142 82.8839 150.772 83.2439 149.727 83.2022C148.559 83.1556 147.365 83.0866 146.231 83.5739C147.538 83.7157 148.841 83.7029 150.143 83.7237C150.504 83.7296 151.042 83.6087 151.016 84.2292C150.999 84.6593 150.595 84.6705 150.248 84.7283C146.062 85.4253 145.497 84.9626 145.533 80.8507C145.54 79.9959 145.567 79.139 145.529 78.2858C145.496 77.5364 145.682 76.7341 145.053 76.059C144.851 77.9579 144.802 79.8472 144.868 81.7333C144.907 82.8556 144.484 83.2621 143.376 83.192C142.276 83.1219 141.167 83.1765 140.061 83.1765C140.067 83.3514 140.072 83.5263 140.077 83.7012C140.908 83.7012 141.746 83.6306 142.566 83.7221C143.306 83.805 144.685 83.3338 144.649 84.1056C144.603 85.0669 143.251 84.4918 142.482 84.5983C141.667 84.7112 140.823 84.6234 139.991 84.6234C143.058 85.3092 181.35 85.1599 182.428 84.6304C180.842 84.5175 179.253 84.5293 177.665 84.5079C177.341 84.5036 176.923 84.4507 177.022 83.9468C177.089 83.5991 177.399 83.5777 177.696 83.5836C179.012 83.6076 180.326 83.6328 181.642 83.6515C182.138 83.6585 182.688 83.8082 182.674 82.9604C182.64 80.924 182.664 78.8871 182.664 76.8501C182.422 77.99 182.44 79.1267 182.419 80.2629C182.357 83.4937 182.894 83.0556 179.621 83.0652C176.937 83.0733 176.968 83.0503 176.907 80.3559C176.874 78.9053 177.125 77.4166 176.546 76.0077C176.079 77.3947 176.266 78.8052 176.242 80.1987C176.192 83.0968 176.213 83.0968 173.372 83.0882C172.692 83.0861 172.012 83.0882 171.331 83.0882C171.335 83.269 171.337 83.4498 171.34 83.6301C171.996 83.6301 172.651 83.6274 173.306 83.6306C173.993 83.6344 174.679 83.6387 175.365 83.6542C175.636 83.6601 175.965 83.6007 176.096 83.9211C176.149 84.0505 176.107 84.2741 176.022 84.3945C175.683 84.8764 171.002 84.8299 170.745 84.3185C170.605 84.0377 170.647 83.6558 170.643 83.3193C170.616 81.2674 170.614 79.2155 170.567 77.1641C170.559 76.7897 170.795 76.2179 169.926 76.1061C169.926 77.9601 169.864 79.7804 169.948 81.5932C170.005 82.8101 169.542 83.2503 168.37 83.0947C168.034 83.0497 167.685 83.0957 167.342 83.1C165.324 83.1225 164.313 82.1308 164.309 80.1249C164.307 78.733 164.309 77.3412 164.309 75.9494C164.103 75.9595 163.898 75.9692 163.692 75.9788C163.692 77.729 163.613 79.4835 163.717 81.2278C163.803 82.6737 163.416 83.3183 161.83 83.1492C160.841 83.0438 159.756 82.8807 158.809 83.5376C160.167 83.6996 161.515 83.6938 162.863 83.705C163.137 83.7071 163.463 83.7168 163.498 84.1008C163.528 84.4351 163.331 84.6523 163.01 84.6635C161.474 84.7176 159.773 85.1476 158.466 84.4341C157.646 83.9864 158.151 82.4196 158.108 81.3567C158.05 79.9339 158.108 78.5068 158.086 77.0823C158.08 76.6886 158.251 76.1965 157.38 75.7194C157.38 77.8633 157.313 79.7622 157.403 81.6536C157.462 82.8754 157.008 83.2375 155.835 83.1728C154.732 83.1118 153.596 83.0572 152.573 83.7012L152.572 83.7007ZM289.322 86.5924C290.269 86.1961 290.039 85.606 290.035 85.1423C290.018 83.491 289.954 81.8403 289.901 80.1896C289.78 76.4083 289.777 76.4377 293.603 76.5394C294.557 76.5645 294.864 76.7908 294.821 77.8124C294.709 80.4276 294.746 83.0492 294.751 85.6681C294.751 86.0003 294.547 86.5903 295.212 86.5234C295.657 86.4785 295.577 86.0094 295.568 85.6858C295.494 83.1252 295.488 80.5592 295.29 78.0077C295.199 76.8384 295.514 76.5137 296.644 76.5426C299.441 76.6143 302.242 76.5971 305.04 76.5977C305.473 76.5977 306.226 76.8015 306.265 76.3382C306.373 75.039 306.546 73.6696 305.753 72.4746C305.561 73.3984 305.512 74.3035 305.576 75.2C305.625 75.8782 305.538 76.2441 304.721 76.2313C301.871 76.1858 299.019 76.1719 296.168 76.2008C295.257 76.2099 295.284 75.707 295.151 75.0309C294.944 73.9761 296.185 74.3741 296.357 73.5979C295.356 73.5984 294.989 73.032 295.11 72.082C294.802 73.1609 294.854 74.1815 294.961 75.2021C295.073 76.2762 294.299 76.3559 293.639 76.166C292.348 75.7942 290.486 77.2347 289.784 75.3578C289.15 73.6626 291.072 74.3238 291.95 73.7921C291.019 73.2449 289.198 74.0911 289.758 71.7664C289.034 73.3706 290.069 75.0464 289.208 75.8713C288.276 76.764 286.594 76.0719 285.247 76.2061C285.134 76.2174 285.018 76.1986 284.905 76.2067C284.27 76.2521 284.24 75.8852 284.172 75.3599C283.95 73.6166 285.374 74.0462 286.469 73.8231C285.571 73.1903 283.97 74.1895 284.149 72.3794C283.669 72.5431 283.867 73.1914 283.39 73.2363C282.643 71.7182 281.903 70.2125 281.098 68.5751C280.227 70.2162 279.449 71.6797 278.481 73.5038C278.409 72.527 278.37 71.9878 278.33 71.4492C278.1 72.419 278.036 73.3802 277.994 74.342C277.913 76.1676 278.257 76.5313 280.106 76.5469C282.618 76.5677 285.133 76.6512 287.64 76.5522C289.038 76.4971 289.338 76.9721 289.323 78.3019C289.292 80.9989 289.021 83.7082 289.323 86.593L289.322 86.5924ZM170.68 74.649C171.052 74.0569 171.28 73.6102 171.586 73.224C172.603 71.9381 174.207 71.9472 175.224 73.2208C176.313 74.5848 176.865 74.5912 177.967 73.2534C179.059 71.929 180.468 71.9531 181.566 73.2754C181.866 73.637 181.876 74.2559 182.483 74.3816C183.227 68.9319 182.871 67.6048 179.664 64.1156C178.577 66.7506 176.106 68.6869 176.273 70.941C176.626 68.8009 174.867 66.5473 173.439 63.9589C171.542 67.3122 169.32 70.3446 170.68 74.649H170.68ZM136.722 93.3574C136.732 93.3574 136.743 93.3574 136.753 93.3574C136.753 92.731 136.755 92.1052 136.753 91.4788C136.749 90.4748 136.584 89.7864 135.425 90.7085C135.021 91.0295 134.508 91.0423 134.304 90.4748C134.059 89.7944 133.498 90.0346 133.05 89.8778C132.001 89.5103 131.422 90.9113 130.836 90.6914C128.621 89.8602 129.325 91.4767 129.258 92.3956C129.191 93.3018 129.292 94.2197 129.234 95.1263C129.176 96.0121 129.359 96.4834 130.407 96.5032C131.615 96.5262 131.485 95.7848 131.466 95.0391C131.449 94.3566 131.396 93.6741 131.396 92.9915C131.397 92.1619 131.655 91.5275 132.658 91.5408C133.553 91.5532 134.257 91.8302 134.339 92.8418C134.404 93.6345 134.455 94.439 134.395 95.229C134.321 96.2042 134.698 96.5139 135.66 96.5182C136.658 96.523 136.784 96.0282 136.731 95.2349C136.689 94.6118 136.722 93.9832 136.722 93.3569V93.3574ZM185.144 93.4654H185.111C185.111 94.0924 185.157 94.7235 185.1 95.3456C185.014 96.2742 185.453 96.5096 186.303 96.5214C187.26 96.5347 187.264 95.9747 187.252 95.2991C187.236 94.4449 187.206 93.5853 187.28 92.7364C187.354 91.8917 187.893 91.3558 188.75 91.3595C189.588 91.3633 190.166 91.8457 190.239 92.7118C190.311 93.5617 190.332 94.4224 190.285 95.2734C190.24 96.0918 190.39 96.5503 191.372 96.5262C192.298 96.5037 192.727 96.2379 192.672 95.2419C192.605 93.9918 192.641 92.7348 192.666 91.4809C192.684 90.593 192.316 90.3849 191.419 90.3518C189.864 90.2945 188.289 88.8706 186.782 90.5085C186.764 90.5288 186.672 90.4967 186.623 90.4721C185.072 89.6906 185.19 90.8305 185.148 91.7559C185.123 92.325 185.143 92.8958 185.143 93.4654H185.144ZM241.878 109.298C241.083 107.455 240.37 105.571 239.467 103.782C238.786 102.431 239.05 102.117 240.536 102.123C250.25 102.163 259.965 102.131 269.679 102.117C270.256 102.116 270.834 102.069 271.411 102.044C270.749 101.4 270.018 101.538 269.324 101.537C260.181 101.533 251.038 101.545 241.895 101.548C237.881 101.55 237.864 101.552 239.513 105.28C240.137 106.692 240.542 108.229 241.878 109.298ZM82.9745 101.715H50.8475C50.8475 101.853 50.8464 101.991 50.8459 102.129H82.1867C81.1193 104.673 80.1661 106.945 79.213 109.216C79.3692 109.281 79.5248 109.345 79.681 109.408C80.7538 106.903 81.826 104.397 82.9745 101.714V101.715ZM131.135 62.9201C131.135 64.5216 131.145 65.8385 131.13 67.1555C131.123 67.7492 130.646 67.669 130.259 67.7011C129.91 67.73 129.365 67.0191 129.246 67.9028C129.109 68.9175 130.041 68.4136 130.318 68.4227C132.311 68.4901 134.311 68.3638 136.304 68.4355C136.783 68.4526 136.947 68.3216 137.004 68.0033C137.342 66.1172 137.95 64.1514 135.981 62.7227C135.101 62.0846 134.869 61.2234 134.828 60.2102C134.806 59.6807 134.959 59.0757 134.242 58.3493C134.242 61.1474 134.226 63.6652 134.251 66.183C134.259 67.0597 134.154 67.4861 133.021 67.3898C132.016 67.3047 131.944 66.9142 131.948 66.1397C131.964 63.4315 131.923 60.7243 131.356 58.0086C131.896 60.7131 130.442 62.811 129.415 65.0528C129.913 64.4355 130.411 63.8182 131.135 62.9201ZM232.716 59.2602C231.759 60.3327 231.367 61.7807 230.579 62.3312C229.728 62.926 228.111 62.3563 226.839 62.4499C225.589 62.5419 224.822 62.3868 225.583 60.8195C225.016 61.0538 224.924 61.3721 224.93 61.7262C224.936 62.1616 224.86 62.6409 224.325 62.4997C223.389 62.2531 221.648 62.7853 221.659 62.2932C221.691 60.9003 220.222 60.4675 220.346 59.0682C219.727 59.8695 219.726 60.4017 220.384 60.8575C220.832 61.1667 221.249 61.6058 221.071 62.1204C220.821 62.8382 220.091 62.4392 219.576 62.4884C218.843 62.558 218.1 62.5184 217.361 62.536C217.104 62.5419 216.901 62.6617 217.012 62.9484C217.057 63.0634 217.309 63.2218 217.377 63.187C218.889 62.4151 218.646 63.7781 218.849 64.6173C219.253 64.0177 218.65 63.1822 219.716 63.0346C220.882 62.8736 221.261 63.5427 221.467 64.5072C222.065 64.0364 221.423 63.0244 222.39 62.9586C223.4 62.8896 222.937 63.9123 223.342 64.3141C223.763 63.9439 223.178 63.0303 224.029 62.9533C225.243 62.8431 224.33 64.2135 225.063 64.5328C225.356 63.9476 224.952 63.0485 226.136 62.9383C227.379 62.8227 227.232 63.7845 227.49 64.5061C228.01 63.9621 227.554 63.0913 228.332 62.9656C229.506 62.7762 228.681 64.191 229.341 64.436C229.896 64.0268 229.165 63.0067 230.186 62.9506C231.127 62.8987 230.707 63.9583 231.398 64.4028C231.185 63.2977 231.655 63.1298 232.584 63.0576C233.938 62.9522 233.29 64.0423 233.779 64.6543C233.834 63.5855 234.181 62.8345 235.32 62.7275C234.783 62.3135 233.79 62.6719 233.895 62.1552C234.173 60.7976 232.53 60.5451 232.715 59.2602H232.716ZM167.317 63.8342C165.527 67.1517 163.254 70.2542 164.563 74.457C165.234 73.3706 165.705 72.2451 167.189 72.2382C168.751 72.2312 169.075 73.5749 169.809 74.7057C170.534 70.2879 170.176 68.773 167.317 63.8342H167.317ZM130.368 80.8983C130.368 82.0259 130.366 83.1048 130.369 84.1843C130.37 84.7919 130.564 85.0059 131.281 85.0064C135.312 85.0107 135.312 85.0428 135.296 81.0412C135.294 80.5865 135.145 80.0821 135.294 79.6862C136.075 77.6124 134.449 76.5458 133.505 75.1775C132.984 74.4222 132.713 74.6667 132.113 75.1893C130.299 76.771 129.756 78.6688 130.368 80.8983ZM123.536 90.2608C123.053 93.6773 122.937 97.0771 122.981 100.482C122.987 100.972 122.679 101.793 123.598 101.769C124.374 101.748 124.098 100.998 124.114 100.556C124.175 98.8252 124.186 97.0996 126.047 96.1592C126.325 96.0186 126.392 95.7533 126.389 95.4435C126.378 93.8495 126.384 92.255 126.384 90.6604C125.198 91.9463 125.206 93.7361 123.863 94.8214C124.514 93.2049 123.584 91.7553 123.536 90.2614L123.536 90.2608ZM186.253 81.5408C186.279 83.674 187.361 84.744 189.499 84.7507C189.555 84.7507 189.615 84.74 189.669 84.7523C191.141 85.0899 191.374 84.311 191.311 83.0775C191.241 81.7221 191.252 80.3527 191.366 79.0005C191.446 78.0451 190.112 74.9721 189.089 74.7239C187.84 74.4217 187.987 76.0189 187.239 76.5099C186.959 76.694 186.757 76.9967 186.474 77.1748C185.946 77.5076 185.848 77.9981 186.021 78.5025C186.365 79.5044 186.207 80.5266 186.253 81.5408ZM188.933 99.703V99.7394C189.786 99.7394 190.643 99.6907 191.491 99.7528C192.362 99.8169 192.736 99.5399 192.689 98.6225C192.649 97.8469 192.738 97.1638 191.589 97.1964C189.885 97.2446 188.176 97.2119 186.473 97.129C185.461 97.0798 185.094 97.3719 185.082 98.4492C185.069 99.6169 185.625 99.7576 186.544 99.711C187.338 99.6709 188.136 99.7025 188.932 99.7025L188.933 99.703ZM97.2525 73.9419C97.4715 73.9263 97.6905 73.9108 97.9094 73.8953C97.9094 71.4257 97.9078 68.956 97.911 66.4858C97.911 66.0707 97.698 65.8353 97.3014 65.8305C95.8234 65.8113 94.3454 65.8145 92.8674 65.8118C92.5218 65.8118 92.3232 66.0391 92.3088 66.3355C92.1966 68.589 92.0957 70.8442 92.5202 73.0753C93.052 71.929 92.9984 70.7335 93.096 69.5556C93.1969 68.3307 93.6037 67.225 95.0517 67.232C96.3724 67.2384 96.8871 68.2232 96.9799 69.4123C97.0974 70.9202 97.164 72.4318 97.2525 73.9419ZM229.021 72.8458C229.021 70.6634 229.025 68.481 229.016 66.2986C229.015 66.0102 228.925 65.6807 228.578 65.6759C227.095 65.654 225.612 65.6604 224.131 65.6786C223.815 65.6824 223.582 65.9182 223.581 66.2253C223.566 68.7078 223.572 71.1908 223.572 73.6733C224.356 72.4281 224.138 71.1325 224.199 69.8632C224.262 68.5505 224.673 67.3486 226.133 67.3036C227.531 67.2609 227.912 68.4788 228.131 69.6653C228.325 70.7148 228.109 71.8252 229.021 72.8448L229.021 72.8458ZM217.552 72.9796C217.725 72.9945 217.898 73.0095 218.072 73.024C218.072 71.9541 218.041 70.8838 218.08 69.8156C218.125 68.5799 218.596 67.4294 219.93 67.3459C221.212 67.2657 221.737 68.3558 221.894 69.5123C222.043 70.6088 222.125 71.714 222.236 72.8159C222.375 72.8175 222.513 72.8191 222.651 72.8202C222.906 70.6153 222.832 68.39 222.718 66.1654C222.701 65.8444 222.414 65.6727 222.111 65.6775C220.747 65.6984 219.382 65.7283 218.02 65.7925C217.665 65.8091 217.371 66.0226 217.361 66.4387C217.306 68.6259 217.194 70.8164 217.552 72.9796ZM234.68 72.8977C235.279 71.6166 235.043 70.466 235.048 69.3518C235.066 65.3095 234.923 65.2036 230.823 65.7679C230.71 65.7834 230.595 65.7829 230.481 65.7818C230.127 65.7781 229.936 66.0151 229.919 66.3018C229.781 68.5858 229.635 70.8726 230.214 73.1374C230.455 71.9814 230.379 70.8196 230.476 69.6728C230.57 68.5751 230.853 67.3571 232.24 67.3459C233.642 67.3341 234.095 68.4141 234.22 69.6712C234.319 70.6714 234.097 71.7166 234.681 72.8988L234.68 72.8977ZM262.222 76.0323V87.2819C262.493 84.7791 262.537 82.2811 262.471 79.7863C262.445 78.8106 262.728 78.465 263.719 78.5405C264.801 78.6223 265.894 78.5592 266.982 78.5592C266.245 78.25 265.499 78.3313 264.781 78.227C264.052 78.1211 262.721 78.6817 262.724 77.89C262.727 77.0197 264.039 77.5391 264.741 77.5225C268.07 77.4444 268.064 77.484 268.047 80.8363C268.035 83.0829 268.045 85.3295 268.045 87.5761C268.423 85.1246 268.43 82.6812 268.421 80.2383C268.414 78.4249 269.343 77.5136 271.209 77.5043C271.617 77.5022 272.026 77.4626 272.509 77.4369C271.028 76.5281 268.503 78.6983 268.046 75.4118C267.698 76.2355 268.201 77.4733 266.952 77.1813C265.327 76.8009 263.017 78.5827 262.222 76.0328V76.0323ZM133.045 99.5987C133.902 99.5987 134.76 99.5586 135.613 99.6094C136.538 99.665 136.767 99.2441 136.769 98.3909C136.772 97.5473 136.582 97.1392 135.636 97.1686C133.983 97.2194 132.326 97.1852 130.672 97.1494C129.752 97.1296 129.188 97.2654 129.229 98.4422C129.272 99.6757 129.978 99.6287 130.818 99.6057C131.56 99.5853 132.303 99.6014 133.045 99.5987ZM91.5569 73.5744C91.5569 71.301 91.5633 69.0282 91.5521 66.7548C91.5494 66.1702 91.5011 65.4465 90.6607 65.6824C89.2208 66.0867 86.9845 64.7821 86.421 66.581C85.8231 68.4895 86.2868 70.7287 86.2868 72.8234C87.0419 72.1874 86.9399 71.4449 86.9646 70.7362C87.0473 68.3649 87.6585 67.2839 88.9251 67.3186C90.139 67.3518 90.7406 68.4815 90.8286 70.8298C90.8619 71.7252 90.798 72.6383 91.5574 73.5744H91.5569ZM236.855 73.7263C236.74 73.7316 236.625 73.737 236.511 73.7423V99.8972C236.625 99.8956 236.74 99.8945 236.855 99.8929V73.7263ZM102.722 99.1312C102.868 99.1419 103.013 99.1526 103.158 99.1628V74.4698C103.013 74.4698 102.868 74.4703 102.722 74.4709V99.1312ZM103.739 72.687C103.834 70.6372 104.246 68.5361 103.925 66.5532C103.67 64.9704 101.915 65.9525 100.861 65.8444C100.136 65.7701 98.781 65.1507 98.6468 66.5794C98.4547 68.6249 98.4214 70.7014 98.7176 73.0507C99.2656 71.8477 99.0418 70.8635 99.1529 69.921C99.3005 68.6703 99.5505 67.3716 101.086 67.3555C102.703 67.339 103.047 68.5976 103.11 69.975C103.151 70.8806 102.921 71.8397 103.739 72.6875V72.687ZM300.656 76.051C301.506 75.2197 300.738 73.9419 301.524 73.6001C302.255 73.2823 303.247 73.4963 304.116 73.5706C305.252 73.668 305.43 73.1384 305.047 72.2569C304.513 71.0287 303.92 69.8257 303.328 68.5607C302.5 70.0943 301.71 71.5562 300.833 73.1796C300.693 72.7223 300.619 72.4799 300.496 72.0766C300.301 73.4749 299.906 74.6982 300.655 76.051H300.656ZM139.536 101.517C139.536 101.592 139.535 101.667 139.535 101.742H182.268C182.268 101.667 182.268 101.592 182.268 101.517H139.537H139.536ZM195.652 91.7463C195.729 93.811 194.828 96.079 197.007 97.5885C197.44 97.8881 197.353 98.6343 197.322 99.2125C197.291 99.7795 197.287 100.348 197.285 100.917C197.284 101.283 197.376 101.609 197.827 101.628C198.32 101.648 198.539 101.406 198.526 100.901C198.504 100.049 198.634 99.1761 198.493 98.3475C198.278 97.0793 199.449 95.2574 197.148 94.7241C196.984 94.6861 196.932 94.2239 196.804 93.9709C196.426 93.2263 196.037 92.4876 195.651 91.7468L195.652 91.7463ZM104.893 84.3667C104.781 87.4772 104.909 87.575 107.625 87.5076C108.452 87.4873 108.503 87.1669 108.506 86.524C108.515 84.9963 108.48 83.4563 108.666 81.9462C108.824 80.6779 107.905 80.12 107.298 79.3546C106.963 78.932 106.437 79.0786 106.063 79.3877C105.253 80.058 104.542 80.8288 104.778 81.9911C104.94 82.786 104.94 83.5707 104.893 84.3661V84.3667ZM238.666 84.2576C238.666 84.8219 238.719 85.1717 238.657 85.4991C238.399 86.8492 239.105 87.2263 240.274 87.1107C241.265 87.0129 242.56 87.367 242.362 85.5483C242.234 84.3774 242.173 83.1407 242.416 82.004C242.675 80.7919 241.879 80.2404 241.312 79.5445C240.891 79.0283 240.276 79.1775 239.783 79.5632C239.005 80.1719 238.293 80.917 238.506 81.9585C238.68 82.8101 238.618 83.6424 238.666 84.257V84.2576ZM110.427 82.1655C110.612 82.1586 110.797 82.1511 110.983 82.1441C110.983 79.7649 110.994 77.3856 110.969 75.0063C110.966 74.6822 110.885 74.1927 110.67 74.0633C108.7 72.8843 108.29 70.5773 106.855 68.948C105.171 70.8298 104.525 72.9298 105.371 75.1673C105.464 73.5407 105.43 71.6498 106.909 70.0927C108.226 71.9745 109.245 73.867 109.877 76.0087C109.917 75.5995 109.959 75.1898 110 74.7806C110.654 77.2107 110.123 79.7215 110.426 82.165L110.427 82.1655ZM212.209 84.3736C212.209 84.8267 212.248 85.2835 212.202 85.7312C212.082 86.8706 212.636 87.3531 213.697 87.1674C214.589 87.0118 216.008 87.773 216.007 85.8505C216.007 84.4533 215.877 83.0599 216.102 81.6381C216.254 80.679 215.266 79.9649 214.563 79.3187C214.076 78.8705 213.577 79.2021 213.226 79.5857C212.596 80.2725 211.718 80.924 212.127 82.0248C212.423 82.8224 212.191 83.5937 212.209 84.3736ZM146.488 53.4725C149.012 50.9424 150.158 43.2713 148.805 37.957C148.026 39.8591 149.469 42.7953 146.251 43.2617C146.627 44.3363 148.078 42.3994 148.101 44.224C148.137 47.1301 148.864 50.1561 146.685 52.7071C146.539 52.8788 146.293 53.15 146.488 53.4725ZM193.525 63.5919C193.525 68.0686 193.519 72.5452 193.527 77.0219C193.532 79.3471 193.557 81.6723 193.581 83.9976C193.585 84.3795 193.511 84.8882 194.116 84.8481C194.764 84.8053 194.486 84.3383 194.469 83.9585C194.397 82.3324 194.328 80.7052 194.322 79.078C194.302 73.9119 194.243 68.7484 193.525 63.5925L193.525 63.5919ZM216.676 101.981C216.676 101.883 216.676 101.785 216.676 101.688H199.611C199.611 101.785 199.611 101.883 199.611 101.981H216.676ZM110.452 99.5966C110.573 99.5907 110.694 99.5848 110.815 99.5784V82.7951C110.694 82.7951 110.573 82.7951 110.452 82.7946V99.5971V99.5966ZM127.634 64.9661V81.4819C127.779 81.4787 127.925 81.4755 128.071 81.4728C128.151 75.967 128.285 70.4601 127.634 64.9661ZM78.5776 84.2602C78.5776 84.8775 78.6452 85.2878 78.5653 85.6676C78.2991 86.9342 78.7595 87.4675 80.0593 87.2937C80.3932 87.2487 80.7586 87.2306 81.0763 87.3178C82.0488 87.5863 82.2157 87.1204 82.2436 86.2806C82.294 84.7641 82.14 83.2482 82.4212 81.7253C82.6031 80.7389 81.3108 79.2412 80.5107 79.246C79.615 79.2519 78.1842 80.8753 78.4987 81.8136C78.8116 82.7475 78.4606 83.6028 78.5776 84.2602ZM122.257 101.731H104.179C110.193 102.083 116.201 102.226 122.257 101.731ZM107.076 57.0864C106.42 57.9658 106.517 58.8944 106.526 59.8187C106.533 60.5499 106.352 61.095 105.426 60.6617C105.24 60.5745 105.011 60.0829 104.84 60.6029C104.713 60.988 104.946 61.156 105.414 61.1383C106.71 61.0891 108.009 61.1212 109.276 61.1212C109.426 60.344 108.835 59.5368 109.498 59.1078C109.839 58.8869 110.142 58.6537 109.874 58.4761C108.707 57.7037 108.989 56.3493 108.516 55.3126C107.949 55.4266 108.426 56.3065 107.777 56.2375C107.081 56.1631 107.782 55.2575 107.101 55.0569C106.681 55.7202 106.57 56.5055 107.363 56.7424C109.034 57.241 108.377 58.5526 108.561 59.5667C108.651 60.0653 108.506 60.4296 107.848 60.4274C107.228 60.4258 107.064 60.137 107.072 59.5967C107.086 58.7601 107.076 57.923 107.076 57.0864ZM45.6714 69.1309C44.8154 70.8865 44.5594 72.542 44.6914 74.3195C44.8674 76.6908 45.1245 76.9496 47.5937 76.656C47.1552 76.3265 46.6583 76.2559 46.1479 76.2061C45.7701 76.1697 45.2431 76.2232 45.3236 75.6311C45.3944 75.1106 45.8324 75.3257 46.1372 75.4C46.8166 75.5653 46.932 75.155 46.9137 74.6474C46.8697 73.4246 46.8027 72.2029 46.7447 70.9811C46.4077 71.3315 46.3733 71.6653 46.3132 71.9937C46.2558 72.3099 46.2708 72.7977 45.82 72.7233C45.1894 72.6196 45.4991 72.1991 45.6198 71.8183C45.8774 71.009 46.0288 70.1772 45.6714 69.1309ZM137.713 59.5084V81.9719C138.311 74.4843 137.997 66.9961 137.713 59.5084ZM76.9741 86.579C76.8597 86.5812 76.7454 86.5828 76.6317 86.5849V99.4719C76.746 99.4709 76.8603 99.4698 76.9741 99.4693V86.5796V86.579ZM274.997 70.2071C274.997 71.7022 274.946 72.8843 275.021 74.0585C275.052 74.5613 274.507 75.4883 275.572 75.4845C276.36 75.4819 277.057 75.0133 277.189 74.105C277.437 72.3933 276.977 70.7929 276.405 69.2036C276.023 70.32 276.186 71.4251 276.297 72.5297C276.33 72.8544 276.2 73.1213 275.869 73.1053C275.741 73.0994 275.566 72.803 275.519 72.6131C275.35 71.9274 275.609 71.1668 274.997 70.2066L274.997 70.2071ZM210.134 99.3831C210.249 99.3692 210.364 99.3548 210.48 99.3409V86.9203C210.365 86.923 210.25 86.9257 210.134 86.9283V99.3826V99.3831ZM260.974 78.4292C259.289 77.5375 255.974 79.9745 256.424 75.9328V87.4649C256.704 85.8141 256.701 84.1714 256.705 82.5287C256.709 81.2819 256.26 79.7055 256.856 78.878C257.505 77.9756 259.186 78.687 260.407 78.5485C260.569 78.5303 260.728 78.4816 260.974 78.4292ZM217.766 99.5169C217.864 99.5147 217.961 99.512 218.058 99.5099V87.2782C217.961 87.2803 217.864 87.283 217.766 87.2851V99.5169ZM242.858 76.0467C243.635 73.1678 241.582 71.2384 240.47 68.5805C239.207 71.0726 237.468 72.9988 237.517 75.7129C238.243 73.5963 239.234 71.622 240.455 69.7953C241.696 71.7402 242.731 73.7204 242.858 76.0472V76.0467ZM187.772 42.7225C186.711 44.5064 187.886 46.6717 186.591 48.3759C187.491 48.3759 188.399 48.3936 189.306 48.3685C189.756 48.3562 190.258 48.3476 190.202 47.6528C190.077 46.1058 189.965 44.5578 189.847 43.0098C189.558 44.3144 189.523 45.6057 189.574 46.8932C189.598 47.5244 189.655 47.9716 188.776 47.9823C187.914 47.993 187.727 47.6495 187.758 46.8718C187.812 45.4907 187.773 44.1052 187.773 42.722L187.772 42.7225ZM219.876 47.9047C219.882 48.0443 219.889 48.1834 219.896 48.323C223.679 48.4562 227.462 48.4926 231.244 47.9047H219.876ZM157.652 67.3299C157.652 65.0415 157.662 62.7537 157.643 60.4659C157.639 60.061 157.837 59.4004 157.178 59.394C156.335 59.386 156.707 60.1338 156.69 60.5579C156.646 61.6861 156.654 62.8179 156.69 63.9466C156.726 65.1004 156.415 66.3162 157.652 67.3299ZM224.363 75.599C224.287 75.5969 224.212 75.5953 224.136 75.5931V87.5809C224.212 87.5777 224.287 87.5745 224.363 87.5713V75.599ZM284.563 77.2684C284.282 77.2727 284.002 77.2775 283.722 77.2818C283.722 80.1575 283.724 83.0331 283.72 85.9088C283.72 86.21 283.75 86.547 284.109 86.5266C284.55 86.5015 284.564 86.1073 284.564 85.7521C284.562 82.924 284.563 80.0965 284.563 77.2684H284.563ZM151.86 67.7412C150.798 66.3579 151.178 64.8035 151.118 63.3148C151.085 62.5178 151.128 61.7182 151.089 60.9217C151.068 60.5109 151.303 59.8497 150.664 59.8037C149.916 59.7497 150.204 60.451 150.206 60.8291C150.212 62.4232 150.287 64.0172 150.311 65.6117C150.327 66.6109 150.753 67.3384 151.86 67.7417V67.7412ZM90.1353 47.8849C90.1417 48.0684 90.1481 48.2524 90.154 48.4359C93.8345 48.3471 97.5187 48.6151 101.197 48.3203C101.196 48.1754 101.195 48.0299 101.195 47.8849H90.1353ZM110.844 61.9754C110.694 65.3817 110.46 68.7907 111.038 72.1729C111.167 68.7672 111.476 65.3561 110.844 61.9754ZM90.5099 75.4936V87.7232C90.8834 83.6483 91.1598 79.5728 90.5099 75.4936ZM210.146 72.3002C210.239 72.3013 210.331 72.3024 210.425 72.3034V62.0765C210.332 62.0755 210.239 62.0744 210.146 62.0733V72.3002ZM214.246 58.0268C213.967 60.8468 213.967 60.8361 211.278 60.843C210.859 60.8441 210.37 60.4242 209.963 61.0089C211.908 61.4277 213.833 61.0265 215.738 61.1923C216.048 61.2191 216.333 61.2121 216.348 60.8275C216.404 59.3282 216.498 57.8213 216.17 56.3027C215.232 56.7938 216.678 59.1838 214.245 58.0268H214.246ZM198.305 76.0836C197.998 79.8226 197.648 83.5627 198.305 87.3311V76.0836ZM278.353 86.4175C279.153 84.6507 278.995 78.4854 278.353 76.9138V86.4175ZM235.983 72.2034C236.088 72.1868 236.193 72.1702 236.299 72.1531V62.6173C236.194 62.6179 236.089 62.6189 235.983 62.6195V72.2029V72.2034ZM244.177 87.008C244.437 86.517 244.526 86.4239 244.533 86.3239C244.81 82.6341 244.272 78.9309 244.72 75.2417C244.811 74.4901 244.147 74.2521 243.461 73.9279C244.598 78.1468 243.704 82.4442 244.177 87.008ZM37.9691 86.3196C38.0947 86.3121 38.2208 86.3046 38.3464 86.2972V77.2743C38.2208 77.2727 38.0947 77.2711 37.9691 77.269V86.3196ZM96.8114 75.4476C96.3874 79.6397 96.2753 83.8425 96.8114 88.0442V75.4476ZM300.394 86.4977C300.611 86.4977 300.828 86.4972 301.045 86.4967C300.998 83.4129 301.254 80.3233 300.394 77.2545V86.4977ZM126.588 69.4379C126.387 72.0515 126.489 74.6014 126.28 77.1513C126.076 79.6466 126.236 82.1709 126.236 84.6828C126.53 79.6466 126.842 74.6153 126.588 69.4379ZM171.513 65.8466C172.646 64.1857 172.334 62.3156 172.394 60.498C172.404 60.1926 172.533 59.7181 172.038 59.6973C171.452 59.6721 171.519 60.1888 171.517 60.5686C171.507 62.3279 171.512 64.0873 171.512 65.8466H171.513ZM63.757 78.5699C63.757 78.4645 63.7576 78.3591 63.7581 78.2537C63.106 78.2537 62.454 78.2559 61.8019 78.2537C60.1483 78.2473 59.2564 77.4418 59.1261 75.837C59.1197 75.7605 59.0193 75.6921 58.8685 75.4995V87.6553C59.1336 85.36 59.2458 83.0529 59.0966 80.7625C58.9871 79.0786 59.3354 78.2313 61.2245 78.5463C62.0467 78.6833 62.9112 78.5693 63.757 78.5693V78.5699ZM16.3382 77.2834V86.471C16.481 86.4683 16.6232 86.4662 16.766 86.4635C16.8051 83.4156 16.9377 80.3677 16.3382 77.2834ZM203.848 87.6729C203.932 87.6713 204.015 87.6697 204.099 87.6687V75.6862C204.015 75.6878 203.931 75.6894 203.848 75.6915V87.6735V87.6729ZM85.2076 61.685C84.4053 63.9958 84.4874 70.6688 85.2076 72.0183V61.685ZM176.703 67.2812C178.012 65.2191 177.486 62.9581 177.519 60.7532C177.52 60.6521 177.31 60.4675 177.19 60.4606C176.839 60.4397 176.703 60.6778 176.703 61.0051C176.703 63.0971 176.703 65.1892 176.703 67.2812ZM164.985 66.6029C165.949 64.352 165.456 62.0022 165.581 59.6999C165.598 59.3833 165.43 59.157 165.065 59.1934C164.786 59.2212 164.663 59.4523 164.679 59.6705C164.841 61.9765 164.431 64.3028 164.985 66.6029H164.985ZM184.113 79.4038C183.974 79.4102 183.835 79.4161 183.696 79.4225V89.3376C183.835 89.3376 183.974 89.3376 184.113 89.3376V79.4043V79.4038ZM21.6282 86.3972C22.3065 85.1059 22.365 78.932 21.7521 76.9427C21.4484 80.3276 21.3979 83.361 21.6282 86.3972ZM194.629 99.2665C194.629 98.5845 194.637 97.9025 194.625 97.2205C194.619 96.8498 194.765 96.3005 194.157 96.3395C193.563 96.378 193.792 96.9359 193.776 97.2895C193.746 97.9704 193.685 98.6626 193.771 99.3328C193.89 100.242 193.314 101.914 194.155 101.893C195.202 101.866 194.396 100.298 194.623 99.4366C194.637 99.3837 194.624 99.3232 194.629 99.2665H194.629ZM104.81 70.963C105.502 68.1467 105.442 65.3464 105.273 62.5457C105.118 62.544 104.964 62.5419 104.81 62.5403V70.963ZM296.849 99.6752C296.849 98.7824 296.862 98.0491 296.843 97.3157C296.835 97.0108 296.671 96.7653 296.332 96.7567C295.959 96.7476 295.89 97.036 295.879 97.3275C295.85 98.0608 295.746 98.806 295.835 99.526C295.937 100.355 295.322 101.888 296.231 101.873C297.527 101.852 296.49 100.306 296.849 99.6757L296.849 99.6752ZM84.1654 99.8346C84.2759 99.8357 84.3865 99.8373 84.4965 99.8383V87.015C84.3859 87.0166 84.2754 87.0187 84.1654 87.0203V99.8341V99.8346ZM291.385 99.4174C291.395 99.4174 291.406 99.4163 291.416 99.4158C291.384 98.6861 291.371 97.9549 291.307 97.228C291.282 96.937 291.101 96.7166 290.74 96.7674C290.433 96.8102 290.419 97.0579 290.412 97.2676C290.365 98.6171 290.337 99.9672 290.3 101.317C290.289 101.705 290.411 101.994 290.855 101.974C291.287 101.955 291.393 101.656 291.387 101.275C291.378 100.656 291.385 100.037 291.385 99.4174ZM30.9404 99.1622C30.9404 99.8678 30.9366 100.489 30.942 101.111C30.9447 101.453 30.9468 101.823 31.4202 101.842C31.8704 101.859 31.9751 101.551 31.974 101.172C31.9719 100.55 32.0577 99.9143 31.9531 99.3098C31.7953 98.3952 32.5262 96.8043 31.3858 96.7364C30.5341 96.6856 31.2168 98.3738 30.9409 99.1617L30.9404 99.1622ZM47.8234 99.0568H47.8293C47.8293 99.6784 47.8078 100.302 47.8379 100.922C47.8551 101.271 47.6645 101.842 48.279 101.813C48.805 101.788 48.7427 101.262 48.7507 100.877C48.7711 99.9159 48.7931 98.9547 48.7824 97.9945C48.7765 97.4714 48.9794 96.669 48.0751 96.8027C47.2003 96.9322 47.9452 97.6217 47.8395 98.0432C47.7595 98.3625 47.8234 98.7172 47.8234 99.0563V99.0568ZM43.6964 86.2811V77.1914C43.5547 77.1936 43.4131 77.1962 43.2719 77.1984C43.5209 80.2126 42.8034 83.2262 43.6964 86.2811ZM302.157 99.4115H302.149C302.149 98.7851 302.165 98.1577 302.142 97.5318C302.13 97.2162 302.198 96.7894 301.711 96.7578C301.232 96.7273 301.196 97.1076 301.19 97.458C301.171 98.7113 301.168 99.9646 301.144 101.217C301.137 101.586 301.173 101.943 301.614 101.976C302.065 102.011 302.156 101.662 302.156 101.291C302.157 100.664 302.156 100.038 302.156 99.4109L302.157 99.4115ZM284.771 99.2895C284.747 99.2895 284.723 99.2895 284.699 99.2895C284.699 99.964 284.71 100.639 284.695 101.314C284.685 101.732 284.875 101.953 285.282 101.941C285.653 101.929 285.709 101.632 285.709 101.342C285.709 99.9929 285.705 98.6439 285.69 97.2949C285.686 97.0092 285.609 96.7091 285.248 96.7048C284.904 96.7011 284.776 96.9547 284.773 97.2665C284.768 97.941 284.771 98.615 284.771 99.2895H284.771ZM102.799 101.68C102.636 101.621 102.474 101.562 102.311 101.504C101.368 104.077 100.425 106.65 99.4818 109.223C99.6606 109.288 99.8393 109.353 100.019 109.417C101.205 106.932 101.91 104.273 102.799 101.68ZM132.266 43.0413C132.135 43.0349 132.004 43.0285 131.873 43.0221C131.873 44.2925 132.114 45.6228 131.814 46.8188C131.398 48.4786 132.232 48.4712 133.325 48.2877C133.836 48.2016 134.878 48.4476 134.782 47.9009C134.52 46.4144 134.893 44.8696 134.304 43.4238C134.149 44.4449 134.148 45.457 134.15 46.4695C134.152 47.1703 134.447 47.9764 133.177 47.9379C131.891 47.8988 132.295 47.0301 132.275 46.3802C132.242 45.2681 132.266 44.1545 132.266 43.0413H132.266ZM279.05 99.1906C279.402 100.087 278.622 101.754 279.542 101.721C280.793 101.677 280.014 100.084 280.092 99.197C280.162 98.3978 280.598 96.8263 279.684 96.8616C278.345 96.9129 279.552 98.4481 279.049 99.1906H279.05ZM293.292 80.978C293.76 81.0214 293.883 80.7395 293.885 80.349C293.89 79.3118 293.412 78.4576 292.404 78.3506C291.316 78.235 290.823 79.0807 290.776 80.1115C290.759 80.4731 290.65 80.9957 291.289 80.9588C291.832 80.9277 291.642 80.5127 291.622 80.1939C291.595 79.7723 291.677 79.2984 292.149 79.2781C292.714 79.254 292.891 79.7354 292.84 80.2356C292.801 80.6245 292.835 80.9154 293.291 80.978H293.292ZM41.941 99.051C41.941 99.7934 41.9345 100.413 41.9437 101.033C41.9496 101.424 41.9077 101.88 42.5158 101.834C42.9891 101.799 42.9687 101.422 42.9741 101.088C42.9837 100.468 43.0921 99.8228 42.958 99.2339C42.7664 98.3968 43.6481 96.9065 42.3912 96.8557C41.5052 96.8199 42.2168 98.377 41.941 99.051ZM36.3908 99.397C36.38 99.397 36.3693 99.397 36.3586 99.397C36.3586 100.023 36.3575 100.648 36.3586 101.274C36.3597 101.598 36.4981 101.827 36.8443 101.836C37.1582 101.845 37.4067 101.713 37.4029 101.353C37.3895 99.9886 37.374 98.6241 37.3369 97.2601C37.3289 96.968 37.1872 96.6974 36.8239 96.7257C36.4493 96.7551 36.4047 97.0713 36.3967 97.3483C36.3768 98.0303 36.3902 98.7134 36.3902 99.3965L36.3908 99.397ZM26.4984 99.2227H26.5081C26.5081 98.6006 26.514 97.9779 26.5059 97.3558C26.5011 96.9814 26.3685 96.6818 25.9295 96.6931C25.5587 96.7027 25.4905 97.0012 25.4862 97.2852C25.4669 98.5861 25.4594 99.8876 25.4578 101.188C25.4578 101.553 25.549 101.882 26.0208 101.838C26.4828 101.795 26.493 101.433 26.4968 101.09C26.5032 100.468 26.4984 99.8453 26.4984 99.2232V99.2227ZM237.968 57.1062C237.363 58.6521 237.435 59.9332 237.963 61.0308C238.106 61.3277 239.835 61.3726 240.127 60.9928C240.866 60.0289 240.522 58.7729 240.273 57.3929C239.707 58.2573 239.878 58.9436 239.929 59.5994C239.984 60.3156 239.621 60.4472 239.014 60.4584C238.412 60.4697 238.199 60.1862 238.211 59.6475C238.227 58.9233 238.445 58.1931 237.968 57.1067V57.1062ZM244.06 99.488C244.197 99.5072 244.334 99.5259 244.471 99.5452C244.619 95.6019 244.623 91.6601 244.06 87.7237V99.488ZM285.247 79.8879C285.293 80.296 285.067 80.7817 285.599 80.9358C285.931 81.0315 286.101 80.7518 286.148 80.4479C286.22 79.9735 286.005 79.2139 286.675 79.2016C287.486 79.1872 287.241 79.981 287.31 80.5111C287.35 80.8202 287.632 80.9711 287.941 80.9593C288.414 80.9417 288.448 80.587 288.429 80.235C288.377 79.2198 287.91 78.4019 286.873 78.3056C285.85 78.211 285.435 79.0251 285.247 79.8874V79.8879ZM307.588 99.3837C307.151 98.5679 308.249 97.113 306.893 96.9841C306.272 96.9247 306.594 98.5294 306.594 99.3633C306.593 100.199 306.211 101.794 306.912 101.745C308.234 101.652 307.1 100.162 307.588 99.3842V99.3837ZM53.0403 87.2926C53.1375 87.2926 53.2351 87.2921 53.3323 87.2915C53.3323 84.801 53.3586 82.3105 53.3183 79.8205C53.3033 78.8983 53.5491 78.4656 54.5714 78.5437C55.6936 78.6298 56.8281 78.5635 57.9573 78.5635C56.614 78.288 55.2739 78.2896 53.9333 78.2869C53.3113 78.2858 53.0232 78.5405 53.0296 79.208C53.0548 81.9024 53.0398 84.5972 53.0398 87.2921L53.0403 87.2926ZM220.827 109.473C221.032 109.4 221.237 109.327 221.442 109.254C220.538 106.708 219.634 104.163 218.73 101.616C218.569 101.674 218.408 101.73 218.247 101.788C219.107 104.349 219.967 106.911 220.828 109.473H220.827ZM296.254 79.9425C296.334 80.3591 296.02 80.9422 296.727 81.0304C297.037 81.069 297.279 80.8678 297.181 80.5057C297.036 79.9703 297.006 79.3182 297.621 79.269C298.449 79.2027 298.273 79.9419 298.283 80.5062C298.289 80.9037 298.626 81.0642 299.015 80.9941C299.376 80.9288 299.391 80.6314 299.384 80.3452C299.357 79.3364 298.938 78.4773 297.905 78.3682C296.919 78.2644 296.441 79.0438 296.254 79.9419V79.9425ZM216.269 61.9225C215.525 64.3916 215.555 69.2908 216.269 71.056V61.9225ZM195.194 75.0138C195.192 78.4233 195.121 81.7451 195.596 85.0433C195.686 81.7189 195.879 78.3912 195.194 75.0138ZM306.434 77.5402C306.181 77.5172 305.928 77.4942 305.675 77.4712C305.675 80.2923 305.679 83.1134 305.669 85.935C305.668 86.2651 305.76 86.548 306.1 86.5154C306.445 86.4822 306.44 86.1495 306.439 85.85C306.431 83.0802 306.434 80.3099 306.434 77.5402ZM145.322 67.4946C145.714 65.1806 145.769 62.8575 145.299 60.5392C144.793 62.8522 144.684 65.1662 145.322 67.4946ZM304.447 81.0085C304.912 80.9748 304.99 80.6747 304.943 80.2912C304.83 79.3792 304.475 78.4939 303.49 78.4469C302.444 78.3971 301.883 79.1834 301.783 80.2131C301.753 80.5319 301.699 80.9668 302.183 81.0053C302.736 81.0492 302.559 80.6191 302.589 80.2982C302.632 79.8371 302.781 79.2877 303.333 79.346C303.836 79.3995 304.03 79.8922 303.916 80.4051C303.813 80.8716 304.011 81.0342 304.447 81.0085ZM28.5592 80.0403C28.6901 80.3126 28.3349 80.8801 28.9504 80.9112C29.493 80.939 29.2139 80.4249 29.2644 80.1414C29.3465 79.6771 29.5316 79.1123 30.0211 79.2257C30.3951 79.3123 30.956 79.698 30.8116 80.3206C30.7053 80.778 30.8529 80.9866 31.2908 80.9277C31.6445 80.8801 31.6858 80.5464 31.6493 80.2693C31.5227 79.3193 31.1599 78.4169 30.1161 78.2971C28.995 78.1687 28.8447 79.1813 28.5592 80.0403ZM37.1249 80.1591C36.7766 79.3653 36.6226 78.181 35.3861 78.2767C34.1781 78.3704 34.1303 79.5563 33.9017 80.4667C33.8464 80.687 33.9785 80.901 34.2602 80.9347C34.6514 80.9812 34.7754 80.7357 34.733 80.4271C34.6429 79.7745 34.8801 79.1823 35.5037 79.185C35.9437 79.1872 36.2904 79.7729 36.2314 80.3447C36.1868 80.7753 36.3264 81.0187 36.7783 80.9176C37.1249 80.84 37.1142 80.518 37.1244 80.1591H37.1249ZM282.882 80.1233C282.756 79.2749 282.368 78.3383 281.299 78.3634C280.16 78.3901 279.696 79.3006 279.736 80.3982C279.743 80.5865 279.888 80.8951 280.025 80.9288C280.374 81.0155 280.512 80.7363 280.512 80.4244C280.512 79.9072 280.469 79.2556 281.133 79.2353C281.934 79.2107 281.857 79.8991 281.844 80.4795C281.837 80.809 282.078 80.97 282.41 80.9598C282.903 80.9443 282.908 80.6004 282.882 80.1227V80.1233ZM23.1469 80.0104C23.2113 80.3474 22.8888 80.9042 23.5221 80.9229C24.0711 80.9395 23.7958 80.4431 23.8231 80.1553C23.8693 79.6723 24.0716 79.1369 24.5487 79.1909C24.9786 79.2396 25.5168 79.6258 25.3789 80.2393C25.2893 80.6384 25.226 80.9176 25.7363 80.8999C26.1952 80.8839 26.2623 80.4907 26.2193 80.1623C26.0954 79.2166 25.7374 78.3142 24.6507 78.2741C23.5875 78.235 23.3283 79.1449 23.1464 80.0098L23.1469 80.0104ZM127.274 101.868C127.462 101.864 127.65 101.86 127.838 101.855C127.766 99.7324 127.998 97.6046 127.274 95.4954V101.868ZM20.8033 80.0157C20.5457 79.2514 20.2527 78.3318 19.2652 78.2923C18.3362 78.2548 18.0062 79.1315 17.7583 79.8906C17.6429 80.2447 17.5162 80.7892 18.0352 80.8823C18.6223 80.9877 18.5359 80.5843 18.4656 80.1195C18.4001 79.6841 18.6937 79.1395 19.1944 79.1444C19.6677 79.1486 20.0241 79.6333 19.9344 80.1056C19.8416 80.594 19.833 80.9256 20.3976 80.8796C20.8473 80.8427 20.7743 80.4025 20.8033 80.0157ZM122.954 75.3283C122.867 75.3513 122.781 75.3749 122.695 75.3979V87.8361C122.781 87.835 122.867 87.8345 122.954 87.8334V75.3278V75.3283ZM27.3726 91.9896C27.3673 91.6307 27.6453 91.1777 27.092 90.992C26.8392 90.9075 26.6578 91.1108 26.6122 91.3381C26.3685 92.5481 26.1345 93.7607 25.9236 94.9771C25.8689 95.2922 26.0707 95.5505 26.3878 95.5543C26.7072 95.5585 26.8446 95.2863 26.8918 94.9862C27.0506 93.9881 27.2116 92.9904 27.3726 91.9902V91.9896ZM64.9007 75.6386C64.8309 75.6423 64.7611 75.6455 64.6908 75.6493V87.6826C64.7606 87.6826 64.8304 87.6826 64.9007 87.6826V75.6386ZM42.0252 80.9433C42.4594 80.8871 42.454 80.5335 42.4315 80.1965C42.3692 79.2776 41.9828 78.4249 41.0791 78.2425C39.9859 78.0221 39.7342 79.0427 39.4407 79.8285C39.3124 80.1719 39.0414 80.6913 39.533 80.8529C40.1458 81.054 40.0224 80.4811 40.0793 80.1051C40.1496 79.6429 40.3954 79.0877 40.8473 79.1069C41.3753 79.1299 41.7097 79.6659 41.5836 80.2201C41.4848 80.6555 41.5417 80.8625 42.0252 80.9433ZM70.5582 87.659C70.6264 87.6339 70.694 87.6087 70.7621 87.5836V75.5888C70.694 75.5888 70.6264 75.5888 70.5582 75.5888V87.6596V87.659ZM117.051 75.6188C116.972 75.6102 116.894 75.6017 116.816 75.5926V87.8901C116.894 87.8901 116.972 87.8906 117.051 87.8912V75.6188ZM230.11 87.7125C230.568 83.713 230.446 79.7173 230.11 75.7231V87.7125ZM279.027 90.9648C278.841 90.9931 278.654 91.022 278.468 91.0503C278.602 92.3924 278.73 93.735 278.878 95.0755C278.909 95.3574 279.019 95.6436 279.396 95.5997C279.663 95.5682 279.806 95.3424 279.784 95.1178C279.643 93.7088 279.55 92.2838 279.027 90.9648ZM21.106 99.2082C21.1296 99.2082 21.1527 99.2082 21.1763 99.2082C21.1763 98.6401 21.1865 98.0721 21.1725 97.5045C21.1645 97.174 21.1935 96.7653 20.704 96.7642C20.2237 96.7637 20.228 97.1729 20.2221 97.4992C20.1995 98.7487 20.1974 99.9983 20.191 101.248C20.1894 101.563 20.3106 101.822 20.6541 101.832C21.0223 101.842 21.1011 101.552 21.1038 101.252C21.1103 100.571 21.106 99.8892 21.106 99.2077V99.2082ZM21.9909 91.7425C21.9759 91.4793 22.1299 91.0819 21.6539 90.9696C21.3829 90.9054 21.2219 91.1183 21.1795 91.3317C20.9375 92.5438 20.7099 93.7586 20.5044 94.9771C20.4496 95.3023 20.6804 95.5361 20.9863 95.5436C21.3325 95.5516 21.4038 95.2413 21.4516 94.9541C21.626 93.9003 21.8053 92.8476 21.9909 91.7425ZM250.372 86.7229C250.64 83.1043 250.876 79.4108 250.372 75.7252V86.7229ZM294.945 92.0474C295.058 93.0712 295.157 94.0292 295.275 94.9857C295.316 95.3264 295.403 95.7067 295.871 95.6077C296.306 95.5157 296.3 95.1269 296.246 94.7872C296.099 93.8356 295.93 92.8872 295.765 91.9383C295.716 91.6559 295.638 91.3221 295.296 91.3376C294.757 91.3617 294.978 91.8153 294.946 92.0479L294.945 92.0474ZM150.743 58.5296C151.027 56.5081 151.261 54.4883 150.621 52.507C150.259 54.5274 150.261 56.537 150.743 58.5296ZM171.71 58.6761C171.871 58.674 172.032 58.6713 172.193 58.6692V53.1238C171.408 54.9708 171.557 56.8237 171.71 58.6767V58.6761ZM236.054 55.1318C235.44 56.3525 235.451 57.6288 235.495 58.9083C235.511 59.3613 235.659 59.6973 236.199 59.6229C236.882 59.5288 236.723 59.1051 236.629 58.6285C236.402 57.4699 236.241 56.2985 236.054 55.1318ZM137.548 101.966C137.715 101.961 137.882 101.957 138.049 101.953C138.116 99.9796 138.22 98.0052 138.022 96.0378C137.864 96.0426 137.706 96.0474 137.548 96.0523V101.966ZM128.122 87.6703C128.122 87.3846 128.153 87.2086 128.116 87.0482C128.004 86.5566 128.492 85.6638 127.711 85.651C126.777 85.636 127.316 86.6079 127.156 87.1295C127.124 87.2327 127.122 87.3589 127.149 87.4643C127.31 88.119 126.727 89.3156 127.605 89.3376C128.61 89.3627 127.841 88.1517 128.122 87.6697L128.122 87.6703ZM274.158 99.3275C273.717 98.5385 274.999 97.0739 273.673 96.9391C272.819 96.8525 273.217 98.4508 273.245 99.2606C273.274 100.116 272.613 101.608 273.722 101.693C274.511 101.754 273.809 100.159 274.158 99.327L274.158 99.3275ZM183.751 96.171V102.179C184.443 100.675 184.508 97.972 183.751 96.171ZM38.128 90.9327C37.5103 91.5323 36.6156 94.7567 36.9151 95.2601C36.9913 95.3884 37.1657 95.5318 37.3004 95.5377C37.6348 95.5521 37.8248 95.3023 37.8307 95.0028C37.858 93.6564 38.4865 92.3475 38.1274 90.9327H38.128ZM16.349 90.93C15.5118 92.1656 15.2499 93.5687 14.967 94.9616C14.9064 95.2601 15.0127 95.5206 15.3583 95.5955C15.6191 95.6522 15.8429 95.5307 15.8644 95.2911C15.9974 93.8399 16.6184 92.4379 16.3484 90.93H16.349ZM32.5101 90.5721C31.7996 92.1999 31.6 93.5548 31.3751 94.9001C31.3241 95.206 31.476 95.4574 31.8071 95.527C32.0674 95.5815 32.3062 95.4227 32.3169 95.206C32.3862 93.8019 33.101 92.4234 32.5096 90.5727L32.5101 90.5721ZM134.529 55.2474C134.529 55.2008 134.529 55.1543 134.529 55.1078C134.028 55.1078 133.522 55.0618 133.027 55.1169C131.828 55.2511 131.478 54.943 131.74 53.6266C131.947 52.5825 132.667 51.5282 132.019 50.1369C131.414 51.6726 131.067 53.0403 131.213 54.5215C131.257 54.9665 131.356 55.272 131.905 55.2543C132.779 55.2265 133.655 55.2468 134.529 55.2468V55.2474ZM186.626 55.3067C187.635 55.3067 188.643 55.2982 189.651 55.311C190.025 55.3158 190.376 55.2843 190.365 54.8184C190.334 53.4148 190.556 51.9769 189.98 50.5445C189.487 50.9531 189.587 51.3741 189.59 51.7528C189.597 52.8066 190.496 54.0492 189.74 54.8355C189.023 55.5822 187.676 54.7916 186.626 55.3067H186.626ZM145.339 59.356C145.532 57.4924 145.928 55.6036 145.112 53.8069C144.969 55.6689 144.778 57.5304 145.339 59.356ZM287.823 63.7594C287.814 63.6427 287.805 63.5267 287.796 63.4101H282.305C282.311 63.5267 282.316 63.6427 282.322 63.7594H287.824H287.823ZM42.2839 94.3224C42.3816 94.7813 42.0365 95.4564 42.6982 95.4831C43.2762 95.5061 43.2612 94.7947 43.2311 94.4096C43.1485 93.3547 44.042 92.302 43.2354 91.2579C42.3548 92.1309 42.5726 93.3274 42.2839 94.3224ZM300.67 91.3157C300.248 92.616 300.713 93.8602 300.768 95.1237C300.782 95.4259 300.929 95.6698 301.302 95.5757C301.627 95.4933 301.778 95.2237 301.712 94.9359C301.434 93.7217 301.436 92.4309 300.67 91.3157ZM283.991 91.8998C284.099 92.968 284.197 93.9297 284.294 94.8926C284.323 95.1884 284.401 95.5302 284.723 95.5371C285.125 95.5462 285.309 95.2167 285.254 94.8332C285.108 93.8201 284.939 92.8107 284.771 91.8008C284.723 91.5088 284.613 91.2162 284.237 91.3076C283.85 91.4018 284.009 91.7511 283.991 91.9003V91.8998ZM14.6552 99.42C15.0481 100.167 14.2753 101.742 15.1055 101.699C16.2432 101.64 15.5182 100.142 15.5907 99.3018C15.6599 98.4995 16.1338 96.922 15.2864 96.9627C14.1411 97.0172 15.0873 98.5481 14.6552 99.42ZM290.76 94.8354C290.565 93.7832 290.378 92.7294 290.169 91.6799C290.124 91.4569 289.981 91.2557 289.699 91.306C289.403 91.3584 289.406 91.6147 289.427 91.8227C289.539 92.8867 289.664 93.9495 289.796 95.0113C289.832 95.3007 289.959 95.6056 290.289 95.5842C290.721 95.5559 290.796 95.2082 290.76 94.8354ZM194.336 90.3223C194.218 90.3288 194.1 90.3346 193.983 90.3411V95.5741C194.1 95.5703 194.218 95.566 194.336 95.5623V90.3223ZM210.418 55.3624C209.796 56.6189 209.801 57.8155 209.828 59.0094C209.836 59.3656 209.646 59.9647 210.189 59.9866C210.834 60.0123 210.75 59.3335 210.732 58.9425C210.679 57.747 210.53 56.5552 210.418 55.3624H210.418ZM34.3192 63.6465H39.4315C37.6884 63.1865 35.9716 63.0025 34.3192 63.6465ZM129.909 71.3213H136.143C134.049 70.8709 131.959 70.795 129.909 71.3213ZM306.017 90.9091C305.781 92.6503 306.114 93.8575 306.232 95.0766C306.26 95.3622 306.331 95.6842 306.718 95.5457C306.88 95.4879 307.102 95.1969 307.072 95.0643C306.788 93.8474 306.978 92.5138 306.018 90.9091H306.017ZM137.9 90.3608C137.788 90.3592 137.675 90.3582 137.564 90.3566V95.1841C137.676 95.1825 137.788 95.1809 137.9 95.1788V90.3603V90.3608ZM183.781 95.3863C183.96 95.3842 184.138 95.382 184.317 95.3793C184.348 93.65 184.374 91.9206 183.781 90.1993V95.3863ZM277.122 86.0746C277.188 86.0655 277.253 86.0564 277.319 86.0473V77.1315C277.253 77.1315 277.188 77.1315 277.122 77.1315V86.0746ZM105.194 55.6833C104.708 56.7601 104.645 57.8588 104.695 58.9746C104.723 59.6133 105.135 59.4673 105.523 59.3892C105.907 59.3116 106.191 59.1688 105.876 58.7393C105.191 57.8037 105.413 56.7066 105.194 55.6839V55.6833ZM111.05 54.9585C110.478 56.7649 110.673 58.2006 110.593 59.6037C110.58 59.8428 110.765 60.022 111.018 60.038C111.297 60.0557 111.437 59.8444 111.426 59.6138C111.362 58.2113 111.716 56.7719 111.05 54.9585ZM45.0123 77.7681C44.9506 77.7611 44.8894 77.7547 44.8277 77.7477V86.0613C44.8894 86.0602 44.9506 86.0586 45.0123 86.0575V77.7681ZM16.8647 88.7048C16.7118 88.1822 17.1652 87.2461 16.4477 87.2739C15.6551 87.3049 16.0812 88.2768 16.0184 88.823C15.969 89.2552 15.6701 90.087 16.2642 90.1052C17.2221 90.1346 16.5991 89.1546 16.8647 88.7048ZM279.161 88.9776C278.952 88.4576 279.515 87.4996 278.73 87.4012C277.93 87.3006 278.2 88.2373 278.217 88.7246C278.235 89.2718 277.871 90.2047 278.753 90.2437C279.464 90.2753 278.989 89.429 279.161 88.977V88.9776ZM32.9448 97.8731C32.5413 99.1676 32.4211 100.473 32.9427 101.779C33.3608 100.491 33.4407 99.1948 32.9448 97.8731ZM290.117 88.9487C289.854 88.4951 290.522 87.5355 289.551 87.52C288.884 87.5093 289.153 88.3298 289.165 88.777C289.179 89.3483 288.907 90.3106 289.649 90.3528C290.414 90.3961 289.958 89.4665 290.117 88.9482V88.9487ZM127.236 94.6075C127.903 93.2001 127.774 91.7693 127.741 90.3411C127.573 90.3362 127.404 90.3309 127.236 90.3261V94.6075ZM127.175 83.6697C127.507 84.0136 126.743 84.8839 127.626 84.985C128.399 85.0738 128.175 84.2661 128.129 83.8494C128.064 83.253 128.544 82.242 127.661 82.1612C126.977 82.0987 127.339 83.0663 127.174 83.6692L127.175 83.6697ZM301.144 88.9963C300.867 88.5315 301.562 87.5852 300.623 87.529C299.975 87.4905 300.172 88.3277 300.212 88.77C300.267 89.3622 299.859 90.3732 300.731 90.4218C301.43 90.4609 300.957 89.5077 301.143 88.9963H301.144ZM289.151 97.4527V101.731C289.687 100.306 289.761 98.8958 289.151 97.4527ZM249.499 78.5003C248.121 78.0548 246.782 77.9125 245.477 78.5003H249.499ZM32.1463 88.7438C32.2799 89.2236 31.8066 90.0645 32.5982 90.1287C33.3007 90.1859 33.0828 89.3659 33.0608 88.9348C33.0334 88.4036 33.4815 87.4905 32.5702 87.452C31.9928 87.4274 32.2536 88.2726 32.1463 88.7438ZM60.6352 85.207C60.6889 85.2113 60.742 85.2156 60.7957 85.2198C60.9213 83.652 61.0469 82.0837 61.173 80.5159C60.9937 80.502 60.815 80.4881 60.6358 80.4747V85.2075L60.6352 85.207ZM37.5559 88.8342C37.8403 89.1974 37.1797 90.0945 38.0518 90.1255C38.6925 90.1485 38.5036 89.3322 38.4983 88.8685C38.4924 88.3442 38.7704 87.4515 38.1044 87.4087C37.3385 87.3589 37.7319 88.2645 37.5559 88.8342ZM284.648 88.9193C284.449 88.4475 285.004 87.5708 284.204 87.5237C283.34 87.4729 283.715 88.3614 283.705 88.8385C283.695 89.3515 283.46 90.2432 284.158 90.2651C285.006 90.2913 284.456 89.3862 284.648 88.9198V88.9193ZM193.875 85.4868C193.758 86.8208 193.415 88.1923 194.109 89.474C194.408 88.1249 194.545 86.7898 193.875 85.4868ZM137.838 85.5483C137.279 87.4012 137.362 88.5373 138.034 89.3948C138.136 88.0575 138.192 86.7957 137.838 85.5483ZM27.4505 101.73C27.8964 100.44 28.0038 99.1606 27.4429 97.4013C27.0136 99.167 27.0678 100.45 27.4505 101.73ZM218.667 48.6841C217.445 48.3984 216.218 48.2781 215.008 48.7172C216.225 49.1457 217.442 49.1291 218.667 48.6841ZM101.334 78.3468C101.327 78.2709 101.319 78.1944 101.311 78.1184H97.9663C97.9684 78.1944 97.9711 78.2709 97.9733 78.3468H101.334ZM66.8568 85.4204C66.925 83.9521 66.9963 82.5517 67.0495 81.1508C67.0613 80.8347 67.1096 80.3859 66.574 80.5378C66.2611 80.6266 65.9482 80.9047 66.201 81.2963C67.0157 82.5603 66.3974 84.0388 66.8568 85.421V85.4204ZM272.086 85.5788V80.181C271.778 80.5704 271.646 80.6608 271.652 80.74C271.782 82.3009 271.928 83.8606 272.086 85.5788ZM55.2149 85.3413C55.3115 83.8596 55.3952 82.5678 55.4811 81.2754C55.5031 80.9449 55.5739 80.4966 55.0872 80.5672C54.682 80.6261 54.3074 81.1813 54.5451 81.4493C55.5535 82.5849 54.6949 83.951 55.2144 85.3413H55.2149ZM49.4098 85.3456C49.6346 83.8617 49.31 82.5533 49.8085 81.3081C49.9191 81.0315 50.0382 80.4174 49.4549 80.3821C48.9745 80.3527 48.7153 80.947 48.8651 81.222C49.5461 82.4715 49.0202 83.8574 49.4103 85.3456H49.4098ZM274.465 95.1156C275.54 93.9469 276.246 92.5288 276.438 91.153C274.921 93.1081 274.538 93.8773 274.465 95.1156ZM264.192 85.7301C264.536 84.0794 264.057 82.5426 264.55 81.0802C264.653 80.7737 264.478 80.5148 264.109 80.5581C263.8 80.5945 263.467 80.9037 263.596 81.1102C264.473 82.5154 263.716 84.1078 264.192 85.7301ZM300.282 101.69V97.7062C299.772 99.0429 299.75 100.371 300.282 101.69ZM294.687 97.5463C294.313 98.9825 294.413 100.404 294.756 101.817C295.118 100.381 295.265 98.952 294.687 97.5463ZM136.212 101.786C136.223 101.708 136.233 101.631 136.244 101.554H129.275C129.276 101.631 129.277 101.709 129.278 101.786H136.212ZM38.3716 97.9132C37.8993 99.1964 37.879 100.466 38.3185 101.725C38.7811 100.454 38.7451 99.182 38.3716 97.9132ZM226.07 85.2872C226.092 85.2889 226.114 85.2899 226.136 85.2915C226.268 83.6964 226.401 82.1019 226.533 80.5068C226.378 80.495 226.224 80.4832 226.069 80.4715V85.2872H226.07ZM222.309 85.8018C222.665 84.1244 222.123 82.6132 222.786 81.2203C222.923 80.9336 222.743 80.6212 222.401 80.6234C221.948 80.6261 221.912 80.9689 221.945 81.346C222.068 82.7448 222.175 84.1458 222.308 85.8018H222.309ZM69.2197 80.4672C68.9842 80.4811 68.7491 80.4955 68.5135 80.5095V85.3734C68.7421 83.736 68.6938 82.0917 69.2197 80.4672ZM295.658 89.0134C295.392 88.5523 296.061 87.5996 295.11 87.5815C294.491 87.5697 294.709 88.409 294.749 88.8535C294.8 89.4082 294.449 90.379 295.208 90.4154C295.969 90.4518 295.467 89.5152 295.658 89.0134ZM49.9244 96.7048C49.8364 96.7065 49.749 96.7075 49.6609 96.7091V101.411C49.749 101.41 49.8364 101.408 49.9244 101.406V96.7048ZM214.189 55.8973C213.753 56.2 213.812 56.8537 213.194 56.805C212.246 56.7307 213.167 55.763 212.589 55.4827C212.144 56.0626 211.978 56.7927 212.388 57.2126C212.656 57.4876 213.468 57.3902 213.972 57.2415C214.542 57.0735 214.228 56.5162 214.19 55.8967L214.189 55.8973ZM266.2 85.9356C266.56 84.1115 266.104 82.617 266.679 81.2113C266.784 80.954 266.547 80.6453 266.217 80.6325C265.828 80.6175 265.772 80.9213 265.847 81.2145C266.212 82.6341 266.011 84.104 266.2 85.9356ZM62.5705 85.506C63.2359 84.2297 62.4841 82.8063 63.3422 81.6146C63.5627 81.3081 63.7066 81.0492 63.3663 80.7785C63.252 80.6876 63.0427 80.6448 62.8973 80.6758C62.418 80.7774 62.5731 81.1733 62.5721 81.483C62.5678 82.824 62.5705 84.165 62.5705 85.5055V85.506ZM134.748 54.6039C135.213 51.7624 135.192 51.5683 134.303 50.6718C134.409 51.9796 134.015 53.2506 134.748 54.6039ZM200.324 80.6694C200.114 80.6394 199.906 80.61 199.696 80.5801C200.048 82.1698 199.898 83.7521 200.059 85.3386C200.147 83.7826 200.236 82.226 200.324 80.6699V80.6694ZM192.222 101.748C192.239 101.678 192.255 101.608 192.272 101.538H185.51C185.509 101.608 185.507 101.678 185.506 101.748H192.222ZM94.6255 85.9805C95.0511 84.1869 94.4629 82.6437 95.1311 81.2241C95.2706 80.9272 95.0581 80.6678 94.713 80.6737C94.3025 80.6801 94.3427 81.0219 94.3567 81.2899C94.4324 82.7373 94.5209 84.1837 94.625 85.981L94.6255 85.9805ZM197.651 90.2886C197.651 91.4055 197.639 92.4823 197.658 93.558C197.663 93.8634 197.606 94.3251 198.134 94.232C198.467 94.1731 198.502 93.8196 198.443 93.5382C198.216 92.4529 198.205 91.3076 197.65 90.2881L197.651 90.2886ZM92.144 77.3695H95.7316C94.2434 76.8732 93.2055 77.0288 92.144 77.3695ZM119.205 85.1209C119.205 83.8243 119.209 82.5282 119.202 81.2316C119.201 80.9187 119.302 80.4704 118.758 80.5619C118.437 80.6159 118.301 81.0192 118.429 81.2369C119.142 82.4426 118.672 83.7949 119.205 85.1204V85.1209ZM228.133 85.8152C228.57 84.0741 227.874 82.5576 228.706 81.1845C228.862 80.9272 228.632 80.4544 228.228 80.4404C227.863 80.4276 227.87 80.8593 227.879 81.0941C227.934 82.5656 228.032 84.0356 228.133 85.8157V85.8152ZM258.519 80.6689C258.305 80.6368 258.092 80.6047 257.879 80.5726C258.446 82.1607 258.125 83.7478 258.519 85.3391V80.6689ZM51.3933 84.9219C51.6557 83.7617 51.1894 82.6041 51.7818 81.5386C51.9573 81.223 51.8495 80.7502 51.4797 80.7079C50.8604 80.6373 50.9913 81.2214 51.0182 81.5536C51.1083 82.6753 51.2624 83.7922 51.3933 84.9219ZM88.7877 85.0749C88.9852 83.8013 88.719 82.5073 89.0528 81.2487C89.1263 80.9716 89.1505 80.6234 88.807 80.5699C88.2891 80.4886 88.2945 80.9502 88.3643 81.2449C88.6616 82.5052 88.7356 83.7868 88.7877 85.0749ZM98.7944 85.3456C98.8684 83.7071 98.9393 82.4068 98.9779 81.1053C98.987 80.801 99.045 80.3415 98.5153 80.4196C98.1847 80.4683 98.057 80.8759 98.1922 81.085C98.9983 82.334 98.3903 83.7542 98.7944 85.3456ZM45.4443 91.045C46.3186 93.9891 46.6127 94.5187 47.6812 95.2424C47.1434 93.8902 46.5504 92.6176 45.4443 91.045ZM202.044 85.2915C202.47 83.8243 201.779 82.4094 202.543 81.1348C202.682 80.9042 202.499 80.6828 202.239 80.6587C201.774 80.6159 201.691 80.8796 201.73 81.2995C201.852 82.5967 201.937 83.8976 202.044 85.2915ZM192.003 71.0571H185.733C187.199 71.5267 190.577 71.5423 192.003 71.0571ZM113.356 80.5785C113.168 80.5528 112.981 80.5266 112.794 80.5009V85.2514C113.105 83.7007 112.934 82.1195 113.356 80.5785ZM306.129 90.44C306.604 89.3782 306.736 88.3303 306.095 86.9925C305.596 88.3458 305.712 89.3959 306.129 90.44ZM260.383 85.6537C260.74 84.0559 260.176 82.617 260.775 81.261C260.906 80.9647 260.679 80.6796 260.373 80.6523C259.988 80.618 259.913 80.9395 260.012 81.2252C260.487 82.5956 260.111 84.0302 260.383 85.6537ZM252.684 85.2466C252.684 83.9002 252.688 82.5539 252.68 81.2075C252.679 80.9459 252.738 80.5795 252.312 80.6138C251.948 80.6432 251.838 80.97 251.997 81.2305C252.789 82.5346 252.147 83.9906 252.684 85.2461V85.2466ZM86.8004 85.7922C86.8943 84.0072 86.9705 82.541 87.0489 81.0754C87.0661 80.7512 86.984 80.5052 86.5933 80.5646C86.3233 80.6052 86.1795 80.8288 86.2906 81.054C86.9797 82.4571 86.3861 83.974 86.8004 85.7922ZM100.295 85.1781C101.029 83.8596 100.116 82.364 101.168 81.1289C101.4 80.8566 100.952 80.6378 100.708 80.5838C100.273 80.4875 100.304 80.8705 100.301 81.1267C100.288 82.4768 100.295 83.8275 100.295 85.1781ZM74.8488 80.5886C74.6895 80.5934 74.5306 80.5988 74.3712 80.6036V85.3012C74.4056 85.3006 74.4399 85.3001 74.4743 85.2996C74.5993 83.7296 74.7238 82.1591 74.8488 80.5891V80.5886Z" fill="black"/>
<path d="M187.964 25.0834C188.369 29.421 187.936 33.735 187.898 38.071C188.707 37.9185 188.589 37.3649 188.594 36.8674C188.634 31.9351 188.561 27.0059 188.42 22.0746C188.374 20.4645 188.296 18.8031 188.567 17.1695C189.38 18.5297 188.742 19.9895 188.941 21.4059C189.636 26.3479 190.081 31.3242 190.654 36.2839C190.788 37.4403 191.722 38.3636 191.586 39.6575C191.5 40.4647 191.329 40.7439 190.492 40.6888C189.24 40.607 187.979 40.6075 186.724 40.6578C185.932 40.6894 185.856 40.3358 185.765 39.6559C185.527 37.8709 186.706 36.4449 186.833 34.7315C187.073 31.5055 187.572 28.2982 187.964 25.0834Z" fill="black"/>
<path d="M135.118 41.0178C134.076 40.3352 132.905 40.5797 131.798 40.6524C130.78 40.7188 130.394 40.37 130.592 39.4238C131.157 36.7343 131.621 34.0298 131.897 31.2948C132.272 27.5681 133.173 23.9141 133.567 20.1537C134.026 24.0313 134.431 27.9158 134.961 31.7831C135.264 33.988 135.084 36.2518 136.072 38.4005C136.351 39.006 137.37 40.9204 135.06 40.9745C135.062 40.9755 135.119 41.0173 135.119 41.0173L135.118 41.0178ZM134.162 38.431C133.613 33.8693 133.628 29.3541 133.44 24.8481C133.351 28.8315 133.358 32.8128 133.344 36.7936C133.342 37.4655 133.485 38.0303 134.162 38.431Z" fill="black"/>
<path d="M83.1387 59.0806C83.6394 60.565 82.3208 59.975 81.8368 60.252C81.5217 60.4323 81.3736 60.2852 81.4659 59.2373C81.5153 58.6794 80.8745 57.6904 82.2843 57.7096C83.5165 57.7267 82.916 58.643 83.1387 59.0806Z" fill="black"/>
<path d="M274.663 67.6268H268.56C268.559 67.5819 268.558 67.5369 268.557 67.492H274.679C274.673 67.5369 274.668 67.5819 274.663 67.6268Z" fill="black"/>
<path d="M154.474 88.309C154.269 88.9 154.834 89.9827 153.53 89.8687C152.338 89.7644 152.999 88.807 152.96 88.2656C152.92 87.7173 152.507 86.7379 153.695 86.7625C154.843 86.7861 154.344 87.7147 154.474 88.3095V88.309Z" fill="black"/>
<path d="M178.213 88.2459C178.358 87.6051 177.871 86.6952 179.073 86.7305C180.227 86.7647 179.879 87.6313 179.867 88.2288C179.854 88.8904 180.167 89.8731 178.958 89.8463C177.596 89.8164 178.541 88.7118 178.213 88.2459Z" fill="black"/>
<path d="M175.039 88.3882C174.865 88.9498 175.47 89.9335 174.276 89.8704C173.289 89.8185 173.632 88.9332 173.676 88.431C173.725 87.8784 173.103 86.9017 174.209 86.8139C175.509 86.7107 174.772 87.8506 175.039 88.3882Z" fill="black"/>
<path d="M141.936 88.286C141.669 88.8359 142.385 89.9463 141.056 89.8811C139.841 89.8212 140.479 88.8433 140.467 88.3186C140.454 87.7837 139.969 86.8069 141.153 86.7775C142.376 86.7476 141.749 87.7232 141.936 88.2854V88.286Z" fill="black"/>
<path d="M143.656 88.4352C143.447 88.9578 144.031 89.9265 142.918 89.8249C141.853 89.7275 142.299 88.7743 142.257 88.1849C142.219 87.6489 141.924 86.7342 142.977 86.8273C144.098 86.9262 143.368 87.9249 143.656 88.4352Z" fill="black"/>
<path d="M148.169 88.3507C147.938 88.9022 148.563 89.9233 147.342 89.8463C146.199 89.7741 146.704 88.8257 146.684 88.2614C146.664 87.6906 146.288 86.715 147.46 86.7802C148.625 86.8455 147.919 87.8286 148.17 88.3507H148.169Z" fill="black"/>
<path d="M150.006 88.4512C149.834 89.0086 150.323 89.9709 149.239 89.826C148.096 89.673 148.679 88.6577 148.602 88.0265C148.546 87.5628 148.257 86.7251 149.217 86.7823C150.452 86.8561 149.727 87.9174 150.006 88.4512Z" fill="black"/>
<path d="M156.264 88.3518C155.99 88.8525 156.785 89.8795 155.545 89.8709C154.364 89.8629 154.862 88.8765 154.871 88.3336C154.88 87.7917 154.343 86.7861 155.523 86.7877C156.693 86.7893 156.038 87.7982 156.264 88.3518Z" fill="black"/>
<path d="M159.299 88.4229C159.565 87.8564 158.816 86.7845 160.13 86.7989C161.048 86.8091 160.814 87.5959 160.734 88.0597C160.622 88.7096 161.25 89.8607 159.916 89.8548C158.874 89.8506 159.558 88.8963 159.299 88.4229Z" fill="black"/>
<path d="M162.529 88.4304C162.306 88.9177 162.9 89.8576 161.87 89.8474C160.538 89.834 161.176 88.6957 161.062 88.0469C160.98 87.5815 160.764 86.8011 161.683 86.8011C162.966 86.8011 162.294 87.8474 162.529 88.4304Z" fill="black"/>
<path d="M166.968 88.1993C166.67 88.7262 167.419 89.8886 166.16 89.8313C164.966 89.7773 165.617 88.6984 165.533 88.0897C165.463 87.5783 165.176 86.7224 166.259 86.7615C167.344 86.8005 166.794 87.6505 166.968 88.1993H166.968Z" fill="black"/>
<path d="M167.256 88.1908C167.424 87.6714 166.877 86.769 167.977 86.8059C169.093 86.8434 168.723 87.7736 168.72 88.3566C168.718 88.884 169.094 89.7907 168.109 89.826C166.836 89.8715 167.491 88.769 167.256 88.1908Z" fill="black"/>
<path d="M171.687 88.2812C171.851 87.6783 171.349 86.7187 172.54 86.792C173.554 86.8546 173.238 87.7008 173.194 88.2245C173.143 88.8294 173.659 89.91 172.376 89.841C171.225 89.7789 171.944 88.7786 171.687 88.2812Z" fill="black"/>
<path d="M181.65 88.3277C181.395 88.8412 182.092 89.9024 180.869 89.8217C179.739 89.7473 180.298 88.7647 180.26 88.2046C180.226 87.712 179.803 86.8037 180.881 86.7946C182.081 86.7845 181.451 87.7703 181.65 88.3277Z" fill="black"/>
<path d="M167.078 83.6922C167.703 83.6906 168.329 83.6713 168.952 83.6986C169.311 83.7141 169.848 83.5691 169.82 84.1907C169.802 84.5871 169.451 84.7042 169.071 84.7021C167.764 84.6941 166.457 84.6973 165.151 84.6941C164.777 84.693 164.447 84.5769 164.456 84.1442C164.466 83.6606 164.874 83.7018 165.204 83.697C165.828 83.6874 166.454 83.6943 167.078 83.6927L167.078 83.6922Z" fill="black"/>
<path d="M24.3845 76.1538C23.873 76.1538 23.3589 76.1195 22.8512 76.1623C22.1509 76.2217 21.9276 75.8761 22.0022 75.2588C22.0693 74.7052 21.7666 73.9237 22.7793 73.8991C23.8183 73.8734 24.8578 73.852 25.8968 73.8167C26.8467 73.7846 27.3098 74.1265 27.298 75.1775C27.2852 76.2875 26.5923 76.1195 25.9188 76.1152C25.4074 76.112 24.8959 76.1147 24.385 76.1147V76.1538H24.3845Z" fill="black"/>
<path d="M43.7533 76.1875C42.564 76.1912 41.3748 76.1987 40.1855 76.1976C39.4718 76.1971 38.6227 76.4004 38.8036 75.1615C38.9286 74.3051 38.5643 73.2289 40.2075 73.5028C40.814 73.6039 41.5701 73.9687 42.2989 73.4092C42.827 73.0037 42.9574 73.6525 42.9263 73.9895C42.8442 74.8764 43.1479 75.5943 43.6985 76.2474L43.7533 76.188V76.1875Z" fill="black"/>
<path d="M281.05 76.2147C280.767 76.2126 280.484 76.2222 280.202 76.2105C279.531 76.1826 278.68 76.5212 278.862 75.2032C279.07 73.7007 279.042 73.813 280.28 73.7258C280.805 73.6889 281.438 73.6857 281.994 73.4899C282.516 73.3064 282.721 73.5193 282.968 74.0516C283.96 76.1939 283.956 76.2265 281.05 76.2147H281.05Z" fill="black"/>
<path d="M175.959 72.8277C173.716 71.2101 172.628 71.2925 170.915 72.9716C171.102 69.0566 171.105 68.9341 172.18 68.9646C173.245 68.9951 174.651 68.4596 175.299 69.3962C175.838 70.1756 175.288 71.4899 175.959 72.8277Z" fill="black"/>
<path d="M182.103 68.9517V72.6795C180.761 71.707 179.27 71.2486 177.55 72.22C178.26 71.1448 176.853 69.2834 178.642 68.8891C179.521 68.6955 181.519 67.9504 181.492 70.2173C181.545 69.8455 181.609 69.3871 181.674 68.9282C181.817 68.9362 181.96 68.9437 182.103 68.9517Z" fill="black"/>
<path d="M180.551 66.8533C180.389 67.2636 180.294 67.8156 179.702 67.7241C179.151 67.6385 179.027 67.1224 179.123 66.6581C179.206 66.2547 179.261 65.6262 179.883 65.7546C180.358 65.853 180.5 66.3697 180.551 66.8533Z" fill="black"/>
<path d="M174.142 66.7255C174.138 67.2968 173.965 67.6498 173.498 67.6824C172.908 67.7236 172.736 67.3139 172.753 66.8094C172.769 66.3542 172.88 65.7712 173.346 65.7509C173.951 65.7247 173.985 66.3981 174.141 66.7249L174.142 66.7255Z" fill="black"/>
<path d="M145.7 73.4937C145.817 72.3591 145.932 71.4123 146.009 70.4629C146.103 69.3155 146.439 68.7517 147.854 68.8769C150.881 69.1454 150.891 69.0357 150.655 72.2789C148.093 71.2519 147.441 71.3963 145.7 73.4937H145.7Z" fill="black"/>
<path d="M142.925 66.7238C143.016 67.2898 142.734 67.5235 142.3 67.5893C141.663 67.6861 141.325 67.3032 141.309 66.7415C141.296 66.3141 141.421 65.7337 141.928 65.6808C142.641 65.6059 142.737 66.29 142.925 66.7238Z" fill="black"/>
<path d="M149.142 66.9565C149.144 67.4503 148.87 67.6749 148.405 67.684C147.725 67.6968 147.496 67.2994 147.607 66.6987C147.684 66.282 147.734 65.6808 148.337 65.7936C148.874 65.8937 149.1 66.4109 149.142 66.9565Z" fill="black"/>
<path d="M95.064 62.359C94.4919 62.4226 94.0626 62.4039 94.1511 61.7037C94.2204 61.1533 94.6787 60.8543 95.0656 60.8607C95.6699 60.8703 96.1271 61.4213 96.0955 61.9744C96.059 62.6179 95.3828 62.2675 95.0635 62.359H95.064Z" fill="black"/>
<path d="M100.312 61.125C101.829 59.9375 101.723 61.4342 102.07 62.1809C101.282 62.1638 99.7384 63.3957 100.312 61.125Z" fill="black"/>
<path d="M135.024 62.9137C136.21 63.9899 137.545 64.9549 136.758 66.7527C136.54 67.2518 136.395 67.6845 135.745 67.6797C134.956 67.6738 135.033 67.1074 135.028 66.6115C135.016 65.3791 135.024 64.1461 135.024 62.9137H135.024Z" fill="black"/>
<path d="M232.334 62.4986C231.836 62.5206 231.4 62.5382 231.429 61.8471C231.451 61.3298 231.565 60.9661 232.175 61.0078C232.813 61.0512 233.276 61.3651 233.288 62.0204C233.302 62.7473 232.653 62.3729 232.334 62.4981V62.4986Z" fill="black"/>
<path d="M164.915 72.6394C165.494 71.3904 164.373 69.5011 165.996 68.941C166.632 68.7212 168.244 68.1676 168.881 69.1994C169.403 70.044 169.353 71.2401 169.596 72.4843C167.957 71.7017 166.404 71.2112 164.915 72.6399V72.6394Z" fill="black"/>
<path d="M168.055 66.8736C168.126 67.3764 167.922 67.646 167.436 67.6904C166.898 67.7396 166.56 67.5278 166.545 66.9565C166.531 66.4168 166.686 65.8268 167.256 65.7915C167.879 65.7535 167.904 66.4361 168.055 66.8731V66.8736Z" fill="black"/>
<path d="M134.441 81.2188C134.441 81.6146 134.432 82.0104 134.442 82.4057C134.499 84.5282 134.502 84.4646 132.39 84.4619C131.382 84.4603 131.169 84.0934 131.163 83.1781C131.153 81.721 131.249 80.2677 131.05 78.7967C130.914 77.797 131.736 76.801 132.682 76.7587C133.648 76.7154 134.383 77.6108 134.489 78.6785C134.572 79.5178 134.505 80.3715 134.505 81.2188C134.484 81.2188 134.462 81.2188 134.441 81.2188Z" fill="black"/>
<path d="M158.689 72.4532C158.767 71.9568 158.881 71.4636 158.918 70.964C159.09 68.5987 159.325 68.4216 161.604 68.8747C162.534 69.0598 161.91 69.9231 162.292 70.3403C162.46 69.806 162.26 69.1956 162.755 68.6458C163.617 69.8183 162.656 71.2486 163.457 72.4104C161.793 71.6113 160.218 71.5535 158.654 72.4211L158.688 72.4532H158.689Z" fill="black"/>
<path d="M160.939 65.669C161.467 65.7968 161.658 66.2167 161.746 66.6612C161.867 67.27 161.52 67.7113 160.96 67.7706C160.504 67.8188 160.333 67.34 160.277 66.9276C160.198 66.3628 160.418 65.9354 160.94 65.6685L160.939 65.669Z" fill="black"/>
<path d="M190.416 80.8994C190.416 81.6536 190.342 82.1233 190.429 82.5619C190.762 84.2581 189.919 84.5373 188.455 84.4421C187.486 84.3795 186.985 84.2479 187.06 83.1209C187.154 81.7044 187.072 80.2762 187.074 78.8529C187.075 77.721 187.67 76.893 188.754 76.8625C189.879 76.8314 190.433 77.7424 190.499 78.8106C190.547 79.6012 190.44 80.4009 190.416 80.8989L190.416 80.8994Z" fill="black"/>
<path d="M105.454 83.7264C105.454 83.1038 105.47 82.4811 105.45 81.859C105.424 81.0353 105.901 80.4784 106.612 80.441C107.325 80.4035 107.945 80.9604 107.972 81.7125C108.022 83.123 107.924 84.5384 107.887 85.9521C107.865 86.8123 107.217 86.7251 106.662 86.7283C106.1 86.7315 105.461 86.7962 105.46 85.9334C105.46 85.1979 105.46 84.4624 105.46 83.7264H105.454H105.454Z" fill="black"/>
<path d="M239.272 83.7494C239.272 83.1246 239.264 82.4999 239.274 81.8756C239.287 81.1503 239.654 80.6555 240.379 80.5961C241.124 80.5346 241.615 81.0791 241.661 81.7103C241.76 83.0658 241.704 84.4346 241.676 85.797C241.658 86.6935 240.918 86.4699 240.403 86.5159C239.885 86.562 239.33 86.5737 239.339 85.7949C239.348 85.1134 239.341 84.4314 239.341 83.7499C239.318 83.7499 239.295 83.7499 239.272 83.7499V83.7494Z" fill="black"/>
<path d="M212.852 83.8981C212.852 83.1643 212.753 82.4122 212.881 81.7008C213 81.0327 213.415 80.3244 214.201 80.4025C214.838 80.4656 215.29 81.0626 215.316 81.7355C215.369 83.0915 215.397 84.455 215.316 85.8083C215.241 87.0455 214.185 86.3512 213.588 86.5176C212.782 86.7423 212.839 86.1282 212.856 85.5959C212.875 85.0305 212.861 84.4635 212.861 83.8976C212.858 83.8976 212.855 83.8976 212.853 83.8976L212.852 83.8981Z" fill="black"/>
<path d="M79.1395 83.7735C79.1395 83.1498 79.1062 82.5245 79.1475 81.9035C79.2034 81.0658 79.7191 80.4362 80.5058 80.4153C81.2572 80.395 81.7176 81.1145 81.7348 81.8147C81.7686 83.2268 81.6779 84.6443 81.584 86.0559C81.5234 86.9653 80.7742 86.6486 80.267 86.6625C79.7035 86.6775 79.0799 86.7144 79.1449 85.8142C79.1937 85.137 79.1545 84.4539 79.1545 83.7735C79.1497 83.7735 79.1449 83.7735 79.14 83.7735H79.1395Z" fill="black"/>
<path d="M215.896 59.8899C216.017 60.7655 215.57 60.78 215.092 60.7987C214.346 60.8287 214.496 60.3109 214.531 59.8915C214.565 59.4967 214.378 58.9415 215.152 59.0137C215.87 59.0806 215.822 59.6267 215.896 59.8899Z" fill="black"/>
</svg>
