<svg width="46" height="189" viewBox="0 0 46 189" fill="none" xmlns="http://www.w3.org/2000/svg">
<path d="M40.5385 55.319C40.0092 56.9625 40.3287 58.0998 40.7868 59.6907C40.7884 61.6588 40.7868 63.6268 40.7728 65.5949C40.7704 65.9112 40.831 66.2449 40.4426 66.4618C38.6186 67.6484 41.4365 69.3231 42.2527 70.5015C42.274 69.5606 42.4592 68.7627 42.1011 67.9755C41.9814 67.7133 41.997 67.4167 42.1666 67.2104C42.528 66.7724 42.5763 66.3665 42.3289 65.8398C42.174 65.5094 42.3469 65.1396 42.7836 65.1429C43.6932 65.2021 42.714 66.3533 43.4039 67.1077C43.5555 67.3822 43.5817 67.6772 43.4998 67.9804C43.1401 69.3116 43.1352 70.6247 43.6014 71.9445C43.848 72.7785 43.2441 74.7252 44.7616 73.9487C45.2271 73.7498 45.7031 73.5074 45.9391 74.0925C46.4365 75.284 43.7743 75.1229 43.9562 77.3252C44.2118 85.8458 43.9439 94.4289 44.2536 102.918C45.4049 104.95 42.7214 104.429 42.9623 106.152C42.9328 108.22 42.8803 110.288 42.8402 112.355C42.8287 112.94 42.7287 113.324 41.9659 113.382C41.1465 113.446 40.9048 114.099 40.9113 114.907C40.8253 139.405 41.6529 164.238 41.1039 188.571C40.6483 188.266 40.8228 187.824 40.8195 187.46C40.7753 181.689 40.7474 175.917 40.7163 170.146C40.7108 169.167 40.2146 168.556 39.2275 168.313V188.553C38.7268 188.166 38.8628 187.741 38.8563 187.394C38.7407 181.223 38.6195 175.053 38.5564 168.882C38.5465 167.948 38.2761 167.871 37.469 168.062C36.4235 168.311 36.0064 168.733 36.0351 169.93C36.1719 175.7 36.1859 181.472 36.2211 187.243C36.2236 187.631 36.4489 188.345 35.9695 188.345C35.5017 188.345 35.7278 187.63 35.7229 187.241C35.6434 181.37 35.5689 175.499 35.5426 169.628C35.5385 168.796 35.3157 168.592 34.4873 168.583C27.2332 168.496 19.9848 168.784 12.734 168.828C11.9162 168.832 11.8277 169.158 11.8392 169.837C11.9342 175.609 12.0063 181.38 12.0678 187.151C12.0719 187.516 12.2571 188.2 11.867 188.195C11.2689 188.188 11.5778 187.509 11.5712 187.145C11.4705 181.341 11.4033 175.536 11.3156 169.732C11.3107 169.399 11.5016 168.908 11.0091 168.791C10.3717 168.639 9.69483 168.501 9.05734 168.569C8.80005 168.596 8.91149 169.228 8.91395 169.587C8.78203 176.037 9.34003 182.624 8.85987 188.998C8.34693 188.714 8.55833 188.228 8.55342 187.856C8.47639 181.751 8.42067 175.646 8.35922 169.542C8.35103 168.731 7.94788 168.405 7.14979 168.561C5.52821 168.88 5.53886 168.88 5.55115 170.527C5.40038 176.524 6.0092 182.719 5.45365 188.611C4.37122 164.298 5.01281 139.256 4.36795 114.7C4.54494 113.449 3.26258 114.137 3.54855 111.697C3.27651 109.949 4.24422 105.71 2.51448 104.904C1.46401 104.213 2.85535 103.291 2.53086 102.035C2.43172 94.2958 2.32684 86.5566 2.22195 78.8175C2.38255 76.1427 -0.459107 75.7171 0.0644865 74.588C0.287362 74.1171 0.66838 74.0703 1.15428 74.2675C2.2113 74.6956 2.37354 74.5896 2.33749 73.4474C2.27931 71.6223 2.49235 69.7973 2.20884 67.9681C2.09413 67.2252 2.993 66.5843 2.66279 65.7075C2.68163 65.2884 3.67228 65.456 3.4535 65.9926C3.41007 66.18 3.19949 66.4429 3.25931 66.5226C4.16556 67.7224 3.42646 69.1103 3.71079 70.3774C5.25699 69.665 5.79369 68.4217 5.35204 66.9844C4.26307 66.5818 4.57689 65.6162 4.52609 64.8487C4.4253 63.3187 4.41465 61.782 4.3786 60.2486C4.37286 59.9988 4.24832 59.6225 4.56788 59.5461C5.06034 59.4277 4.76372 60.0235 5.16932 60.2191C4.96774 59.1015 5.00953 58.039 5.01691 56.9773C5.01855 56.6864 4.80059 56.1687 5.27748 56.158C5.85597 56.1457 5.63227 56.7234 5.60114 57.0159C5.39547 58.9659 5.85433 60.8321 6.3853 62.7287C7.92084 61.0194 9.34659 58.6306 10.5544 56.5007C10.6634 56.3051 10.7879 56.0052 10.7142 55.8384C10.2774 54.8531 10.8354 53.8728 10.674 52.899C10.5044 52.2104 11.4541 52.2104 11.3181 52.8629C11.2533 53.3025 11.4016 53.6287 11.8203 53.6887C12.3702 53.8473 12.8675 51.6385 13.1732 51.1619C13.4378 50.4864 13.9491 49.7789 12.8044 49.3401C12.4685 49.211 12.3103 48.6613 12.439 48.3679C13.0806 47.0967 12.1751 45.6061 12.8954 44.4515C13.4362 44.9331 12.9036 45.6348 13.2551 46.1082C13.4346 46.1082 13.5566 46.0449 13.5444 45.8863C13.4124 44.2412 13.6541 42.6002 13.2944 40.932C13.0191 39.6542 12.8315 37.9959 13.4182 36.9786C14.2736 35.4946 13.8279 34.1116 13.8721 32.7146C13.8877 31.2297 15.17 29.4811 13.6369 28.4539C13.4157 27.8927 14.621 28.2468 14.3916 27.476C14.3023 27.1761 14.3187 26.8334 14.2343 26.508C14.063 25.8531 15.2249 25.8334 14.9644 26.5393C14.2826 28.3808 15.8419 27.891 15.4175 28.5238C14.4006 29.002 14.7358 29.993 14.9062 30.6011C15.1373 31.4245 15.1553 32.2545 15.3052 33.3276C18.9368 26.7578 20.8542 19.7648 22.0398 12.4341C22.1054 11.9961 22.1308 11.7562 21.6203 11.5228C20.9353 11.2097 21.0328 10.1875 21.7596 9.93849C22.6454 9.54241 22.1005 8.19558 22.2734 7.40671C22.275 6.94489 22.4553 6.34174 21.5621 6.61455C20.601 6.63756 20.8501 4.86507 21.64 4.7451C22.5954 4.53309 22.5978 2.96932 22.175 2.42615C21.1819 1.86326 22.4094 -0.915043 23.1878 0.307705C23.5197 0.864022 23.7933 1.50827 23.3738 2.1599C22.6773 3.24214 22.7617 3.99978 23.8114 4.72291C24.7389 5.47891 24.9872 6.53484 23.5418 6.61291C23.0338 7.43876 23.5082 8.33527 23.3984 9.19728C23.3615 9.489 23.364 9.83331 23.8146 9.83413C24.1465 9.83413 24.4202 9.90151 24.4169 10.3132C24.6971 11.7282 23.3238 11.2122 23.5819 12.421C24.9126 19.5463 26.6399 26.7932 30.5919 32.9365C30.3608 31.5642 31.5792 29.2937 30.6082 28.2575C30.1396 28.0085 30.015 27.7448 30.6394 27.4629C31.5309 27.0635 30.3837 26.0224 31.0548 25.5877C32.3282 25.3584 30.6541 27.3626 32.043 27.5681C32.2544 27.6231 32.2093 27.9666 32.0242 28.0554C30.9327 28.5805 31.3547 29.661 31.5686 30.2264C32.3478 32.4106 31.5137 34.6605 32.3945 36.7831C33.0009 39.6213 32.2577 42.4942 32.4265 45.3554C32.4158 45.5584 32.4486 45.8017 32.6993 45.8066C33.159 45.8386 32.8009 44.3135 33.0697 43.9108C33.6703 44.984 33.2688 46.1139 33.513 47.243C33.7203 47.9653 33.7023 48.6761 32.7919 48.9218C32.3855 49.0319 32.3437 49.2341 32.4486 49.5767C32.7887 50.1404 33.5228 55.0906 34.3488 52.7807C34.4414 52.4544 34.2414 51.8209 34.706 51.7502C34.9691 51.7461 35.0404 51.9606 35.0289 52.1611C34.9601 53.3797 35.5017 54.5984 35.0248 55.8154C34.9453 56.0175 34.9936 56.1975 35.0993 56.384C36.3006 58.4918 37.4674 60.6209 38.9743 62.9177C38.9743 62.0967 38.8931 61.5421 39.0013 61.0277C39.0816 60.6464 38.7186 59.8435 39.7396 60.0128C40.0428 60.0629 39.9936 59.5173 39.9321 59.2642C39.5896 57.8533 39.8084 56.4152 39.6806 54.9961C40.0616 54.8556 40.3238 55.0265 40.5385 55.3248V55.319ZM19.775 37.8924C19.426 39.0223 19.7029 40.1629 19.6423 41.3462C22.3766 39.5778 21.1016 44.6742 21.3819 46.0211C21.4884 46.0178 21.5941 46.0137 21.7006 46.0104C21.835 43.4761 21.6793 40.946 21.5392 38.208C20.5002 40.8285 20.2486 39.9081 19.748 37.8661C20.2109 37.908 20.3175 38.3813 20.6477 38.6279C20.7436 38.4931 20.8435 38.3731 20.9222 38.24C21.1123 37.9187 21.7662 37.7807 21.5064 37.3238C21.2778 36.9203 20.7231 37.1997 20.3158 37.1545C19.7373 37.0904 19.5079 37.3172 19.7742 37.8924H19.775ZM39.7896 138.615C39.4274 138.388 39.1398 138.011 38.599 138.06C38.9374 139.637 37.6624 142.53 39.8273 142.899C40.341 143.007 40.5655 142.971 40.5475 142.383C40.2853 141.501 41.1473 138.394 39.7896 138.616V138.615ZM6.42791 139.344C5.97478 139.544 5.20537 139.27 5.21356 140.164C5.22422 141.325 5.23896 142.485 5.22831 143.645C5.22422 144.105 5.38891 144.187 5.82729 144.11C8.06014 143.723 8.06178 143.734 8.02163 141.47C7.83481 139.952 8.66977 137.956 6.40414 139.365L6.42791 139.344ZM35.1002 126.69C34.9814 126.69 34.8634 126.69 34.7445 126.69C34.1177 110.48 38.5777 114.488 22.3389 114.142C21.2712 113.917 21.9989 116.751 21.7588 117.481C21.7408 117.882 21.9685 118.604 21.4925 118.607C20.9525 118.61 21.2335 117.908 21.2213 117.521C20.9377 116.534 21.962 113.871 20.3937 114.172C17.8019 114.255 15.2094 114.286 12.6168 114.334C11.1353 114.361 11.1091 114.369 11.128 115.862C11.2189 123.367 11.3353 130.872 11.3934 138.378C11.4 139.251 11.7433 139.33 12.4546 139.317C19.7046 139.182 26.9546 139.061 34.2054 138.977C34.9846 138.968 35.1239 138.713 35.1174 137.997C35.0821 134.229 35.101 130.46 35.101 126.69L35.1002 126.69ZM23.5737 163.555C23.5737 163.547 23.5737 163.539 23.5737 163.531C27.2643 163.531 30.9548 163.522 34.6454 163.54C35.2042 163.543 35.4689 163.472 35.4558 162.792C35.3419 156.958 35.2509 151.123 35.2042 145.289C35.1969 144.41 34.9527 144.174 34.0767 144.188C26.9292 144.298 19.7808 144.373 12.6332 144.41C11.7532 144.414 11.518 144.644 11.5344 145.525C11.6409 151.225 11.7048 156.927 11.7409 162.629C11.7458 163.383 11.9621 163.581 12.702 163.572C16.3254 163.535 19.9496 163.555 23.5737 163.555ZM6.90152 63.0771C8.73614 63.5997 10.4364 62.9481 12.1366 63.1428C13.0068 63.2422 13.8737 62.7221 14.6333 62.8774C16.6171 63.1642 18.5976 62.8264 20.5444 62.8922C23.736 62.6153 27.0095 63.2135 30.183 62.8289C32.6436 62.8486 35.0117 62.7582 37.4977 62.9037C38.2548 62.9448 38.145 62.612 37.8623 62.1485C35.4886 58.1171 32.8313 54.1596 31.9348 49.4707C32.0274 48.4592 27.5044 49.2045 26.6276 49.0442C7.13668 49.7624 19.2293 46.7253 6.9007 63.0779L6.90152 63.0771ZM41.0178 105.38C41.1244 105.387 41.2317 105.393 41.3382 105.399C41.3382 106.688 41.3218 107.976 41.3497 109.264C41.3571 109.594 41.1006 110.124 41.8077 110.134C42.4223 110.142 42.3854 109.717 42.3944 109.316C42.4215 108.116 42.4092 106.914 42.478 105.716C42.5149 105.083 42.2256 105.014 41.711 105.018C29.4087 105.093 17.1005 104.819 4.80714 105.341C4.15982 105.262 3.95088 105.482 3.98037 106.165C4.05084 107.762 4.0828 109.367 4.01561 110.964C3.97873 111.84 4.28601 112.014 5.08492 111.997C10.2037 111.884 15.3224 111.791 20.442 111.739C26.9251 111.673 33.4065 111.447 39.8903 111.545C40.5082 111.554 40.9564 111.567 40.8916 110.675C40.9089 108.947 40.5778 107.036 41.017 105.38H41.0178ZM15.2954 34.391C15.7739 34.4107 16.0517 34.7829 16.513 34.5003C17.57 33.9193 18.8098 34.8183 19.8889 34.2776C20.5444 33.7081 20.7903 35.1429 21.5834 34.2653C21.7268 34.1321 21.9833 34.0113 22.1341 34.1469C22.7117 34.6663 23.2411 34.483 23.8048 34.1362C24.457 33.9415 24.3022 34.6063 25.3387 34.2283C26.2097 34.2981 27.2086 34.05 28.0206 34.2768C28.2254 34.4584 28.4278 34.469 28.6425 34.2932C28.9891 34.0097 29.3341 33.9127 29.6987 34.2784C29.9208 34.5011 30.1371 34.3507 30.319 34.2086C30.5902 33.9974 30.3772 33.7812 30.2739 33.5964C25.9967 26.9805 24.6283 19.0598 22.6986 11.7406C21.413 19.6745 19.394 27.2994 15.2954 34.3902V34.391ZM36.9209 90.0638C36.9405 90.0638 36.9594 90.0638 36.979 90.0638C36.979 85.5623 36.9807 81.0608 36.9749 76.5602C36.9749 76.2824 37.1151 75.7606 36.7775 75.7869C35.5623 75.8831 34.2349 75.0958 33.1361 76.1904C32.9501 76.3753 32.7985 76.3087 32.6289 76.1559C31.7234 75.3374 30.2666 75.3719 29.3578 76.2405C29.212 76.3794 29.0186 76.4501 28.9416 76.298C27.6396 74.2478 25.8697 76.5552 24.294 75.7162C23.5188 75.5552 22.4413 75.1287 21.8014 76.2126C21.7342 76.326 21.5351 76.358 21.454 76.243C20.7034 75.1903 19.6169 75.9135 18.7082 75.7097C18.0699 75.5667 18.0969 76.4459 17.6807 76.4591C17.2333 76.4739 17.2718 75.5798 16.5589 75.7121C15.9804 75.819 15.3372 75.8411 14.7743 75.6982C13.968 75.4936 13.7385 76.6004 13.4018 76.432C12.3136 75.3128 11.4533 75.9283 10.0644 75.7154C9.02129 75.5823 8.79186 76.0137 8.80825 77.0039C8.95574 85.905 9.0639 94.8069 9.14993 103.708C9.15731 104.458 9.44574 104.563 10.089 104.561C18.7008 104.542 27.3118 104.537 35.9237 104.558C36.6783 104.559 36.9471 104.387 36.9389 103.567C36.8971 99.0668 36.9192 94.5645 36.9192 90.063L36.9209 90.0638ZM25.8238 167.237C24.8553 166.636 26.0139 164.789 25.1871 164.167C24.5996 163.697 23.586 164.075 22.7634 164.007C21.1 163.748 22.6028 166.647 21.7416 167.149C20.7968 166.625 22.2914 163.894 20.5993 164.017C18.5517 163.987 18.5648 163.964 18.5517 166.049C18.5492 166.446 18.7836 167.177 18.3345 167.178C17.7323 167.18 18.0166 166.449 18.0076 166.049C17.9609 163.873 17.9781 163.889 15.8239 164.029C15.3569 164.06 15.1708 164.194 15.1962 164.672C15.1233 165.17 15.5027 167.392 15.007 167.435C14.6169 167.465 14.7448 167.048 14.73 166.818C14.467 165.901 15.3077 163.847 13.7377 164.045C13.0445 164.233 11.6901 163.586 11.7851 164.774C12.0662 165.683 11.1501 168.59 12.5742 168.369C19.8824 168.164 27.1955 167.962 34.5077 168.07C35.2649 168.083 35.6066 167.894 35.5082 167.072C35.1985 165.968 36.2137 163.805 34.3226 164.014C31.2769 163.831 33.5023 166.043 32.2265 167.659C31.9996 166.614 32.1495 165.721 32.1069 164.839C32.0946 164.587 32.256 164.198 31.9586 164.117C31.2834 163.935 30.5484 163.924 29.8905 164.104C29.1448 164.363 30.0232 166.754 29.3538 167.616C28.4074 165.342 30.3886 163.698 26.7235 164.005C25.1642 164.034 26.4261 166.262 25.8238 167.237ZM37.4666 95.544C37.4666 97.8539 37.4699 100.142 37.4641 102.43C37.4633 102.904 37.7493 102.95 38.1196 102.946C39.1414 102.691 42.4092 103.622 42.1142 102.042C42.0773 94.2448 41.9995 86.4465 41.9519 78.649C41.9487 77.9415 41.8118 77.6202 41.026 77.6843C40.119 78.0105 37.3691 77.0614 37.4936 78.4576C37.5149 80.1906 37.4928 81.9237 37.4912 83.6567C37.4912 83.9221 37.4846 84.1982 37.7304 84.3839C38.7481 85.1531 38.3392 86.2986 38.581 87.2781C38.0041 87.3874 38.0189 86.6881 37.5075 86.6881C37.5075 88.6619 37.5059 90.6209 37.5092 92.58C37.5092 92.8117 37.5059 93.0558 37.7525 93.1913C38.4982 93.6014 38.4433 94.3492 38.5007 95.0329C38.5293 95.3731 38.7457 95.8316 38.3474 96.0337C37.9877 96.2162 37.9385 95.5785 37.4666 95.5432V95.544ZM14.7448 143.375C13.9794 142.872 14.4883 141.236 14.3383 140.399C14.3367 140.088 14.3383 139.852 13.8975 139.786C10.9641 139.068 11.5475 140.996 11.4877 143.13C11.4246 143.815 11.7359 143.986 12.3636 143.953C17.5471 143.801 22.738 143.8 27.9239 143.769C28.6859 143.769 28.8933 143.561 28.8228 142.813C28.7449 141.987 28.8031 141.147 28.822 140.314C28.8269 140.103 28.7925 139.782 29.1325 139.809C29.616 139.998 29.2399 141.486 29.3513 141.993C29.348 143.824 29.3472 143.808 31.1728 143.731C32.5224 143.926 31.6095 141.108 31.9258 140.197C32.2831 138.842 28.7499 139.751 27.9092 139.542C25.8181 139.56 25.8385 139.554 25.8287 141.613C25.8263 142.196 26.0762 142.839 25.6198 143.414C25.1945 143.06 25.3551 142.63 25.3485 142.257C25.3363 139.346 25.1937 139.423 22.3414 139.611C21.0254 139.413 22.3946 142.891 21.4663 143.4C20.5018 141.429 22.5618 139.252 19.1302 139.651C17.6241 139.619 18.8458 142.193 18.2108 143.298C17.7364 142.817 17.8617 142.337 17.8576 141.91C17.8339 139.664 17.8413 139.686 15.6412 139.745C14.0573 139.739 15.3519 142.285 14.7456 143.376L14.7448 143.375ZM8.94591 63.8314C9.33758 64.1996 9.72023 64.474 9.99145 64.8331C11.2263 66.3295 11.3582 62.1806 12.9765 64.8027C13.5829 65.5949 13.8574 65.3319 14.2998 64.6975C15.9755 62.0088 16.2574 66.2219 17.5659 64.5924C19.7881 61.7072 20.3142 66.9023 22.1439 64.3508C23.2484 63.1929 23.6082 63.6063 24.5488 64.7263C25.9131 66.5045 25.8746 61.7196 28.4106 64.7575C29.8175 66.2235 29.7618 61.9587 31.5481 64.6006C33.0632 66.3361 32.5502 61.6111 35.019 64.9096C35.5033 64.5956 35.4812 63.8298 36.0474 63.7205C36.7217 63.5898 36.7488 64.5094 37.3338 64.6869C37.4535 64.4436 37.5452 64.1955 37.6886 63.9826C38.7399 63.0401 37.6714 66.9351 36.7472 64.9079C36.3415 64.3803 36.022 64.1199 35.686 64.9572C34.638 67.1217 34.2455 62.7393 32.9091 65.0624C32.1839 65.954 32.0627 65.9556 31.3383 65.0936C29.9281 62.8297 29.8446 67.0411 28.2295 65.281C25.977 62.2751 26.1368 67.7199 23.9671 64.8019C23.2648 63.7361 22.8256 64.4535 22.1464 65.0681C21.4919 65.702 20.8326 65.7231 20.1683 65.1314C17.9486 62.4756 17.8191 67.1825 16.2189 65.1668C15.465 64.0779 15.4298 64.1026 14.621 65.1035C13.0748 67.7446 12.6463 63.1469 11.3189 65.2078C9.9087 67.5432 9.28677 62.5142 7.8176 65.3705C7.70862 65.5201 7.64471 65.751 7.33743 65.6524C7.18339 64.8216 8.02409 64.4543 8.29695 63.8051C6.38776 63.5496 6.31811 63.5857 5.40202 64.9145C5.15047 65.2785 5.11114 65.6787 5.20455 66.0567C16.1894 66.8152 28.0853 65.9417 39.3668 65.9877C39.6716 65.9811 40.0911 66.1389 40.2099 65.6844C40.3795 64.4921 38.5244 62.8782 37.2306 63.4501C36.8488 63.5824 36.3727 63.4937 35.9491 63.4403C26.9021 63.0812 18.001 63.5134 8.94591 63.8306V63.8314ZM4.93743 126.841C5.02264 126.841 5.10786 126.841 5.19308 126.841C5.19308 130.376 5.19226 133.911 5.19308 137.447C5.19308 139.106 5.17751 139.034 6.77123 138.621C7.77417 138.362 8.01835 137.885 7.99869 136.884C7.87414 130.481 7.8135 124.077 7.75778 117.673C7.64471 116.533 7.73074 115.156 7.10227 114.207C6.27878 113.759 4.93661 114.581 4.93661 115.534C4.93661 119.303 4.93661 123.071 4.93661 126.841H4.93743ZM27.5707 71.7234C29.0809 70.6921 28.1828 68.4874 29.8306 68.3099C31.3531 68.1719 31.1908 70.3421 31.1933 71.4407C31.086 71.9141 31.6522 72.0948 31.789 71.5936C32.0594 70.9156 32.4511 70.2582 32.4502 69.5138C32.4502 68.7964 32.7714 68.4447 33.4376 68.4061C34.1062 68.3674 34.4012 68.8473 34.4782 69.4036C34.7298 70.0052 34.1529 72.1918 35.0281 72.0546C36.2203 72.2633 35.3255 68.3691 35.5975 67.4684C35.6254 66.7018 35.3714 66.5276 34.6339 66.5407C29.7495 66.6286 24.8635 66.6705 19.9782 66.7207C16.9203 66.7519 13.8631 66.7642 10.8051 66.802C10.4577 66.8061 9.94885 66.6204 9.95622 67.3082C9.97179 68.8079 9.96769 70.3076 9.96769 71.8081C9.84478 72.601 11.1878 72.555 11.0075 71.7563C10.9846 71.0907 10.951 70.4218 10.9911 69.7578C10.9051 68.153 13.4813 68.1069 13.2895 69.7389C13.2633 70.5417 13.6419 71.0882 14.1663 71.7423C14.2753 70.5155 13.6484 68.526 15.3437 68.4397C16.9153 68.411 16.5687 70.2418 16.5851 71.3331C16.8793 71.2164 16.9039 70.6938 17.1595 70.8606C17.8388 71.3027 17.6266 70.7735 17.638 70.476C17.6364 69.6321 17.493 68.5367 18.6467 68.4282C20.3929 68.2277 20.2978 70.4062 20.3994 71.6363C20.6264 70.9428 21.4286 70.6116 21.3417 69.7792C21.0754 68.0322 23.9851 67.9105 23.9146 69.6847C23.9711 70.3215 23.9777 70.9625 24.0056 71.6018C24.1694 70.8138 25.1773 70.5533 25.1126 69.6691C24.8397 67.9138 27.6789 67.9023 27.5601 69.6362C27.5978 70.3306 27.5683 71.0282 27.5683 71.7251L27.5707 71.7234ZM7.23665 87.7638C6.63521 84.6239 8.54604 85.3142 8.38052 82.9048C8.15273 81.6443 8.84184 79.1018 8.147 78.3203C7.53163 77.7509 6.30172 78.2316 5.34794 78.1437C4.67932 78.082 4.47693 78.3507 4.50151 78.9966C4.70308 82.7939 3.94186 83.6091 6.28615 86.8377C6.28615 84.4941 6.27878 82.1611 6.29434 79.8274C6.2968 79.5012 6.03869 78.9177 6.53361 78.9128C7.00394 78.9079 6.78926 79.5069 6.79581 79.8307C6.92774 87.0998 7.09325 94.3697 7.17765 101.639C7.17683 101.931 7.35546 102.461 6.89742 102.447C6.50493 102.434 6.64914 101.91 6.6221 101.596C6.59916 99.997 6.59506 98.393 6.55573 96.793C6.55 96.5498 6.49755 96.0337 6.33695 96.1381C5.44381 96.7174 5.29796 95.6368 4.6785 95.3665C4.6785 97.1267 4.6449 98.7529 4.69161 100.377C4.2942 103.579 4.71209 103.502 7.71927 103.311C8.40511 103.355 8.65584 103.13 8.6288 102.417C8.55587 100.012 8.60094 97.6016 8.58947 95.1947L8.39118 95.1767C8.12487 95.567 7.85857 95.9573 7.59227 96.3476C7.43576 95.0904 6.7401 93.7608 8.22238 92.8766C8.44362 92.7443 8.51818 92.5405 8.51736 92.2866C8.51327 90.404 8.5149 88.5214 8.5149 86.5336C7.86267 86.8344 7.81678 87.3981 7.23665 87.7646V87.7638ZM35.3001 126.117C35.3927 126.117 35.4853 126.117 35.5779 126.117C35.5779 129.451 35.5746 132.784 35.5795 136.119C35.582 137.837 35.5844 137.827 37.1798 137.324C37.6985 137.16 38.091 137.072 38.0721 136.313C37.7263 129.164 38.3065 121.948 37.4338 114.845C37.1937 113.81 36.8381 113.657 35.8802 114.156C34.6462 114.386 35.5713 124.273 35.3009 126.117H35.3001ZM38.068 114.617C38.8423 111.711 38.8587 114.827 41.9634 112.791C42.4354 112.682 42.3616 111.941 41.8635 112.054C41.1121 112.146 40.2689 111.708 39.6249 112.433C38.8432 112.648 38.2712 111.079 36.6324 112.457C36.4579 112.605 36.3358 112.517 36.2514 112.344C36.1621 112.16 36.0744 111.971 35.8245 112.003C35.0018 112.113 34.1021 111.688 33.3614 112.345C33.1951 112.492 33.1033 112.42 32.9443 112.336C31.984 111.829 30.7951 111.914 29.7258 112.556C28.2623 112.229 27.3454 111.676 25.6788 112.648C25.487 112.758 25.3486 112.692 25.283 112.525C25.1658 112.227 24.952 112.093 24.6652 112.17C23.8638 112.386 22.883 111.659 22.2217 112.655C22.1201 112.808 21.9161 112.662 21.8186 112.517C21.7293 112.382 21.6777 112.165 21.481 112.209C20.6649 112.39 19.6931 111.715 19.0146 112.662C18.9335 112.775 18.7762 112.803 18.6623 112.704C17.7298 111.898 16.7859 112.137 15.8452 112.674C15.6781 112.769 15.5715 112.748 15.4036 112.665C14.3793 112.16 12.6873 112.266 11.5163 112.872C10.1988 112.481 9.24417 111.946 7.90691 112.908C7.75696 113.006 7.59718 112.911 7.45707 112.803C6.71469 112.232 5.99281 112.27 5.31189 112.909C4.79813 113.363 4.69407 112.041 4.12459 112.648C3.8419 112.984 4.3196 113.197 4.49987 113.446C4.78748 113.842 5.12343 113.915 5.62244 113.795C7.56441 113.269 7.39971 113.585 8.08062 115.239C8.54522 114.82 7.84464 113.715 9.15977 113.749C15.9722 113.922 22.7814 113.567 29.593 113.559C31.6857 113.557 33.7818 113.54 35.8704 113.425C36.9012 113.368 37.9361 113.036 38.0647 114.616L38.068 114.617ZM10.7314 114.423C10.1725 114.519 8.98524 113.994 8.79923 114.647C7.55212 121.803 8.81726 129.295 8.49934 136.568C8.50507 137.628 8.67387 138.271 9.80299 138.594C10.9288 138.916 10.8961 139.024 10.8805 137.865C10.9264 130.069 10.3848 122.163 10.7305 114.424L10.7314 114.423ZM5.28075 154.13C5.33401 154.13 5.38646 154.13 5.43972 154.13C5.43972 156.729 5.43972 159.328 5.43972 161.928C5.43972 163.63 5.42497 163.546 7.04409 163.238C8.10029 163.037 8.31579 162.553 8.29695 161.556C8.19944 156.358 8.17895 151.159 8.12733 145.961C8.10849 144.05 8.11668 144.107 6.28287 144.502C5.45446 144.681 5.24306 145.014 5.25945 145.834C5.31599 148.598 5.28075 151.365 5.28075 154.13ZM38.3671 152.668C38.2884 152.668 38.2098 152.668 38.1311 152.668C38.1311 149.701 38.1352 146.734 38.1237 143.767C38.1229 143.526 38.2639 143.206 37.9599 143.05C37.4576 142.794 35.7311 143.915 35.736 144.491C35.7885 150.393 35.8532 156.294 35.9581 162.194C35.5771 163.651 37.5035 162.558 38.1672 162.375C38.5605 162.203 38.3589 161.714 38.3605 161.369C38.3736 158.469 38.3679 155.568 38.3679 152.667L38.3671 152.668ZM36.9741 72.0735C36.1211 72.555 35.2567 72.4819 34.4004 72.5525C33.0115 72.6659 33.4163 71.2797 32.7854 70.7217C32.0938 71.2443 32.4109 72.6257 30.9237 72.5419C29.802 72.4786 29.1604 72.1795 28.8236 70.8754C28.2558 73.1442 25.5362 73.2001 24.8209 71.1211C24.6324 73.3365 21.7276 73.0505 21.1205 70.9954C21.0639 72.477 20.3945 72.7736 19.3784 72.7251C18.5025 72.6832 17.5938 72.8615 17.3062 71.5517C16.7203 73.3151 13.9967 73.2305 13.4264 71.6347C12.8724 71.9601 13.2109 72.9051 12.3718 72.8664C11.2042 72.813 9.99801 73.1804 8.89101 72.4638C8.73123 74.3094 8.73368 74.3563 10.4028 74.2807C11.368 74.2371 12.4898 74.7129 13.2322 73.62C13.3157 73.4967 13.4624 73.5986 13.582 73.6693C16.0091 75.2207 17.6249 72.9634 17.9789 73.7671C18.0904 74.0111 18.2755 74.1508 18.5279 74.104C19.4612 73.9331 20.5313 74.5724 21.3368 73.6249C21.4654 73.4737 21.6097 73.5764 21.7678 73.6635C24.1522 75.0054 24.4997 73.2494 25.5231 73.5427C26.4646 74.1821 27.9296 74.1804 28.7335 73.5403C29.5799 73.0119 30.4411 74.9939 32.6354 73.431C32.7821 73.3291 32.973 73.2412 33.0754 73.4022C33.7178 74.4113 34.7077 73.8821 35.5271 73.9232C37.2134 74.0966 37.2429 73.6668 36.9725 72.0759L36.9741 72.0735ZM40.3738 138.071C40.3508 130.226 40.418 122.421 40.3492 114.621C40.2189 114.041 39.6888 114.011 39.2668 113.894C38.7965 113.764 38.7637 114.213 38.6539 114.508C37.7427 121.45 38.7555 128.649 38.558 135.672C38.576 136.91 39.181 137.709 40.373 138.07L40.3738 138.071ZM8.63535 153.581C8.69189 153.581 8.74843 153.581 8.80497 153.581C8.80497 156.246 8.87462 158.914 8.77301 161.575C8.72877 162.732 9.13355 163.125 10.202 163.306C11.0018 163.441 11.2263 163.335 11.2107 162.49C11.1132 156.894 11.0608 151.297 10.9944 145.701C10.978 144.304 10.9698 144.362 9.53751 144.137C8.73368 144.01 8.6075 144.248 8.61815 144.987C8.65994 147.852 8.63535 150.716 8.63535 153.582V153.581ZM40.5524 163.243C40.5524 156.889 40.5426 150.587 40.5614 144.284C40.5647 143.165 39.6101 143.349 39.0726 143.249C38.3704 143.119 38.703 143.864 38.7055 144.185C38.7596 149.855 38.8505 155.525 38.9276 161.194C38.9489 162.753 38.9448 162.761 40.5524 163.243ZM4.17129 90.7385C4.11148 90.7385 4.05248 90.7385 3.99266 90.7385C3.99266 86.8385 3.99676 82.9393 3.98693 79.0394C3.98611 78.6523 4.17539 78.1527 3.42892 78.1379C2.65951 78.1223 2.77668 78.6096 2.7816 79.064C2.86518 86.8303 2.95121 94.5965 3.03807 102.363C3.04299 102.788 2.9463 103.256 3.63541 103.26C4.3999 103.264 4.16146 102.709 4.16228 102.338C4.17621 98.4718 4.17129 94.6047 4.17129 90.7385ZM43.6489 90.2323C43.6038 90.2323 43.5588 90.2323 43.5145 90.2323C43.5252 86.2994 43.4949 82.3666 43.499 78.4346C43.6309 77.3794 42.2002 77.4633 42.4895 78.4814C42.5124 86.3134 42.5452 94.1454 42.5771 101.977C42.5739 102.323 42.5288 102.841 43.0172 102.799C43.7309 102.904 43.6571 102.137 43.6481 101.63C43.6497 97.8309 43.6489 94.0312 43.6489 90.2323ZM9.37117 69.3437C9.54488 66.1307 9.42115 66.9401 6.71797 66.8439C6.15587 66.7963 5.98215 67.0527 5.99199 67.6065C6.02476 69.5014 6.0559 71.3988 5.99854 73.2929C5.97314 74.1212 6.21241 74.4746 7.03836 74.3218C7.46608 74.2429 8.17977 74.5979 8.2781 74.0711C8.50016 72.8821 8.39527 71.6363 8.1093 70.4662C7.66355 69.4669 8.40347 68.3929 9.37035 69.3428L9.37117 69.3437ZM39.343 70.3141C39.2176 67.5671 40.1181 65.9959 36.5939 66.5374C35.6467 66.2777 36.335 70.6428 36.1539 71.4062C36.1555 71.5615 36.1367 71.7694 36.3883 71.7464C36.5644 71.7308 36.7734 71.596 36.7119 71.444C36.5587 71.0627 36.7865 70.6609 36.4563 70.2443C36.0064 69.8375 36.5112 68.2549 37.2232 68.6238C37.5624 68.9073 37.8705 69.213 37.773 69.7175C37.5387 70.9255 37.5944 72.1499 37.542 73.3694C37.51 74.1147 37.95 74.058 38.431 74.053C38.8899 74.0481 39.3831 74.1755 39.3528 73.4096C39.3127 72.3792 39.343 71.3454 39.343 70.3141ZM4.88007 74.8304C4.88007 74.8542 4.88007 74.8772 4.88007 74.9011C4.28355 74.9011 3.68703 74.8871 3.09133 74.9035C0.877326 74.966 0.990403 74.9052 2.14903 76.7204C2.41861 77.142 2.53086 77.7007 3.25767 77.6769C4.74651 77.6284 6.23945 77.6342 7.7291 77.6712C8.50917 77.6901 8.32071 77.1699 8.36659 76.7336C8.56489 75.7343 6.74583 75.9061 7.04737 76.833C7.0654 77.0162 7.0654 77.28 6.78598 77.2693C6.52378 77.2595 6.54016 77.0047 6.51968 76.8141C6.27878 74.6537 8.20681 76.1058 8.31661 75.1501C8.3035 74.5518 7.76188 74.8567 7.46198 74.8436C6.60244 74.8049 5.74043 74.8304 4.87925 74.8304H4.88007ZM44.6854 74.519C42.5567 74.519 40.6024 74.5066 38.649 74.5297C38.2892 74.5338 37.7755 74.2987 37.5928 74.7573C37.424 75.1821 37.4772 75.6028 38.091 75.8296C38.4531 75.9636 38.4261 76.5109 38.1287 76.7779C37.6616 77.197 37.891 76.3408 37.5969 76.3687C37.3617 77.1494 37.8582 77.1814 38.3499 77.1798C39.8084 77.1748 41.2669 77.1559 42.7255 77.1379C43.7046 77.2529 44.0307 75.358 44.6846 74.5182L44.6854 74.519ZM4.6236 85.1564C4.6236 87.2921 4.61786 89.3127 4.62606 91.3326C4.62933 92.2044 4.41465 93.1511 5.41923 93.7074C5.85187 94.2555 5.53313 94.7683 6.39841 95.1791C6.39841 92.8043 6.39841 90.478 6.39841 88.1516C6.39841 87.8287 6.38284 87.6865 5.9248 87.6504C4.00823 87.3381 5.99117 85.7562 4.6236 85.1556V85.1564ZM32.3929 141.569C32.3787 143.102 33.0776 143.812 34.4897 143.701C34.9379 143.737 35.1878 143.571 35.1583 143.092C34.9346 142.268 35.6418 139.47 34.5536 139.485C32.3781 139.167 32.3994 139.523 32.3929 141.57V141.569ZM8.33955 165.609C8.33464 163.169 8.33955 163.18 6.01247 164.041C4.92104 164.462 5.72896 166.635 5.48642 167.627C5.47167 168.189 5.69127 168.278 6.20339 168.215C8.44444 168.017 8.35348 167.763 8.33955 165.609ZM16.7351 45.6866C16.79 45.6981 16.8449 45.7096 16.8998 45.7211C16.8998 44.6915 16.8711 43.6618 16.9096 42.6338C16.9358 41.9485 16.7089 40.9575 17.8281 41.0052C19.5358 41.0241 18.5599 44.9725 18.8008 46.3621C19.0368 46.0326 19.1326 45.9611 19.1326 45.8904C19.1252 43.1598 19.1056 40.4291 19.099 37.6977C19.0982 37.2399 18.8622 37.1307 18.4656 37.1627C17.6585 37.2802 16.545 36.848 16.7195 38.0954C16.7564 40.6255 16.7343 43.1565 16.7343 45.6866H16.7351ZM30.8959 41.3988C30.8959 41.3988 30.9024 41.3988 30.9057 41.3988C30.9057 40.199 30.9204 38.9993 30.8959 37.8004C30.8893 37.4717 31.1712 36.9729 30.4411 36.9458C29.7667 36.9203 29.7872 37.304 29.7921 37.7675C29.8192 40.2672 29.8405 42.7661 29.8528 45.2659C29.8544 45.6767 29.8978 46.012 30.4231 45.9882C30.9778 45.9635 30.8999 45.5675 30.8975 45.1985C30.8909 43.9322 30.895 42.6659 30.895 41.3988H30.8959ZM38.0926 140.144C38.0869 140.144 38.0803 140.144 38.0746 140.144C37.9525 139.423 38.3474 138.273 37.8697 137.735C37.4813 137.568 35.6737 138.519 35.6688 138.938C35.6524 140.202 35.6869 141.468 35.7016 142.732C35.7057 143.089 35.8343 143.153 36.1982 143.068C38.3343 142.736 38.1008 142.108 38.0926 140.146V140.144ZM38.4408 165.26H38.4195C38.3605 163.554 38.744 162.569 36.6865 163.419C36.3129 163.54 35.9278 163.585 35.9564 164.162C36.1965 164.849 35.4886 168.339 36.6095 167.802C38.558 167.385 38.5064 167.265 38.4417 165.261L38.4408 165.26ZM16.2156 41.7464C16.1894 41.7464 16.164 41.7464 16.1377 41.7464C15.9427 40.9328 16.6556 36.8784 15.5773 37.1611C15.1291 37.1561 15.0078 37.3624 15.016 37.7691C15.0709 40.393 15.1209 43.0176 15.1569 45.6414C15.1627 46.0901 15.4044 46.1986 15.7788 46.2298C16.6253 46.6045 16.0623 42.3906 16.2148 41.7464H16.2156ZM8.60422 138.739C8.80251 139.672 8.0921 143.667 9.12208 143.571C11.3164 143.768 10.9354 144.232 10.9616 142.109C10.951 139.862 11.1845 139.348 8.6034 138.739H8.60422ZM11.2607 166.2C11.2189 163.981 11.1378 164.014 9.53833 163.638C8.28056 163.144 9.09176 166.517 8.85659 167.254C8.84512 167.813 9.10569 167.985 9.63092 168.039C11.6507 168.417 11.2197 168.157 11.2615 166.2H11.2607ZM29.1153 45.6447C29.1841 45.6414 29.2521 45.6381 29.321 45.6357C29.321 42.9469 29.321 40.2582 29.3193 37.5695C29.5357 36.7559 27.6805 36.8365 27.3806 37.1512C26.9324 37.5358 27.7781 37.7445 27.8788 38.1389C27.9231 38.3131 27.9436 38.6238 28.2279 38.6106C28.6081 38.4191 28.4967 37.6089 28.9973 37.853C29.4308 38.0633 28.9277 38.5432 28.8646 38.9064C28.831 39.0987 28.7367 39.2828 28.6507 39.4611C27.9911 40.7085 27.8485 38.4216 27.279 38.0173C27.075 39.3494 27.1783 40.5203 27.1561 41.762C27.7174 41.0676 27.9755 40.9304 28.4114 41.0734C29.7339 41.6593 28.8933 44.4006 29.1153 45.6447ZM24.7783 38.7577V41.1235C27.3667 40.2245 26.1229 44.1976 26.3933 45.5831C26.4859 45.5814 26.5776 45.5798 26.6702 45.5773C26.6702 42.9872 26.6719 40.3971 26.6678 37.8069C26.6678 37.5284 26.7874 37.1282 26.3556 37.092C25.0978 36.8718 24.1252 37.0452 25.2896 38.3222C25.578 39.1127 25.7328 37.6212 26.3564 37.7544C26.1565 38.4832 26.2187 39.3584 25.4969 39.6665C25.0503 39.8572 25.1798 38.9804 24.7783 38.7569V38.7577ZM39.9231 70.112C39.9231 71.4432 39.9043 72.5246 39.9305 73.6052C39.9452 74.1886 40.4508 74.0448 40.7605 74.0136C41.2006 73.9692 41.8979 74.3571 42.0232 73.6644C42.1519 72.956 42.283 72.1515 41.5005 71.5854C40.9965 71.2205 40.5803 70.7349 39.9223 70.1112L39.9231 70.112ZM38.9718 163.241C39.2242 164.854 38.0443 168.104 40.441 168.072C40.9416 168.118 40.6466 167.448 40.6876 167.108C40.7466 166.615 40.7032 166.109 40.6983 165.61C40.6873 164.496 40.1121 163.707 38.9726 163.242L38.9718 163.241ZM24.1555 46.0465C24.5136 43.4359 24.0924 40.8383 24.1555 38.0995C23.5942 38.6484 23.7876 39.655 23.1296 39.7085C22.5347 39.8087 22.7134 38.5629 22.1857 38.4323V41.1218C25.1437 40.2952 23.3091 44.5304 24.1563 46.0465H24.1555ZM14.6948 36.6056C15.5683 36.4272 26.635 37.1734 25.2224 36.0205C24.4546 35.0747 24.4669 36.991 23.0928 35.7822C22.4217 35.3171 22.0636 36.9154 21.4187 36.1709C21.0779 35.774 20.8648 36.0147 20.4674 36.1421C19.6742 36.3968 18.8032 35.9474 17.933 36.0986C17.7708 36.1265 17.4979 35.7912 17.239 36.1183C17.026 36.387 16.7892 36.3705 16.5843 36.0994C16.1517 35.4675 15.4494 36.6508 14.6948 36.6064V36.6056ZM6.66553 104.858C7.27106 104.713 8.53785 105.266 8.61323 104.357C8.62634 103.913 8.4346 103.779 8.02409 103.787C7.06621 103.802 6.10752 103.801 5.14883 103.792C4.79977 103.788 4.59574 103.871 4.58591 104.283C4.59328 105.303 6.01821 104.699 6.66471 104.859L6.66553 104.858ZM39.7117 104.536V104.531C40.423 104.359 42.0921 105.027 42.0683 103.92C42.0888 103.567 41.9249 103.451 41.5955 103.453C40.3992 103.464 39.2021 103.481 38.0066 103.458C37.537 103.449 37.4543 103.676 37.4453 104.067C37.4625 104.963 39.1037 104.375 39.7117 104.537V104.536ZM5.51018 70.997C4.32862 71.679 3.76241 72.4778 3.94186 73.7572C4.0238 74.339 4.29584 74.3637 4.7252 74.3612C5.14637 74.3587 5.53067 74.376 5.51592 73.7687C5.4938 72.8837 5.51018 71.9979 5.51018 70.997ZM31.3867 40.4456C31.5399 41.3478 31.0368 45.7499 31.6612 45.8534C32.2577 46.0654 31.798 41.8778 31.9234 41.2615C31.9209 40.9222 31.8586 40.6041 31.3867 40.4456ZM14.644 40.748C13.4182 41.5664 14.2564 44.6315 14.1007 45.9907C14.2884 46.3645 14.7407 46.1829 14.6448 45.7573C14.6432 44.1294 14.644 42.5024 14.644 40.748ZM10.8363 75.261C10.8363 75.2561 10.8363 75.252 10.8363 75.247C11.3328 75.1197 12.8413 75.5634 12.9175 74.9528C12.8978 74.7901 12.7602 74.7523 12.6266 74.7523C11.8769 74.892 9.15895 74.4401 8.8951 75.0038C9.15813 75.5544 10.2963 75.1369 10.8371 75.2602L10.8363 75.261ZM35.1952 75.1509C35.1952 75.1509 35.1952 75.1566 35.1952 75.1591C35.7278 75.0285 36.9504 75.5264 37.011 74.7499C37.002 74.5354 36.8471 74.4664 36.6775 74.4639C35.718 74.4475 34.7577 74.4376 33.7981 74.4368C33.5368 74.4368 33.3499 74.5444 33.3762 74.8567C33.5917 75.4549 34.6749 75.0326 35.1952 75.1509ZM30.9294 75.1649C31.3662 74.8657 32.2905 75.5297 32.2864 74.7523C32.2831 74.0391 31.3719 74.4236 30.886 74.4121C30.4444 74.4023 29.5856 74.0432 29.6094 74.7901C29.6315 75.4689 30.4804 74.929 30.9294 75.1649ZM15.4658 75.238C15.4658 75.2446 15.4658 75.252 15.4658 75.2585C15.9231 75.1418 17.0579 75.5659 17.1292 74.9364C17.1128 74.7178 16.9317 74.6825 16.7744 74.6825C16.1967 74.7992 13.995 74.4286 13.8524 74.9422C14.0303 75.5264 14.9906 75.1279 15.465 75.2372L15.4658 75.238ZM22.9666 10.2968C22.5683 10.48 21.8235 10.0428 21.8071 10.8177C21.7957 11.3552 22.4077 11.19 22.7691 11.2015C23.2206 11.2155 23.8605 11.2779 23.8958 10.6863C23.9343 10.0502 23.2902 10.4545 22.9666 10.2968ZM23.0575 38.8604C23.2992 38.0839 24.2538 37.816 24.0129 37.2515C23.8745 36.9252 22.6642 36.8956 22.3971 37.2137C21.9136 37.7905 22.8781 38.1159 23.0567 38.8604H23.0575ZM19.5702 75.229C20.088 75.0966 21.0279 75.3736 20.9984 74.9545C20.9484 74.2338 20.088 74.6439 19.5907 74.6053C19.1408 74.5699 18.2747 74.3678 18.2895 74.851C18.3108 75.5544 19.1564 75.0005 19.5702 75.229ZM40.2992 64.2727C40.1329 63.4715 40.7384 62.0844 39.8182 61.8806C39.6601 61.8519 39.547 61.8888 39.5519 62.0573C39.5732 62.8141 39.2561 63.672 40.2992 64.2727ZM27.1471 75.1608C27.6142 74.9381 28.5122 75.4385 28.5065 74.8542C28.4999 74.1237 27.6035 74.5387 27.116 74.505C26.6842 74.4754 25.8345 74.2388 25.8517 74.777C25.8746 75.4927 26.7194 74.9118 27.1463 75.1599L27.1471 75.1608ZM23.473 75.1583C23.8786 74.9553 24.6889 75.4377 24.6807 74.8C24.6734 74.2585 23.8532 74.528 23.4156 74.5412C22.9526 74.5551 22.0915 74.1993 22.0988 74.8386C22.1054 75.4015 22.9952 74.9693 23.473 75.1583ZM43.5768 103.374C42.3788 102.949 42.2248 104.614 43.0688 104.54C43.8275 104.642 44.5183 103.119 43.5768 103.374ZM39.928 68.9196C40.2017 70.1481 41.3816 70.5697 42.1175 71.3865C41.516 70.4497 40.8318 69.5869 39.928 68.9196ZM3.52725 103.724C2.28423 103.522 2.621 104.839 3.52561 104.945C4.23848 105.081 4.13114 103.54 3.52725 103.724ZM5.12917 64.4305C5.61998 64.0426 5.83057 63.5956 5.69209 63.0368C5.63064 62.7878 5.77403 62.3326 5.36515 62.3309C4.86368 62.3276 5.00052 62.8018 4.9997 63.0993C4.99806 63.5118 4.90055 63.9424 5.12835 64.4313L5.12917 64.4305ZM2.88648 71.6067C2.9463 71.6034 3.00611 71.6002 3.06675 71.5969V68.5909C3.00693 68.5909 2.94712 68.5909 2.88648 68.5909V71.6059V71.6067ZM20.0274 47.9275C20.982 46.0186 21.1295 48.0318 21.8579 47.8667C22.6216 47.6185 19.8947 45.1147 20.0274 47.9275ZM15.8034 35.2538C15.6551 34.4362 14.4662 35.0927 14.4375 35.6786C14.4572 36.4955 15.7207 35.7707 15.8034 35.2538ZM14.4465 34.4058C14.8882 33.4945 14.8087 32.5815 14.4465 31.6669V34.4058ZM13.9311 38.9245C14.4399 38.3994 14.9693 37.1997 14.063 37.1504C13.4534 37.1381 13.9934 38.397 13.9311 38.9245ZM31.585 36.1413C31.027 35.9745 30.4435 36.1725 29.9355 35.7756C29.779 35.6532 29.4242 35.8192 29.3341 36.1265C29.2841 36.2958 29.2997 36.5119 29.525 36.4675C30.2084 36.3344 30.9491 36.6499 31.5858 36.1413H31.585ZM3.46907 73.4721C3.22899 73.2329 3.70424 72.5747 3.14459 72.564C2.57675 72.5525 2.86927 73.1845 2.84961 73.5181C2.83322 73.8049 2.58494 74.3678 3.17573 74.3415C3.65835 74.3201 3.37156 73.8221 3.46825 73.4721H3.46907ZM21.9612 34.6597C21.2786 34.6942 21.018 35.7962 21.8161 35.7855C22.4831 35.6392 22.865 34.8257 21.9612 34.6597ZM18.5304 46.8814C18.2403 46.8412 17.7732 46.4648 17.7233 46.9866C17.6495 47.7648 18.5017 47.2339 18.8532 47.593C19.0941 47.8396 19.2883 47.2972 19.2777 47.1296C19.2416 46.5519 18.804 46.9069 18.5304 46.8814ZM31.8881 46.7212C31.8939 46.1657 30.6574 46.3284 30.3747 46.662C29.9732 46.8872 30.2674 47.5109 30.659 47.2454C30.9442 47.04 31.1195 46.6275 31.5669 47.077C31.7005 47.2109 31.8316 46.8765 31.8881 46.7212ZM43.1442 73.1245C43.0426 72.8377 43.3105 72.2978 42.927 72.283C42.3158 72.26 42.5681 72.8632 42.5591 73.2042C42.5517 73.4754 42.3436 74.0021 42.8746 73.9553C43.3416 73.9142 43.0458 73.4121 43.145 73.1245H43.1442ZM32.061 39.0379C31.9013 38.4989 32.288 36.9877 31.6415 36.9449C31.0106 37.2695 31.5907 38.6385 32.061 39.0379ZM3.74849 71.7489C4.34419 71.1211 5.22667 70.7324 5.43972 69.7964C4.70144 70.301 4.11803 70.937 3.74849 71.7489ZM16.5138 47.2093C16.2959 46.8395 15.9485 46.7047 15.5379 46.6965C14.4113 46.7467 16.3852 48.3852 16.5138 47.2093ZM7.90282 94.9425C8.38025 94.5064 8.53976 93.9953 8.38134 93.4091C7.79711 93.7542 7.69469 94.2522 7.90282 94.9425ZM26.4392 36.5563C26.603 36.3541 27.0726 36.719 27.098 36.2366C27.1176 35.5332 25.918 35.5472 25.8385 36.2054C25.7656 36.6688 26.1893 36.433 26.4392 36.5554V36.5563ZM23.8597 35.6211C24.5431 35.5085 24.8348 34.7756 23.9998 34.6424C23.2935 34.557 23.1173 35.4987 23.8597 35.6211ZM25.9221 46.7187C26.5391 47.6448 26.626 47.6358 27.3634 46.3991C26.8013 46.6932 26.3728 46.6719 25.9221 46.7187ZM31.2613 31.4056C31.2425 32.2939 31.0147 33.1855 31.3318 34.0557C31.5473 33.1641 31.3367 32.2832 31.2613 31.4056ZM28.2787 36.5357C28.3852 36.3566 28.8285 36.7099 28.7794 36.1988C28.7474 35.8726 28.4655 35.7567 28.2197 35.7518C27.9174 35.7452 27.5929 35.9211 27.6043 36.258C27.6183 36.6639 28.0099 36.4272 28.2787 36.5357ZM28.6056 35.1067C28.6417 35.6047 29.5865 35.608 29.5783 35.1001C29.5996 34.3902 28.6835 34.446 28.6056 35.1067ZM30.6107 34.5027C30.5419 34.7082 30.1887 34.7583 30.3141 35.05C30.4501 35.3656 30.7385 35.5603 31.0843 35.5661C31.671 35.3877 31.0532 34.6137 30.6107 34.5027ZM23.6745 48.4493C24.2743 48.5947 24.7569 48.621 25.2814 48.4493C24.7627 47.5996 24.271 47.7911 23.6745 48.4493ZM42.2338 110.703C41.3292 110.565 41.0727 111.454 41.8143 111.526C42.4002 111.647 42.4518 110.962 42.2338 110.703ZM28.155 48.4435C27.3675 47.9924 26.4506 48.0138 26.1647 48.4435H28.155ZM19.8127 48.6235C20.4871 48.7599 21.9956 48.7517 21.0615 48.0844C20.5281 47.7237 20.3453 48.2463 19.8127 48.6235Z" fill="#2B2B2B"/>
<path d="M18.9886 177.718C18.9886 180.084 18.9943 182.45 18.9804 184.815C18.9788 185.071 19.1467 185.526 18.692 185.51C18.3814 185.499 18.4503 185.087 18.4453 184.834C18.3552 180.003 18.2684 175.172 18.1946 170.34C18.1905 170.088 18.0307 169.636 18.4994 169.659C18.8346 169.675 18.7583 170.07 18.7592 170.322C18.7657 172.788 18.7633 175.253 18.7633 177.719C18.8387 177.719 18.914 177.719 18.9894 177.719L18.9886 177.718Z" fill="#2B2B2B"/>
<path d="M14.976 177.566C14.976 175.232 14.9687 172.897 14.985 170.563C14.9875 170.264 14.7859 169.743 15.2071 169.713C15.6578 169.68 15.5168 170.211 15.5226 170.507C15.6127 175.21 15.6881 179.912 15.7668 184.615C15.7241 184.919 15.9077 185.509 15.5078 185.586C15.1768 185.6 15.2055 185.294 15.1989 185.072C15.1596 182.571 15.1907 180.068 15.1817 177.566C15.1137 177.566 15.0449 177.566 14.9769 177.566H14.976Z" fill="#2B2B2B"/>
<path d="M29.6891 185.54C29.3048 185.279 29.44 184.874 29.4318 184.534C29.3253 179.906 29.2327 175.278 29.1376 170.649C29.1761 170.372 28.9844 169.84 29.3924 169.806C29.7899 169.906 29.6145 170.559 29.685 170.878C29.7792 175.473 29.8743 180.068 29.9554 184.664C29.9603 184.964 30.1127 185.347 29.6899 185.54H29.6891Z" fill="#2B2B2B"/>
<path d="M32.9167 177.467C32.9167 179.631 32.9175 181.795 32.915 183.959C32.8896 184.344 33.0158 184.784 32.6315 185.025C31.8129 180.562 32.4529 175.516 32.135 170.863C32.189 170.563 31.967 169.967 32.3521 169.881C32.7511 169.85 32.661 170.244 32.6651 170.473C32.7036 172.804 32.7454 175.136 32.7544 177.467C32.8077 177.467 32.8618 177.467 32.915 177.467H32.9167Z" fill="#2B2B2B"/>
<path d="M22.2211 177.621C22.2211 180.018 22.2261 182.415 22.2138 184.812C22.2121 185.079 22.3621 185.54 21.995 185.56C21.5705 185.584 21.7254 185.107 21.7188 184.85C21.6049 179.99 21.5042 175.13 21.4091 170.269C21.4034 169.991 21.2911 169.512 21.6582 169.518C22.104 169.526 21.9581 170.03 21.9597 170.331C21.9729 172.761 21.9671 175.191 21.9671 177.621C22.0523 177.621 22.1367 177.621 22.222 177.621H22.2211Z" fill="#2B2B2B"/>
<path d="M26.7114 177.445C26.7114 179.708 26.7114 181.969 26.7106 184.231C26.6835 184.614 26.8294 185.059 26.427 185.284C25.6068 180.649 26.123 175.456 25.7576 170.639C25.8043 170.338 25.5888 169.741 25.9837 169.664C26.3746 169.641 26.2927 170.03 26.3009 170.262C26.3738 172.656 26.4942 175.05 26.5049 177.445C26.5737 177.445 26.6417 177.445 26.7106 177.445H26.7114Z" fill="#2B2B2B"/>
<path d="M40.5387 55.3186C40.3248 55.0203 40.0618 54.8494 39.6808 54.9899C39.3686 55.5832 38.5475 55.2751 38.7221 54.6193C38.7663 54.2561 39.0588 54.3366 39.3129 54.266C40.1109 54.0449 39.557 53.3884 39.6545 52.9397C39.7135 52.6693 39.3071 52.2034 39.8438 52.1557C40.3551 52.1106 40.1355 52.5847 40.165 52.8961C40.2183 53.4516 39.8045 54.2988 40.9648 54.2709C41.2688 54.2635 41.2147 54.6842 41.1893 54.9439C41.1483 55.3638 40.8681 55.3901 40.5379 55.3178L40.5387 55.3186Z" fill="#2B2B2B"/>
<path d="M5.58576 53.8633C5.61362 54.3777 5.3891 54.999 6.28388 54.9373C6.67801 54.9488 6.66982 55.8725 6.32485 55.9974C5.85124 56.2045 5.61607 54.5478 4.75571 55.5947C4.2485 56.2801 3.60692 54.9406 4.37141 54.925C5.51283 55.2447 5.05888 54.0096 5.02283 53.4705C4.85568 52.7359 5.89795 52.6159 5.58658 53.8625L5.58576 53.8633Z" fill="#2B2B2B"/>
<path d="M6.67804 174.583V169.735C7.23851 170.416 7.31225 173.723 6.67804 174.583Z" fill="#2B2B2B"/>
<path d="M10.5235 172.205C10.3973 172.849 10.8184 174.2 10.2817 174.574C9.65982 174.654 10.0892 170.858 9.94497 170.194C9.94415 170.006 9.92612 169.742 10.2039 169.756C10.7119 169.937 10.326 171.661 10.4391 172.204C10.4669 172.204 10.4956 172.204 10.5235 172.204V172.205Z" fill="#2B2B2B"/>
<path d="M23.7796 170.667C23.6207 171.096 24.0377 171.879 23.4461 171.908C22.9815 171.93 23.1847 171.126 23.1987 170.709C23.2134 170.237 22.8685 169.4 23.492 169.373C23.9877 169.351 23.619 170.217 23.7804 170.668L23.7796 170.667Z" fill="#2B2B2B"/>
<path d="M37.0743 171.361C36.6252 170.651 36.776 169.88 36.8039 169.126C37.5495 168.347 37.3692 171.027 37.0743 171.361Z" fill="#2B2B2B"/>
<path d="M39.9389 171.688C39.5677 170.891 39.5726 170.088 39.8889 169.278C40.3027 170.065 40.1282 170.877 39.9389 171.688Z" fill="#2B2B2B"/>
<path d="M13.3061 171.728C12.6768 171.559 12.8915 170.383 13.0677 169.88C13.6961 169.856 13.4528 171.288 13.3061 171.728Z" fill="#2B2B2B"/>
<path d="M29.2548 137.961C28.8819 137.632 28.9893 137.277 28.9885 136.961C28.968 131.929 28.9516 126.898 28.7697 121.869C28.8164 121.565 28.5706 120.972 29.036 120.944C29.2703 120.949 29.2884 121.216 29.3105 121.415C29.417 126.577 29.4563 131.744 29.5317 136.907C29.5358 137.255 29.621 137.645 29.2548 137.961Z" fill="#2B2B2B"/>
<path d="M15.1415 129.765C15.1415 132.362 15.1481 134.959 15.1325 137.556C15.1309 137.846 15.3021 138.352 14.822 138.343C14.4491 138.336 14.5835 137.861 14.5802 137.588C14.5196 132.394 14.4491 127.197 14.4057 122.006C14.4713 121.716 14.2476 121.207 14.7244 121.217C15.0948 121.225 14.9645 121.699 14.9653 121.973C14.9752 124.571 14.9711 127.167 14.9711 129.765H15.1407H15.1415Z" fill="#2B2B2B"/>
<path d="M18.4412 129.77C18.2741 130.347 18.8919 139.614 17.9635 137.949C17.7808 132.62 17.7308 127.281 17.594 121.949C17.6145 121.671 17.4645 121.124 17.866 121.109C18.2454 121.16 18.1315 121.687 18.1577 121.968C18.1585 124.568 18.1577 127.169 18.1577 129.769C18.2519 129.769 18.3462 129.769 18.4404 129.769L18.4412 129.77Z" fill="#2B2B2B"/>
<path d="M21.2944 121.217C21.709 121.409 21.5656 121.791 21.5697 122.092C21.6311 127.16 21.6811 132.227 21.7327 137.294C21.6803 137.598 21.8982 138.193 21.4173 138.192C20.8625 138.041 21.296 134.657 21.1518 133.915C21.1198 129.98 21.0829 126.047 21.0567 122.113C21.0543 121.805 20.8994 121.437 21.2944 121.218V121.217Z" fill="#2B2B2B"/>
<path d="M25.5143 120.883C26.1722 126.546 25.9682 132.218 25.9895 137.887C25.8232 137.889 25.656 137.892 25.4897 137.894C25.5216 132.223 25.5782 126.551 25.5143 120.883Z" fill="#2B2B2B"/>
<path d="M32.1309 138.252C31.4451 133.021 32.1432 127.468 31.9351 122.118C31.9973 121.806 31.7474 120.984 32.23 121.016C32.7626 121.22 32.289 124.172 32.4201 124.892C32.4046 128.951 32.398 133.01 32.3775 137.069C32.3759 137.435 32.4857 137.843 32.1301 138.253L32.1309 138.252Z" fill="#2B2B2B"/>
<path d="M14.7458 118.699C13.7567 118.255 14.3508 115.932 14.2082 114.963C15.0252 113.047 14.6892 118.341 14.7458 118.699Z" fill="#2B2B2B"/>
<path d="M18.1536 116.587C18.0364 117.095 18.4519 118.345 17.8619 118.511C17.2719 118.187 17.7308 115.722 17.5891 114.954C17.5891 114.789 17.6235 114.592 17.83 114.584C18.4732 114.729 18.0299 116.061 18.1536 116.586V116.587Z" fill="#2B2B2B"/>
<path d="M28.7943 114.48C28.6599 115.232 29.0933 118.538 28.5681 118.72C28.0199 118.513 28.4722 115.247 28.3321 114.47C28.4862 114.473 28.641 114.476 28.7951 114.48H28.7943Z" fill="#2B2B2B"/>
<path d="M23.2945 121.104C22.9618 120.441 22.7504 118.663 23.2683 118.177C23.8247 118.799 23.56 120.303 23.2945 121.104Z" fill="#2B2B2B"/>
<path d="M31.7753 118.452V114.483C31.8629 114.482 31.9514 114.481 32.0391 114.48C32.3554 115.797 32.1325 117.126 32.1628 118.45C32.0334 118.45 31.9047 118.451 31.7753 118.452Z" fill="#2B2B2B"/>
<path d="M24.9718 118.51C25.1095 117.679 24.6727 114.76 25.1906 114.415C25.7117 114.613 25.2807 117.763 25.4143 118.509C25.2668 118.509 25.1193 118.51 24.971 118.51H24.9718Z" fill="#2B2B2B"/>
<path d="M12.7686 119.882C12.6891 120.192 12.9111 120.715 12.4572 120.701C12.0295 120.688 12.2015 120.171 12.2032 119.874C12.2048 119.574 12.0385 119.036 12.4367 119.031C12.9709 119.022 12.6268 119.605 12.7686 119.882Z" fill="#2B2B2B"/>
<path d="M21.1371 153.811C21.1371 151.216 21.1322 148.619 21.1444 146.023C21.1461 145.755 20.9929 145.281 21.3501 145.265C21.8139 145.245 21.6787 145.751 21.6811 146.044C21.7156 151.304 21.7385 156.562 21.7549 161.821C21.7557 162.095 21.8762 162.555 21.4771 162.547C21.1043 162.539 21.2067 162.076 21.2059 161.8C21.1961 159.137 21.2002 156.474 21.2002 153.811H21.1371Z" fill="#2B2B2B"/>
<path d="M31.9359 145.258C32.339 145.45 32.2333 145.786 32.239 146.063C32.0694 151.366 32.9822 157.114 32.2407 162.208C31.958 162.02 31.9334 161.751 31.9514 161.439C32.0719 156.084 31.4073 150.487 31.935 145.259L31.9359 145.258Z" fill="#2B2B2B"/>
<path d="M14.7621 145.542C15.13 145.81 15.0358 146.132 15.0415 146.41C14.9629 151.676 15.6766 157.333 15.1899 162.415C14.7064 162.441 14.8695 161.745 14.8121 161.434C14.9293 156.167 14.1845 150.698 14.7613 145.542H14.7621Z" fill="#2B2B2B"/>
<path d="M18.6191 153.854C18.6191 156.419 18.6265 158.984 18.6084 161.549C18.6068 161.832 18.8288 162.341 18.3552 162.354C17.9939 162.365 18.1299 161.877 18.125 161.611C18.0176 156.449 17.9226 151.287 17.8267 146.125C17.8661 145.827 17.6915 145.221 18.1192 145.191C18.3216 145.205 18.3552 145.394 18.3675 145.562C18.4101 148.325 18.37 151.091 18.3839 153.854C18.4626 153.854 18.5404 153.854 18.6191 153.854Z" fill="#2B2B2B"/>
<path d="M29.5276 153.983C29.5276 156.414 29.5317 158.845 29.5219 161.274C29.5211 161.551 29.6432 162.007 29.2572 162.025C28.8377 162.044 28.968 161.584 28.9647 161.315C28.9057 156.521 28.8508 151.726 28.8164 146.932C28.8139 146.615 28.6099 146.045 29.1032 146.039C29.4809 146.034 29.3367 146.586 29.3384 146.892C29.3523 149.256 29.3457 151.619 29.3457 153.983C29.4064 153.983 29.467 153.983 29.5268 153.983H29.5276Z" fill="#2B2B2B"/>
<path d="M25.7806 146.158C26.4492 150.995 25.8748 156.126 26.1141 161.073C26.0657 161.404 26.2706 162.042 25.8502 162.143C25.4602 162.134 25.5814 161.576 25.5536 161.305C25.7756 156.298 25.0734 151.023 25.7814 146.158H25.7806Z" fill="#2B2B2B"/>
<path d="M23.5617 145.264C23.728 146.556 23.6624 147.627 23.5969 148.843C23.0045 148.152 22.9758 146.245 23.5617 145.264Z" fill="#2B2B2B"/>
<path d="M34.0524 146.69C34.0016 147.102 34.2335 147.663 33.7345 147.694C33.5247 147.664 33.546 147.45 33.5304 147.293C33.5149 147.127 33.4903 146.954 33.5231 146.796C33.5976 146.443 33.2953 145.795 33.7787 145.797C34.2998 145.798 33.8869 146.473 34.0516 146.691L34.0524 146.69Z" fill="#2B2B2B"/>
<path d="M12.9898 146.016C13.3856 146.679 13.234 147.373 13.243 148.054C12.6211 149.281 12.6465 146.334 12.9898 146.016Z" fill="#2B2B2B"/>
<path d="M26.255 58.5538C25.9936 58.9039 25.5995 59.1726 25.5438 59.7092C26.4811 59.2391 26.7188 59.3821 26.763 60.3838C26.7171 60.8818 26.9736 61.554 26.3402 61.7906C25.0202 61.9673 24.685 59.9721 25.1259 59.1216C25.4405 58.5768 26.1599 58.2703 26.019 57.4576C26.0231 57.1002 26.7745 57.2201 26.6909 57.5957C26.6376 58.2531 27.1031 58.6089 27.4759 59.0238C27.6521 59.3172 27.97 61.3107 27.3333 61.2483C26.7909 60.6517 27.6734 59.401 26.255 58.5538Z" fill="#2B2B2B"/>
<path d="M30.1488 56.5931C29.7891 56.1157 29.9824 55.5832 29.9128 55.0787C29.8243 54.0564 28.8304 53.3588 28.5452 54.7549C29.154 54.5306 29.6596 54.5577 29.6162 55.317C29.585 55.8692 30.0586 56.7509 29.1098 56.8438C28.6722 56.8865 27.8577 56.7484 27.9258 55.7607C27.9782 54.9916 27.7488 54.2175 28.5657 53.694C28.7861 53.5527 28.8418 53.2676 28.8017 52.975C28.7607 52.6784 28.8869 52.4286 29.2171 52.4187C29.9874 52.4343 29.1778 53.4697 29.9218 53.8502C30.9805 54.6933 30.3028 55.6613 30.1496 56.5931H30.1488Z" fill="#2B2B2B"/>
<path d="M34.0974 61.5326C33.2444 61.0519 34.3219 59.2621 33.0871 59.009C32.6389 58.9992 32.3996 59.5251 32.3136 60.0075C32.2284 60.4816 32.6913 61.3173 32.0219 61.3428C31.5196 61.3617 31.9088 60.4126 31.6737 59.9467C31.4434 59.0501 33.0658 58.8957 32.7389 57.7896C32.7028 57.6129 32.8757 57.5061 33.065 57.4954C33.7779 57.4864 33.0969 58.4889 33.7836 58.811C34.8718 59.627 34.2523 60.5638 34.0974 61.5343V61.5326Z" fill="#2B2B2B"/>
<path d="M13.6298 61.563C13.1226 60.6829 13.8256 59.4446 12.6129 58.8266C11.8689 59.2334 11.9869 59.9803 12.0106 60.7051C12.1737 61.669 11.3084 61.7619 11.4149 60.7437C10.9323 58.9951 12.4302 58.9466 12.2556 57.6803C12.145 57.1955 13.0783 57.17 12.9726 57.668C12.8669 58.327 13.284 58.7116 13.6625 59.1307C14.3893 59.9343 13.6527 60.7429 13.6306 61.5622L13.6298 61.563Z" fill="#2B2B2B"/>
<path d="M20.6372 61.4472C20.2447 61.0379 20.3734 60.5375 20.3472 60.0707C20.325 58.585 18.8755 58.6664 18.9788 60.1636C19.0222 60.6616 19.2221 61.2343 18.6871 61.6411C17.6481 59.5539 19.0697 59.3287 19.3614 57.9482C19.3352 57.6918 19.3975 57.4642 19.7146 57.4724C20.4824 57.4847 19.7375 58.3771 20.2513 58.6458C21.2977 59.4462 20.6938 60.4882 20.6364 61.448L20.6372 61.4472Z" fill="#2B2B2B"/>
<path d="M15.7922 54.6719C15.2759 55.2003 15.9438 56.0393 15.226 56.686C14.4172 53.2963 15.7954 54.7779 16.0077 53.0539C15.9601 52.8008 16.0536 52.5527 16.3346 52.5354C17.095 52.5699 16.4944 53.6916 17.1335 53.9603C18.1905 54.7335 17.4228 55.6383 17.5113 56.7008C16.7435 55.9925 17.2474 55.4509 17.0122 54.7557C16.7271 53.8888 16.0003 53.6069 15.7659 54.6966L15.7922 54.6711V54.6719Z" fill="#2B2B2B"/>
<path d="M23.7919 55.6054C23.705 55.3638 23.6485 55.2751 23.6452 55.1839C23.5895 53.3875 21.8679 53.5511 21.9745 55.3227C22.0056 55.7155 22.1261 56.1667 21.6221 56.6811C20.7732 53.3612 22.5554 54.5174 22.4669 52.6217C22.4014 52.399 22.5734 52.1541 22.8701 52.187C23.0987 52.2116 23.2216 52.4097 23.1757 52.6192C22.8332 53.9118 25.116 54.381 23.7911 55.6054H23.7919Z" fill="#2B2B2B"/>
<path d="M23.4166 55.8199C23.6821 57.2464 21.968 57.2399 22.1548 55.8643C22.1646 55.3556 22.022 54.6185 22.7324 54.5766C23.5936 54.5265 23.3118 55.3482 23.4158 55.8207L23.4166 55.8199Z" fill="#2B2B2B"/>
<path d="M15.7659 54.6974C17.1032 54.4681 16.9582 55.7796 16.7402 56.7197C16.6566 56.9744 16.3788 56.967 16.1453 56.9309C15.3374 56.6498 15.9798 55.2176 15.7659 54.6974Z" fill="#2B2B2B"/>
<path d="M19.0746 60.7248C19.2237 60.337 18.8517 59.6139 19.549 59.613C20.3283 59.613 20.1152 60.3707 20.1316 60.853C20.1464 61.2812 20.2447 61.9295 19.5359 61.8589C18.8378 61.7898 19.1795 61.1357 19.0738 60.7248H19.0746Z" fill="#2B2B2B"/>
<path d="M13.1881 60.9204C13.1479 61.3469 13.2422 61.8465 12.6817 61.8876C12.077 61.932 12.1745 61.4143 12.1327 61.0346C12.2605 60.5556 11.8115 59.6541 12.5613 59.618C13.3405 59.5892 13.0504 60.4611 13.1881 60.9204Z" fill="#2B2B2B"/>
<path d="M33.5337 60.7027C33.4386 61.0848 33.6386 61.6625 32.9921 61.6887C32.4685 61.7101 32.4775 61.2425 32.5176 60.8892C32.5693 60.4364 32.3513 59.7223 33.0371 59.6837C33.6427 59.6492 33.3985 60.3279 33.5337 60.7027Z" fill="#2B2B2B"/>
<path d="M25.2103 107.933C25.2611 107.162 24.8842 105.778 25.9854 105.655C26.4467 105.635 26.7155 105.951 26.8065 106.374C27.0236 107.389 26.9794 108.419 26.863 109.439C26.8155 109.859 26.5049 110.167 26.0436 110.164C24.9317 110.097 25.2463 108.704 25.1521 107.935C25.1718 107.935 25.1914 107.935 25.2103 107.935V107.933Z" fill="#2B2B2B"/>
<path d="M19.8088 108.257C19.7981 109.024 20.0546 110.336 18.9345 110.341C18.4789 110.353 18.1405 110.084 18.1045 109.641C18.2175 108.561 17.2965 106.129 18.8919 105.971C20.0841 105.999 19.7596 107.447 19.7842 108.257C19.7924 108.257 19.8006 108.257 19.8088 108.257Z" fill="#2B2B2B"/>
<path d="M12.8833 108.075C12.7784 108.918 13.1176 110.135 12.0303 110.231C11.5534 110.254 11.2527 109.935 11.2224 109.515C11.1527 108.557 11.1462 107.594 11.1568 106.634C11.1618 106.192 11.4428 105.859 11.8853 105.817C13.0324 105.768 12.785 107.39 12.8833 108.075Z" fill="#2B2B2B"/>
<path d="M34.2261 108.047C34.1974 108.865 34.4916 110.089 33.3862 110.125C32.9249 110.139 32.6111 109.839 32.584 109.404C32.525 108.447 32.5119 107.485 32.5357 106.527C32.5463 106.105 32.802 105.75 33.2633 105.718C34.3998 105.745 34.0974 107.333 34.2261 108.047Z" fill="#2B2B2B"/>
<path d="M16.3608 108.243C16.3297 108.962 16.6312 110.245 15.5799 110.286C15.176 110.298 14.8351 110.044 14.8081 109.653C14.7392 108.666 14.713 107.672 14.7491 106.684C14.7646 106.264 15.0973 105.954 15.5562 105.963C16.6214 106.087 16.2797 107.483 16.4149 108.24C16.3969 108.24 16.3789 108.242 16.3616 108.243H16.3608Z" fill="#2B2B2B"/>
<path d="M23.0995 108.255C22.9815 108.815 23.3273 110.192 22.43 110.314C22.0646 110.338 21.7598 110.102 21.6967 109.761C21.491 108.658 21.4492 107.536 21.5312 106.417C21.5566 106.067 21.7942 105.783 22.1809 105.787C23.3289 105.95 22.9118 107.341 23.0995 108.255Z" fill="#2B2B2B"/>
<path d="M30.5519 107.833C30.5003 108.58 30.8518 109.911 29.7726 109.999C29.222 110.032 29.0065 109.63 28.9885 109.166C29.1352 108.175 28.4116 105.906 29.8153 105.736C30.8362 105.828 30.506 107.119 30.5609 107.833H30.5519Z" fill="#2B2B2B"/>
<path d="M9.41149 108.716C9.29924 109.254 9.67534 110.765 9.19353 110.987C8.59865 110.894 8.97967 107.497 8.82235 106.772C8.81907 106.605 8.87069 106.402 9.06571 106.398C9.68845 106.559 9.24434 108.159 9.3697 108.717C9.38363 108.717 9.39674 108.717 9.41067 108.717L9.41149 108.716Z" fill="#2B2B2B"/>
<path d="M36.3876 110.502C36.0082 109.663 36.1139 108.774 36.1484 107.916C36.168 107.414 35.7804 106.566 36.4704 106.491C36.8506 106.45 36.667 107.406 36.6678 107.903C36.6678 108.767 36.8465 109.664 36.3884 110.502H36.3876Z" fill="#2B2B2B"/>
<path d="M39.7611 108.174C39.8799 107.639 39.4767 106.589 40.0134 106.312C40.2789 106.275 40.3322 106.492 40.3355 106.701C40.2158 107.439 40.6837 109.972 40.1486 110.271C39.5382 110.212 39.9528 108.659 39.8397 108.174C39.8135 108.174 39.7873 108.174 39.7611 108.174Z" fill="#2B2B2B"/>
<path d="M7.50558 108.592C7.39005 109.091 7.80302 110.597 7.21716 110.701C6.67144 110.359 7.0713 107.648 6.92955 106.849C6.92873 106.666 6.92627 106.398 7.20732 106.43C7.69404 106.665 7.3245 108.063 7.43266 108.592C7.45724 108.592 7.48182 108.592 7.50558 108.592Z" fill="#2B2B2B"/>
<path d="M5.30883 110.827C5.4514 109.855 4.99418 107.149 5.54236 106.58C6.12167 106.589 5.66281 110.143 5.80129 110.825C5.63741 110.825 5.47271 110.826 5.30883 110.827Z" fill="#2B2B2B"/>
<path d="M38.5557 108.784C38.4197 109.182 38.9654 110.108 38.2993 110.234C37.9215 110.305 38.1337 109.216 38.0625 108.654C38.1034 108.219 37.7175 106.549 38.314 106.564C38.8245 106.743 38.4459 108.133 38.5557 108.784Z" fill="#2B2B2B"/>
<path d="M19.3016 30.369C19.0214 30.5161 19.0435 31.1644 18.5986 30.8719C18.2544 30.6459 18.6363 30.3271 18.787 30.1151C19.3614 28.5809 19.8449 29.6721 20.1063 30.6968C19.7638 31.3436 19.5778 30.6492 19.3008 30.369H19.3016Z" fill="#2B2B2B"/>
<path d="M22.8955 30.2958C22.5382 30.3986 22.5874 31.1011 22.1539 30.7881C21.8229 30.5489 22.185 30.1824 22.3424 29.9293C22.5013 29.673 22.5005 29.0197 22.9741 29.3122C23.2978 29.4601 23.8959 30.6525 23.3748 30.8587C23.0307 30.8472 23.0446 30.5054 22.8963 30.2958H22.8955Z" fill="#2B2B2B"/>
<path d="M23.7288 17.6706C23.6206 17.9829 23.3551 18.0355 23.1519 17.7824C23.0339 17.6715 23.0979 17.2359 22.7504 17.5096C22.5767 17.646 22.3801 18.1267 22.2359 17.7816C22.0285 17.2869 22.4391 16.7626 22.7988 16.4125C23.2216 15.9902 23.5428 17.3962 23.7288 17.6706Z" fill="#2B2B2B"/>
<path d="M22.0605 21.9774C22.3538 21.4868 22.403 20.7374 22.8496 20.7029C23.4944 20.6536 23.2888 21.5295 23.6239 21.9092C23.723 22.0218 23.4674 22.3135 23.4084 22.2379C23.0495 21.7744 22.5005 22.2116 22.0605 21.9782V21.9774Z" fill="#2B2B2B"/>
<path d="M25.9862 30.7675C25.134 30.7856 26.4664 27.921 26.9596 29.9072C27.0776 30.1159 27.3775 30.3788 27.1202 30.604C26.813 30.8727 26.7376 30.4347 26.545 30.3213C26.0927 30.0551 26.3049 30.7996 25.9854 30.7667L25.9862 30.7675Z" fill="#2B2B2B"/>
<path d="M21.5631 25.9102C21.5328 26.1156 21.2919 26.2841 21.2862 26.2479C21.1125 25.206 20.121 26.9201 20.0923 25.911C20.0808 25.51 20.3619 24.8042 20.8904 24.828C21.3607 24.8485 21.346 25.5486 21.5631 25.911V25.9102Z" fill="#2B2B2B"/>
<path d="M25.5299 25.6884C25.5299 26.0129 25.2373 26.2151 25.2005 26.1181C24.9571 25.4821 24.2049 26.6407 24.168 25.8322C24.15 25.4229 24.3548 24.7729 24.8391 24.7622C25.2652 24.7532 25.2603 25.4435 25.5307 25.6884H25.5299Z" fill="#2B2B2B"/>
<path d="M35.8427 90.1028C35.8427 94.1392 35.8214 98.1764 35.8599 102.213C35.8681 103.064 35.5854 103.263 34.7726 103.257C26.8884 103.202 19.0042 103.175 11.1191 103.178C10.3333 103.178 10.0949 102.949 10.0933 102.173C10.072 94.0653 10.0269 85.9588 9.9679 77.8515C9.9638 77.2443 10.1523 77.0397 10.7586 77.0356C18.8755 76.9854 26.9925 76.9246 35.1086 76.8375C35.8649 76.8293 35.9714 77.1531 35.9681 77.7907C35.9484 81.8945 35.9583 85.9983 35.9583 90.1012C35.9198 90.1012 35.8813 90.1012 35.8419 90.1012L35.8427 90.1028ZM35.3364 90.0552C35.3839 90.0552 35.4314 90.0552 35.4797 90.0552C35.4797 86.1199 35.465 82.1837 35.4937 78.2484C35.4986 77.5697 35.3396 77.324 34.6153 77.3314C26.8335 77.4135 19.0509 77.4686 11.2683 77.5089C10.6726 77.5122 10.4743 77.6543 10.4792 78.2903C10.539 86.1281 10.5767 93.9667 10.5931 101.805C10.5947 102.495 10.7816 102.704 11.4887 102.703C19.105 102.694 26.7221 102.71 34.3383 102.749C35.0922 102.753 35.3659 102.585 35.356 101.762C35.311 97.8609 35.3355 93.9576 35.3355 90.0552H35.3364Z" fill="#2B2B2B"/>
<path d="M40.9238 86.5077C40.274 86.562 40.1863 87.7066 39.5898 87.1684C39.3833 86.9096 39.3153 86.5266 39.6586 86.4034C40.1978 86.2103 40.1126 85.8339 40.1126 85.4403C40.1126 85.2751 40.0855 85.0516 40.1765 84.9538C41.4449 83.5938 40.7042 81.9331 40.8607 80.4121C41.0368 79.8566 40.5436 78.6215 41.0786 78.3396C41.9218 85.5405 41.2245 93.7407 41.5481 101.267C41.5506 101.619 41.6588 101.998 41.2171 102.573C40.8451 99.9169 41.1327 97.8773 41.0524 95.2593C40.4084 95.4302 40.2273 96.9611 39.3489 95.3028C39.3489 97.5807 39.3563 99.469 39.3407 101.357C39.3382 101.623 39.5046 102.1 39.1293 102.11C38.6614 102.122 38.8196 101.612 38.8171 101.323C38.7557 93.9239 38.7057 86.5258 38.6647 79.1269C38.6631 78.8656 38.5197 78.4005 38.9163 78.4013C39.3153 78.4021 39.1662 78.868 39.1686 79.1318C39.2137 84.0984 39.2424 89.065 39.2874 94.0308C39.2129 94.5386 39.2555 95.0957 40.0331 94.5936C39.9847 93.6881 40.7828 93.0192 40.859 92.2747C41.0516 90.3789 40.9229 88.4503 40.9229 86.5077H40.9238Z" fill="#2B2B2B"/>
<path d="M6.53705 130.198C6.99018 132.137 6.63948 134.228 6.76976 136.223C6.77058 136.41 6.81319 136.655 6.55918 136.72C5.84467 136.901 6.40923 131.092 6.23879 130.223C6.33794 130.214 6.43791 130.206 6.53705 130.198Z" fill="#2B2B2B"/>
<path d="M6.41662 116.591C6.41662 116.89 6.45103 117.195 6.40761 117.487C6.36008 117.809 6.62884 118.369 6.13147 118.385C5.77995 118.396 5.88565 117.841 5.87582 117.528C5.96759 117.019 5.56527 114.808 6.17162 114.821C6.64687 114.929 6.31583 116.168 6.40679 116.59H6.41744L6.41662 116.591Z" fill="#2B2B2B"/>
<path d="M31.8646 68.312C31.9555 66.514 35.002 67.0662 34.73 68.5108C33.9114 68.584 33.8663 66.8024 31.8646 68.312Z" fill="#2B2B2B"/>
<path d="M20.7249 68.7582C21.074 66.8493 23.5854 66.7433 24.2041 68.473C22.1638 67.7557 22.8594 67.2478 20.7249 68.7582Z" fill="#2B2B2B"/>
<path d="M31.2418 68.4377C30.2733 67.9841 29.8251 67.2305 28.8295 68.1608C28.705 68.2668 28.5747 68.4106 28.4092 68.2709C28.0494 66.9216 31.463 66.7786 31.2426 68.4385L31.2418 68.4377Z" fill="#2B2B2B"/>
<path d="M13.547 68.3111C12.4441 67.5979 11.5198 67.7236 10.6365 68.9357C10.4964 67.0564 13.0398 66.7244 13.547 68.3111Z" fill="#2B2B2B"/>
<path d="M20.3398 68.7056C19.3696 67.791 18.4454 67.5075 17.4006 68.8313C17.494 66.7918 20.3718 66.9257 20.3398 68.7056Z" fill="#2B2B2B"/>
<path d="M13.9379 68.7253C13.9575 66.8263 16.5894 66.8978 16.9459 68.625C15.8766 67.8756 14.9465 67.4952 13.9379 68.7253Z" fill="#2B2B2B"/>
<path d="M27.7717 68.4771C26.7327 67.657 25.8993 67.4779 25.098 68.3177C25.0111 68.4081 24.8915 68.5314 24.7628 68.4245C24.1942 67.21 27.666 66.5058 27.7717 68.4771Z" fill="#2B2B2B"/>
<path d="M36.6547 116.357C36.1197 115.965 36.2393 115.116 36.4245 114.54C37.0062 114.449 36.826 115.913 36.6547 116.357Z" fill="#2B2B2B"/>
<path d="M9.54344 129.154C9.82204 129.241 9.83269 129.42 9.83597 129.575C9.88595 131.809 9.93184 134.042 9.96953 136.276C10.1359 136.912 9.39595 137.017 9.43774 136.319C9.55246 133.97 9.14604 131.392 9.54344 129.154Z" fill="#2B2B2B"/>
<path d="M9.48037 114.605C9.76142 115.005 10.049 117.306 9.47054 117.329C8.95514 116.915 9.17392 115.233 9.48037 114.605Z" fill="#2B2B2B"/>
<path d="M6.20602 148.481C6.31173 147.97 5.95201 145.905 6.41251 145.818C6.74601 145.77 6.72634 146.102 6.73208 146.31C6.77223 147.865 6.79845 149.421 6.82139 150.976C6.82385 151.131 6.82876 151.341 6.619 151.366C6.01756 151.406 6.45102 149.001 6.32811 148.481C6.28796 148.481 6.24699 148.481 6.20684 148.481H6.20602Z" fill="#2B2B2B"/>
<path d="M6.93287 157.855C6.80586 158.512 7.23031 160.071 6.68705 160.424C6.42402 160.46 6.39534 160.212 6.3937 160.014C6.37977 158.491 6.36994 156.969 6.36584 155.445C6.36584 155.289 6.36994 155.077 6.57315 155.058C7.16885 155.082 6.73293 157.316 6.8583 157.855C6.88288 157.855 6.90828 157.855 6.93287 157.855Z" fill="#2B2B2B"/>
<path d="M37.2414 145.283C37.0808 145.69 37.4455 146.455 36.9637 146.459C36.4704 146.463 36.7072 145.702 36.7072 145.289C36.7072 144.878 36.4474 144.118 36.944 144.117C37.4487 144.116 37.0784 144.88 37.2406 145.283H37.2414Z" fill="#2B2B2B"/>
<path d="M39.3391 132.92C39.4579 132.406 39.0515 131.192 39.5939 130.984C39.7881 130.987 39.8676 131.156 39.87 131.33C39.7307 132.094 40.2338 134.673 39.6218 134.961C39.0457 134.684 39.4816 133.49 39.353 132.92C39.3481 132.92 39.3432 132.92 39.3391 132.92Z" fill="#2B2B2B"/>
<path d="M39.0925 126.657C39.2309 126.291 38.9089 125.64 39.3948 125.638C39.857 125.637 39.666 126.286 39.6628 126.647C39.6587 127.015 39.8299 127.694 39.4301 127.686C38.8253 127.674 39.2752 126.992 39.0925 126.657Z" fill="#2B2B2B"/>
<path d="M39.6439 116.088C39.5882 116.458 39.8307 117.142 39.3243 117.148C39.0646 117.122 39.122 116.85 39.1039 116.664C39.0875 116.499 39.0613 116.325 39.0965 116.168C39.1809 115.791 38.836 115.122 39.3997 115.108C39.793 115.098 39.5636 115.788 39.6447 116.088H39.6439Z" fill="#2B2B2B"/>
<path d="M10.0342 154.169C10.403 156.107 10.1998 158.21 10.3587 160.203C10.3636 160.367 10.3448 160.574 10.1465 160.602C9.44756 160.807 9.98672 155.09 9.82612 154.261C9.89577 154.23 9.96542 154.199 10.0351 154.168L10.0342 154.169Z" fill="#2B2B2B"/>
<path d="M9.91545 145.122C10.1293 146.218 10.0539 147.133 10.0015 148.163C9.44512 147.526 9.39759 146.095 9.91545 145.122Z" fill="#2B2B2B"/>
<path d="M40.0962 156.249C39.9635 156.863 40.4199 159.389 39.8078 159.464C39.5874 159.463 39.5513 159.198 39.5489 158.992C39.5259 157.1 39.5005 155.209 39.4858 153.318C39.4842 153.137 39.4473 152.854 39.7013 152.843C40.288 152.779 39.8537 155.692 39.9791 156.25C40.0184 156.25 40.0577 156.25 40.0971 156.25L40.0962 156.249Z" fill="#2B2B2B"/>
<path d="M40.1356 145.389C40.0577 145.645 40.2708 146.118 39.843 146.098C39.5013 146.081 39.5636 145.622 39.5718 145.336C39.5792 145.063 39.4768 144.603 39.8791 144.63C40.2675 144.656 40.0626 145.119 40.1356 145.389Z" fill="#2B2B2B"/>
<path d="M5.14411 75.4677C4.31324 75.8153 3.4791 75.7692 2.63922 75.5334C3.4578 75.111 4.30177 75.2442 5.14411 75.4677Z" fill="#2B2B2B"/>
<path d="M39.1531 75.3033C43.4369 74.7117 43.8359 75.9508 39.1637 75.6649C39.1605 75.5441 39.1564 75.4241 39.1531 75.3033Z" fill="#2B2B2B"/>
<path d="M6.74194 164.31C7.14672 165.161 7.08526 166.038 6.86649 166.926C6.40107 166.088 6.61329 165.193 6.74194 164.31Z" fill="#2B2B2B"/>
<path d="M6.40433 139.364C6.68784 139.721 7.25978 142.204 6.52068 142.219C6.04789 141.901 6.31993 139.832 6.40433 139.364Z" fill="#2B2B2B"/>
<path d="M17.857 38.7441C18.1143 38.5149 18.0963 38.0728 18.5519 37.8493C18.6682 38.5732 18.3437 39.1049 18.0619 39.6259C17.5276 40.464 17.027 38.3431 17.0114 37.9421C17.6309 37.9241 17.494 38.5708 17.857 38.745V38.7441Z" fill="#2B2B2B"/>
<path d="M37.1595 139.82C36.989 140.195 37.3668 140.914 36.8325 140.91C36.3401 140.907 36.5621 140.192 36.5638 139.796C36.5654 139.434 36.3442 138.762 36.8006 138.765C37.4078 138.767 36.989 139.461 37.1587 139.821L37.1595 139.82Z" fill="#2B2B2B"/>
<path d="M37.2415 165.864C37.0768 165.749 37.0358 165.737 37.0284 165.714C36.3893 163.003 37.9904 163.341 37.2415 165.864Z" fill="#2B2B2B"/>
<path d="M9.97606 141.033C9.91051 141.384 10.176 142.056 9.70156 142.092C9.34841 142.024 9.43116 141.409 9.42789 141.128C9.52458 140.655 9.09849 139.831 9.70156 139.786C10.1612 139.752 9.85971 140.627 9.97688 141.033H9.97606Z" fill="#2B2B2B"/>
<path d="M10.3767 165.05C10.3153 165.438 10.5488 165.956 10.1678 166.118C9.70155 166.129 9.84576 165.443 9.82364 165.137C9.88427 164.744 9.61142 164.036 10.1178 164.044C10.6529 164.051 10.2448 164.758 10.3759 165.05H10.3767Z" fill="#2B2B2B"/>
<path d="M39.7897 138.615C40.478 142.678 38.4254 141.536 39.6865 138.524C39.7209 138.554 39.7553 138.585 39.7897 138.615Z" fill="#2B2B2B"/>
<path d="M40.1601 165.179C40.0176 165.504 40.374 166.084 39.8873 166.1C39.4456 166.114 39.5677 165.529 39.5857 165.201C39.6079 164.81 39.335 164.095 39.7709 164.086C40.4297 164.075 39.9684 164.819 40.1601 165.179Z" fill="#2B2B2B"/>
<path d="M34.7029 90.0034C34.7029 93.5698 34.6775 97.1369 34.7201 100.702C34.7316 101.656 34.5153 102.03 33.4591 102.02C26.4131 101.956 19.3663 101.954 12.3195 101.962C11.5583 101.963 11.292 101.76 11.2895 100.954C11.265 93.721 11.2109 86.488 11.1289 79.2551C11.1191 78.4177 11.2871 78.1145 12.2081 78.1104C19.2868 78.0783 26.3656 77.9699 33.4452 77.9181C35.0004 77.9066 34.8447 77.7274 34.8529 79.3019C34.8717 82.8682 34.8586 86.4354 34.8586 90.0018C34.807 90.0018 34.7554 90.0018 34.7029 90.0018V90.0034ZM13.8297 101.289C12.272 101.131 11.6312 99.5085 13.2643 98.6128C12.2941 98.501 12.2597 97.7721 11.9213 97.2594C11.8492 98.1625 11.8434 99.0425 11.85 99.9218C11.741 101.777 12.2302 101.691 13.8493 101.269C15.8241 101.744 17.8144 101.372 19.8145 101.418C16.1748 100.089 13.4323 97.8181 11.8533 94.0998C11.5845 95.6438 12.1991 96.7704 13.066 97.7425C13.3143 98.0211 13.1782 98.6539 13.7059 98.5939C15.4529 98.3022 15.4504 101.359 13.8288 101.289H13.8297ZM17.3793 99.5323C17.7603 100.284 22.9159 101.967 22.7529 100.776C22.7201 100.503 22.6275 100.325 22.3137 100.413C21.65 100.598 21.7106 100.147 21.695 99.7312C21.6868 99.5027 22.0015 99.1461 21.5811 99.0614C20.4381 98.8322 19.3655 98.3695 18.179 97.9381C18.256 98.4476 18.9337 98.1896 18.7927 98.7015C18.7362 98.9078 18.5928 99.1822 18.4535 99.1272C17.9234 98.916 17.7669 99.5348 17.3621 99.5528C17.2744 99.3918 17.3211 99.1839 17.344 98.9809C17.5473 98.1263 16.3223 98.5906 16.986 97.7089C17.3744 97.2429 17.3932 98.3827 17.7808 97.9472C18.0659 97.6398 17.698 97.5618 17.5432 97.4434C16.9073 96.9594 16.3075 96.4343 15.7978 95.8189C15.5176 95.4803 15.3423 95.2124 14.9539 95.7539C14.6466 96.1821 14.1566 95.7679 13.7477 95.7926C13.5445 95.8049 13.4421 95.4745 13.5634 95.3192C13.8051 95.0111 13.8174 94.4359 14.4229 94.5008C14.5343 94.5123 14.6982 94.5542 14.7277 94.2888C14.1378 93.1852 13.71 91.9731 13.5789 90.6682C13.6805 90.1982 13.0316 90.185 12.8841 90.5794C12.6587 91.0421 13.5593 90.8087 13.3282 91.2352C13.2561 91.3486 13.0553 91.4143 12.9037 91.4332C12.1311 91.5409 12.9341 90.3913 12.1409 90.4989C11.5935 90.5474 11.8058 90.9928 11.814 91.2738C12.0712 94.7046 14.1935 98.1304 17.3793 99.5323ZM19.4753 84.8182C16.9786 86.2374 16.0814 89.9525 17.5571 92.6782C20.4995 98.3515 29.2531 95.9372 28.9385 89.5383C28.8287 86.6869 26.7294 84.2159 23.9861 83.6316C23.41 83.5092 23.383 83.7294 23.3986 84.165C23.4453 85.4641 23.4625 86.7649 23.5157 88.0641C23.56 89.148 25.2078 90.3042 26.2328 89.9911C26.9154 89.8062 28.4755 90.4997 28.36 91.3239C28.1994 91.7044 26.3344 91.9205 26.0599 91.577C25.3413 90.6772 24.3482 90.6123 23.3576 90.7627C21.5721 90.9114 21.9335 89.9878 21.7893 88.7741C21.0035 87.4642 20.2439 86.1379 19.4753 84.8182ZM30.8198 84.6892C31.1287 84.6243 31.055 84.46 31.0927 84.3482C31.2647 83.8354 31.6941 84.0754 32.0178 84.0548C32.6757 84.0138 32.6036 85.0253 32.0538 85.0541C31.0615 85.2053 31.4606 85.7509 31.6441 86.2776C31.8293 86.8101 31.9801 87.3549 32.1235 87.9006C32.153 88.7667 33.11 87.4905 33.2837 88.2449C33.3829 89.0157 32.0768 88.1085 32.3603 89.0518C32.5217 89.858 32.9658 88.263 34.1449 89.5539C34.1121 83.7713 29.4416 78.8204 23.7116 78.5582C22.9577 78.2764 22.9479 79.4367 23.7058 79.2534C25.175 78.9494 23.6952 80.5033 24.6072 80.6052C25.5675 80.7186 26.441 81.1163 27.4947 81.5609C26.9826 80.7342 27.6094 80.6011 27.9872 80.3159C28.8041 79.8886 28.6435 81.1763 28.1773 81.436C27.8921 81.7441 28.0535 81.8501 28.301 82.0293C29.299 82.7532 30.1553 83.6226 30.8214 84.69L30.8198 84.6892ZM32.4987 95.4704C31.4393 96.4705 31.2738 94.2313 30.5027 95.2658C30.0529 96.3423 27.4922 97.3892 28.6738 98.4443C28.8574 98.6391 28.959 98.9374 28.6845 99.1494C28.1314 99.5191 27.094 98.644 27.7225 97.9693C26.3705 98.4739 25.1791 99.0697 23.8353 99.1428C23.487 99.0803 23.4821 99.4855 23.6747 99.6745C24.0623 100.043 24.2057 99.0869 24.5482 99.4279C24.6571 99.5438 24.6326 99.7994 24.6416 99.9925C24.6678 100.533 24.2098 100.23 23.9926 100.333C23.7288 100.458 23.2929 100.327 23.3994 100.859C23.4936 101.327 23.8779 101.147 24.1122 101.114C27.6586 100.641 30.7428 98.7935 32.4987 95.4696V95.4704ZM29.8685 78.5582C30.2135 78.8524 30.9116 78.9305 30.7297 79.4342C30.5609 79.7341 30.2692 79.5065 30.0381 79.3915C28.5616 78.5952 28.5878 78.2887 26.6442 78.5525C30.4232 80.0858 32.9134 82.5954 34.2572 86.2448C34.335 83.8239 34.3227 81.4655 34.344 79.1071C34.3489 78.5895 34.1605 78.3594 33.6582 78.3963C32.4398 78.4851 31.2115 78.3249 29.8693 78.5582H29.8685ZM25.5634 101.521C28.1543 101.521 30.7452 101.517 33.3362 101.525C33.8139 101.527 34.1769 101.489 34.172 100.852C34.1531 98.4706 34.1646 96.0892 34.1646 93.5426C32.5561 97.6571 29.7267 100.288 25.5642 101.521H25.5634ZM11.6517 83.0375L11.8795 83.0474C11.9377 82.4968 12.3408 80.9478 13.0324 81.855C13.2315 82.7664 11.3035 83.5552 11.7525 86.0015C13.0594 82.5486 15.2341 80.0521 18.6895 78.6478C17.0982 78.2188 16.1953 79.2033 15.2013 79.9034C14.9826 79.3841 15.425 79.1285 15.516 78.7653H13.8559C14.4245 79.2699 15.0088 79.698 14.6335 80.4039C14.3705 80.8994 13.9673 81.5535 13.3126 81.3743C11.8811 81.2108 11.5263 78.7612 13.3175 78.8047C11.6148 78.6215 11.6222 78.6215 11.6493 80.26C11.664 81.1853 11.6517 82.1114 11.6517 83.0375ZM21.8024 79.5681C21.4443 79.7892 21.8065 80.2329 21.4271 80.2789C21.1313 80.3151 21.0575 79.9996 21.0354 79.7908C20.9707 79.0135 21.9335 79.5887 22.2424 79.1006C23.2478 77.7414 17.9275 79.274 17.5661 79.7645C17.099 80.0538 17.5251 80.4162 17.6439 80.4359C18.1028 80.5107 18.3486 80.7301 18.4666 81.1615C18.5461 81.4524 18.7231 81.4836 18.9886 81.3423C19.9497 80.832 21.0166 80.6619 22.1498 80.4729C21.8237 80.2075 21.8245 79.9157 21.8016 79.5673L21.8024 79.5681ZM13.0004 84.5101C12.3761 85.7608 11.2281 88.5818 11.977 89.7257C12.3556 89.8703 12.3244 89.5186 12.4531 89.3279C12.9578 88.6582 12.9881 89.8538 13.4486 89.5104C13.5257 89.4553 13.5412 89.2671 13.5322 89.1447C13.4986 88.6993 13.1914 88.8497 12.9423 88.8957C12.3687 89.0116 12.4252 88.1915 12.966 88.3303C13.2479 88.3435 13.6207 88.6295 13.7051 88.0649C13.8428 87.1438 14.2336 86.3015 14.6007 85.4222C14.2424 85.477 13.7087 85.173 12.9996 84.5101H13.0004ZM30.3823 89.2893C31.858 89.2688 31.8662 89.2671 31.5728 87.94C31.2443 87.0649 31.2852 85.1017 29.8685 85.9941C29.0294 86.4379 28.5124 86.8298 29.1278 87.8044C29.4129 88.6221 29.2138 89.6229 30.3823 89.2893ZM16.8794 80.1138C15.3521 81.173 14.1189 82.4155 13.2774 84.0787C13.5789 83.9028 13.8985 84.6753 14.1558 84.0138C14.2984 83.3818 15.2603 83.999 14.7318 84.3794C14.5851 84.4846 14.6278 84.6062 14.7425 84.6999C14.8809 84.8125 14.9916 84.7254 15.0579 84.6054C15.6479 83.538 16.582 82.7992 17.4874 82.0325C17.6431 81.9011 17.807 81.7121 17.5341 81.5732C17.0138 81.316 17.4096 82.5371 16.6934 82.0104C15.8347 81.1336 17.7193 81.9011 16.8786 80.1146L16.8794 80.1138ZM28.4542 86.0689C29.5489 85.2973 31.1 85.1913 29.5055 83.8387C29.095 83.3145 28.5673 82.9134 28.033 82.5231C27.7758 82.3349 27.6176 82.3399 27.3865 82.6143C25.8608 83.9636 27.4521 84.9965 28.455 86.0689H28.4542ZM34.0679 90.3083C32.9379 90.9049 32.8126 89.8604 32.3955 90.3099C32.3357 90.4077 32.3431 90.5778 32.3775 90.697C32.4815 91.0519 32.6905 90.7323 32.8478 90.7438C33.0764 90.7602 33.364 90.6822 33.3419 91.038C33.1371 91.771 32.3439 90.5392 32.1808 91.7159C32.1907 92.6387 30.6781 93.9757 32.1185 94.3898C32.4291 94.4778 32.5209 94.9256 32.6503 95.2872C33.6975 93.8409 34.2375 91.9312 34.0671 90.3075L34.0679 90.3083ZM15.3931 89.3255C16.0691 89.521 16.4517 89.24 16.5033 88.4216C16.4288 87.7173 17.4063 86.8652 16.5263 86.4132C15.0899 85.4855 14.9621 85.5175 14.4614 87.1561C14.2058 88.3681 13.5101 89.4726 15.3931 89.3255ZM30.6051 90.2097C29.5203 90.1801 29.5243 90.1809 29.2834 91.2031C29.2482 91.6937 28.7541 92.2476 29.1237 92.6897C30.5142 94.205 31.3082 93.2501 31.6613 91.5885C31.944 90.3329 31.8744 90.2434 30.6051 90.2088V90.2097ZM23.5682 97.2027C23.6149 98.7171 23.6657 98.7631 25.0652 98.3819C25.7215 98.0417 27.4963 98.0441 26.8326 96.9241C26.3631 95.9405 25.8682 95.4285 24.8014 96.1221C24.1344 96.3316 23.2593 96.2667 23.5682 97.2035V97.2027ZM30.2766 94.6306C28.8107 93.7645 28.5009 93.4654 27.1596 94.7596C26.6057 95.228 26.6327 95.551 27.0637 96.0153C27.4668 96.4286 27.6496 97.4155 28.3559 96.754C29.0827 96.1607 29.7513 95.528 30.2766 94.6314V94.6306ZM19.0156 84.2553C17.5686 81.8822 18.1659 82.003 15.7798 84.5479C15.6618 84.6868 15.4185 84.9177 15.5987 85.0426C17.3989 86.7419 17.7177 85.8495 19.0156 84.2545V84.2553ZM23.2715 80.9815C23.5755 82.3308 23.914 83.4624 25.529 83.6086C26.2648 84.0663 26.3025 82.8461 26.7015 82.4976C27.6397 81.3464 24.0057 81.0292 23.2724 80.9815H23.2715ZM22.607 97.344C22.7594 96.7187 22.5931 96.2856 21.7426 96.2905C21.2034 96.3727 20.5585 95.611 20.1202 96.1697C18.7706 97.7253 19.6826 98.0573 21.2542 98.4649C22.1206 98.6692 22.5715 98.2956 22.607 97.344ZM15.2103 90.3461C14.9449 90.5704 14.1984 89.9237 14.1902 90.8703C14.1812 91.8433 14.908 93.6297 15.2054 93.4407C15.7446 93.0989 16.7131 93.1474 16.7451 92.3051C16.7983 90.9024 16.2985 90.3379 15.2103 90.3461ZM17.6226 94.0003C17.3768 94.0266 16.024 95.0727 16.0494 95.2165C16.0986 95.491 17.6857 96.9586 17.9184 96.9446C18.0413 96.9372 19.0721 95.4228 19.064 95.2617C19.0582 95.1417 17.739 93.9872 17.6226 94.0003ZM18.8575 82.0687C19.6244 82.3908 19.4228 83.5511 20.3979 83.5297C22.0425 83.4936 21.6893 82.0235 22.1858 81.0152C20.983 81.1648 19.9399 81.3768 18.8575 82.0687ZM22.0916 87.4651C22.1621 87.4494 22.2326 87.433 22.3022 87.4174C22.1654 86.88 22.3891 83.5848 21.9368 83.6933C21.4533 83.7434 20.9666 83.9028 20.5176 84.0992C19.9563 84.3531 21.9122 86.8709 22.0916 87.4642V87.4651ZM13.6092 100.651C14.4041 101.048 14.9555 99.3852 14.2328 99.2332C13.1389 98.9275 13.6863 99.8807 13.1348 99.9629C12.2925 100.018 13.3495 100.698 13.6101 100.651H13.6092ZM13.37 79.3085C12.0917 79.2855 12.2056 80.7917 13.5093 80.7087C14.35 80.7457 14.3065 79.0907 13.37 79.3085Z" fill="#2B2B2B"/>
<path d="M32.498 78.656C32.112 79.3002 31.6901 79.744 32.1366 80.3356C32.362 80.6339 32.5299 80.9717 32.7184 80.3389C32.9265 79.8804 34.1974 80.0768 33.2109 79.3315C32.1202 78.4711 34.4686 78.3495 33.9409 79.9691C33.1551 83.2528 29.0942 79.1408 32.498 78.6568V78.656Z" fill="#2B2B2B"/>
<path d="M34.0688 82.7795C34.1925 83.8568 33.0765 82.9833 33.2928 82.5478C33.5935 82.164 33.0191 81.3217 33.6468 81.3949C34.3326 81.4754 33.773 82.3703 34.0688 82.7787V82.7795Z" fill="#2B2B2B"/>
<path d="M28.7787 101.057C30.2856 100.585 31.1706 99.6515 32.0358 98.6958C32.6676 97.8979 34.104 99.1987 33.9336 100.056C33.7517 101.555 31.4082 101.603 31.2754 99.9744C30.6715 101.219 30.3356 101.387 28.7787 101.057ZM33.4132 99.8635C33.437 98.8724 31.8384 98.9275 31.8326 99.8396C31.7769 100.862 33.3796 100.922 33.4132 99.8635Z" fill="#2B2B2B"/>
<path d="M33.9049 96.0605C34.3572 98.5881 32.5381 98.5446 33.1068 97.5494C33.2994 97.0531 33.2018 96.4171 33.9049 96.0605Z" fill="#2B2B2B"/>
<path d="M17.2777 101.046C16.2371 101.522 14.7064 100.574 15.2825 99.6457C15.7741 99.4583 16.6664 100.679 17.2777 101.046Z" fill="#2B2B2B"/>
</svg>
