<svg width="715" height="778" viewBox="0 0 715 778" fill="none" xmlns="http://www.w3.org/2000/svg">
<path d="M709.442 65.9039C706.443 47.836 691.611 20.1263 675.057 9.13288C660.293 -1.52068 610.532 6.86099 574.194 12.9812C567.538 14.1028 561.25 15.1616 555.802 15.9982C522.099 21.1825 319.758 27.538 274.625 24.8296C229.808 22.1446 151.59 7.09106 123.963 0.113304L123.589 0.0191865L123.202 0.0113433C108.7 -0.276237 96.7939 4.90545 87.8343 15.4283C80.9165 23.5537 75.7007 34.6491 71.4261 50.3092C65.4286 70.6961 69.766 99.6293 74.2236 106.34C77.9831 112.001 95.6148 129.817 109.087 129.817C109.822 129.817 110.543 129.765 111.231 129.661C115.231 129.059 124.69 127.112 136.667 124.649L140.729 123.812C142.536 139.7 141.969 156.11 139.004 173.917C138.727 175.585 138.081 178.968 137.179 183.705C124.052 252.677 123.67 268.492 127.446 272.497C130.264 275.482 136.674 277.757 144.79 280.64C155.028 284.274 167.705 288.776 172.058 294.803C168.259 295.663 155.87 294.802 150.897 294.46C132.962 293.218 121.785 292.732 118.164 298.138C110.588 309.433 100.875 359.241 95.071 389.006C93.8684 395.176 92.8278 400.507 92.0487 404.256C87.9964 423.694 77.0654 499.615 78.1792 506.297C79.008 511.28 87.4343 514.572 110.765 521.356C113.503 522.153 116.013 522.883 117.976 523.492C112.154 526.993 98.2554 532.749 91.9416 532.749C80.5792 532.749 71.6457 547.152 70.6993 566.998C70.4718 571.774 69.7372 577.351 69.0261 582.747C66.8326 599.411 64.5606 616.645 75.4602 621.078C78.8406 622.459 93.0344 628.049 105.385 632.903C87.6225 632.127 69.7842 633.954 66.8221 643.842C65.1933 649.269 58.3121 663.306 49.3211 676.532C48.2884 674.757 47.3367 672.966 46.5237 671.437C42.751 664.344 39.1849 657.643 32.2645 654.498L31.8488 654.31L31.3966 654.237C22.4081 652.804 14.1648 656.621 8.17778 664.99C-0.206699 676.71 -2.55184 695.554 3.0535 706.14L3.47965 706.942L4.25091 707.426C18.3479 716.236 53.0702 731.706 67.7319 737.528C76.9138 741.175 108.535 751.891 142.682 759.964L142.73 759.975C177.933 769.329 216.229 773.907 259.812 773.97H260.852C300.184 773.97 337.18 770.346 369.827 767.151C388.314 765.342 405.778 763.632 420.848 762.9C483.04 759.883 529.924 768.299 560.955 773.873C570.853 775.651 578.686 777.057 584.788 777.672L584.955 777.713H585.214C587.209 777.907 588.921 777.998 590.446 777.998C590.961 777.998 591.452 777.988 591.923 777.967C613.453 776.989 625.913 759.316 629.495 750.108C633.898 738.783 647.608 700.511 639.121 683.546C634.954 675.212 625.508 671.756 617.918 668.979C615.808 668.208 612.289 666.919 610.585 665.878C612.556 665.207 616.083 664.448 617.458 664.153C625.85 662.349 636.295 660.103 637.657 651.933C639.594 640.305 641.44 513.565 637.346 505.374C635.152 500.987 631.006 498.598 627.976 496.849C627.529 496.593 626.465 495.978 625.722 495.476C626.674 495.142 628.229 494.838 629.186 494.655C633.199 493.879 638.692 492.815 640.23 487.432C641.785 481.986 643.119 454.31 644.462 423.979L644.478 423.628C644.591 421.064 644.695 418.705 644.789 416.63C645.234 406.852 651.393 375.328 656.826 347.516C665.537 302.931 666.886 294.633 665.854 292.013C664.648 288.97 661.359 287.451 657.195 285.529C654.107 284.105 650.434 282.408 647.827 279.956C650.162 279.804 652.97 279.694 655.234 279.605C664.439 279.244 670.225 278.941 672.939 277.741L673.828 277.349L674.372 276.544C695.535 245.297 709.679 170.243 711.222 161.789C716.08 135.177 717.018 93.7182 709.431 65.9118L709.442 65.9039ZM669.42 271.775C666.662 272.382 659.966 272.643 654.978 272.839C644.076 273.265 641.364 273.514 639.738 274.98L637.958 276.588L638.886 278.8C641.864 285.898 648.797 289.098 654.369 291.668C656.029 292.434 658.732 293.684 659.456 294.384C659.482 298.659 654.131 326.044 650.191 346.214C644.444 375.626 638.504 406.039 638.036 416.318C637.942 418.405 637.835 420.776 637.722 423.356L637.707 423.717C636.891 442.13 635.197 480.444 633.73 485.573C633.393 486.752 631.584 487.299 627.905 488.01C624.323 488.703 620.263 489.489 618.768 493.218C616.776 498.201 621.484 500.914 624.603 502.713C627.139 504.174 630.015 505.832 631.286 508.376C634.141 515.05 632.836 639.716 630.985 650.82C630.378 654.454 621.748 656.31 616.036 657.536C610.135 658.804 605.476 659.808 603.664 662.825C602.924 664.059 602.739 665.518 603.141 666.929C604.37 671.225 609.322 673.039 615.594 675.332C622.057 677.698 630.101 680.642 633.066 686.571C638.826 698.085 631.343 726.67 623.186 747.653C619.667 756.704 608.355 770.443 591.614 771.204C590.106 771.274 588.26 771.204 585.975 770.984C572.579 767.266 563.483 736.04 557.462 715.355C552.539 698.451 549.985 690.237 545.768 688.237C544.453 687.614 543.007 687.58 541.689 688.142C483.241 713.055 388.708 739.562 260.716 766.932L259.472 767.198C234.182 767.149 211.134 765.585 189.021 762.419L185.703 761.125C148.173 746.466 117.414 730.521 94.2789 713.732C82.6812 705.308 60.7174 687.881 53.7186 682.09C64.1109 667.214 71.5202 651.753 73.3111 645.787C75.4497 638.647 103.79 638.093 128.915 642.054L159.574 646.888L130.677 635.56C130.227 635.384 84.493 617.455 78.0171 614.812C71.9568 612.347 73.9673 597.089 75.7399 583.622C76.4667 578.093 77.2197 572.378 77.4602 567.319C78.2027 551.73 84.5636 539.518 91.9416 539.518C96.9194 539.518 105.429 536.71 111.735 534.085C124.449 528.791 126.47 525.497 126.883 523.479C127.215 521.861 126.669 519.57 124.034 518.441C122.036 517.583 117.887 516.378 112.632 514.851C106.82 513.163 99.5862 511.058 93.824 508.972C87.4343 506.658 85.3924 505.259 84.8198 504.776C84.6211 497.615 94.0775 427.662 98.6685 405.634C99.458 401.843 100.501 396.494 101.709 390.3C107.04 362.959 116.964 312.068 123.78 301.906C123.877 301.765 124.951 300.51 133.174 300.434C138.518 300.384 144.839 300.823 150.424 301.21C167.054 302.361 175.862 302.748 178.61 298.112C179.261 297.017 180.056 294.716 178.079 291.631C172.819 283.409 159.127 278.549 147.038 274.256C141.067 272.136 134.316 269.739 132.463 267.953C132.18 267.271 130.899 262.366 135.04 234.808C137.697 217.132 141.527 197.002 143.817 184.968C144.722 180.22 145.373 176.79 145.668 175.028C148.777 156.372 149.336 139.151 147.373 122.442C172.495 117.305 197.578 112.377 212.145 110.764C227.186 109.088 280.756 108.207 325.863 107.94H325.949C344.906 107.828 363.68 107.818 378.813 107.906C392.894 107.998 402.711 108.173 407.205 108.408C428.612 109.538 555.867 123.028 618.462 135.488C620.271 136.074 621.889 136.753 623.322 137.355C624.164 137.708 624.959 138.042 625.73 138.332C633.518 141.268 641.291 141.033 648.531 137.647C663.545 130.628 673.075 111.182 675.477 104.28C678.586 95.3627 677.268 84.6725 671.765 74.1784C667.446 65.9379 660.878 58.5628 655.427 55.8282C650.068 53.1406 647.529 56.0739 646.881 57.036C640.473 66.5079 627.335 70.6333 616.65 72.4242C617.774 63.8909 618.007 60.1236 615.897 57.8255C612.959 54.6282 605.094 52.8556 594.877 51.104C597.63 50.9079 600.349 50.7458 602.509 50.6177C608.951 50.236 615.037 49.8726 618.127 49.2556C627.772 47.3262 654.225 19.3734 658.481 11.0989C663.799 11.6008 667.757 12.6074 670.285 14.0976L671.203 14.7041L672.497 15.6557L672.523 15.6191C686.808 25.9903 700.145 50.955 702.772 67.1614L702.851 67.517C710.223 94.3509 709.29 134.636 704.558 160.562C703.062 168.753 689.436 241.082 669.404 271.767L669.42 271.775ZM46.4243 684.587C47.7655 686.48 79.0498 711.034 90.3049 719.212C107.958 732.025 129.974 744.367 155.891 755.993C152.178 755.206 148.343 754.346 144.405 753.418L143.984 753.29H143.862C112.075 745.75 80.242 735.217 70.2392 731.24C56.184 725.659 22.9075 710.866 8.65623 702.189C4.74242 693.612 7.03528 678.234 13.6916 668.929C16.7453 664.657 22.0212 659.816 29.875 660.856C34.4685 663.175 37.428 668.736 40.5575 674.618C42.3249 677.941 44.1524 681.374 46.4269 684.587H46.4243ZM369.168 760.417C346.592 762.628 321.57 765.078 295.174 766.341C406.194 741.593 489.604 717.554 543.294 694.819C545.274 697.695 548.934 710.27 550.968 717.251C556.176 735.141 562.529 756.953 572.414 769.028C569.216 768.479 565.747 767.857 562.144 767.211C535.375 762.404 496.92 755.496 447.018 755.496C438.521 755.496 429.687 755.698 420.526 756.142C405.289 756.879 387.744 758.6 369.168 760.417ZM122.687 6.76949C150.735 13.8126 229.304 28.8923 274.22 31.5877C319.559 34.3067 522.931 27.9041 556.829 22.6884C562.317 21.8439 568.631 20.7825 575.316 19.6557C597.913 15.8492 628.324 10.7276 649.537 10.7276C649.945 10.7276 650.348 10.7276 650.748 10.7329C648.264 14.1812 643.673 19.593 637.351 25.9825C627.199 36.2413 619.335 42.1184 616.815 42.623C614.179 43.1511 608.321 43.4988 602.117 43.8674C582.809 45.0151 577.211 45.538 576.511 49.8935C576.487 50.0452 576.471 50.1942 576.461 50.338L576.247 50.3824L576.458 50.4452C576.362 53.4935 579.74 54.8347 580.893 55.2922C582.372 55.8804 585.073 56.3406 590.119 57.1719C595.591 58.0739 608.193 60.1471 610.705 62.202C611 63.7967 610.151 70.0817 609.636 73.8987L609.358 75.9693C608.164 84.8686 605.939 101.433 609.092 116.228C609.952 120.283 611.186 124.061 612.773 127.504C548.087 115.428 427.616 102.712 407.571 101.655C402.973 101.412 393.033 101.235 378.826 101.143C372.154 101.104 364.75 101.083 356.817 101.083C346.856 101.083 336.464 101.114 325.938 101.177H325.852C280.56 101.444 226.708 102.335 211.408 104.04C196.331 105.71 170.479 110.808 144.787 116.068L135.302 118.019L135.263 118.027C123.404 120.466 114.036 122.393 110.224 122.965C100.506 124.416 83.4865 108.055 79.8577 102.594C77.0498 98.3666 72.2601 71.4438 77.9334 52.1523C83.7532 30.8295 94.1142 6.42962 122.682 6.76949H122.687ZM669.103 102.05C669.022 102.272 660.952 124.38 645.676 131.522C640.096 134.131 634.193 134.293 628.128 132.006C627.482 131.763 626.765 131.462 625.955 131.122C624.595 130.549 623.139 129.951 621.526 129.389C618.846 125.276 616.891 120.38 615.712 114.821C612.977 101.982 614.689 87.3182 615.727 79.4281C627.994 77.6242 643.634 73.0595 651.916 61.6634C652.052 61.7183 652.214 61.7889 652.403 61.883C655.82 63.5954 661.637 69.5797 665.689 77.2947C668.392 82.4398 672.429 92.4999 669.101 102.05H669.103Z" fill="black"/>
</svg>
