<svg width="163" height="67" viewBox="0 0 163 67" fill="none" xmlns="http://www.w3.org/2000/svg">
<path d="M49.1288 5.44814C50.3858 4.91285 51.5765 4.20058 52.9603 4.05019C53.7571 3.96353 54.5554 4.18456 55.3359 3.93767C59.6334 2.57614 63.2631 0.335192 67.9769 0.0318596C74.8497 -0.218308 83.54 1.06239 90.3903 1.85914C95.2676 2.42647 94.524 1.72732 98.9201 4.0917C98.9748 3.45737 98.8621 2.87146 99.6046 2.67154C103.246 1.69272 105.573 2.98616 108.332 4.57383L108.43 4.62918C113.635 4.2847 111.335 4.86988 115.645 6.37817C117.688 7.09335 120.981 7.03108 121.624 10.048C121.789 10.8215 121.298 13.913 121.038 14.7903C120.386 16.9926 118.715 16.9019 116.77 17.2832C117.491 17.3382 118.546 17.2759 118.957 18.0137C121.277 22.1802 119.453 32.2692 119.278 37.4408C119.033 44.6541 120.624 50.5427 118.663 58.1009C115.847 58.3193 113.048 58.8182 110.221 58.8914C105.3 59.0181 100.419 58.646 95.4919 59.1277C96.2112 59.5986 109.021 60.293 110.672 60.1998C113.661 60.0301 116.57 58.9686 119.555 58.615C122.755 58.237 126.113 58.5134 129.1 58.1009C126.679 57.7138 123.971 57.5182 121.52 57.4851C121.47 54.7096 121.653 51.6981 121.653 48.8596L121.652 41.0589C121.652 39.5681 121.607 38.0631 121.677 36.5748L122.181 27.4982C122.376 24.2256 122.785 22.666 121.52 19.5667C122.387 15.7039 122.56 17.2774 125.016 17.5891C125.896 17.7009 126.813 17.2894 127.711 17.3418C128.878 17.4099 135.259 18.9433 136.258 19.4371C137.728 20.1636 137.708 23.8782 137.047 25.0049C136.354 26.1876 135.173 26.4658 137.36 27.1755C138.933 35.655 139.627 44.5667 139.388 53.1853C139.345 54.7092 139.201 56.2251 139.208 57.7513C139.682 57.5321 140.161 57.3296 140.643 57.13C141.159 52.4912 141.244 42.2205 140.832 37.321C140.729 36.0985 139.633 35.1831 139.61 33.945C139.597 33.2768 143.294 27.5492 144.129 26.6268C146.441 26.1563 148.064 31.9975 148.713 33.453C149.342 34.8674 150.427 36.0355 150.955 37.4947C151.441 38.838 152.238 45.7953 152.339 47.6914C152.486 50.4691 151.722 55.0584 151.171 57.8656C153.12 58.3423 163.513 59.7606 162.979 62.1035C162.364 62.4804 157.175 61.9138 156.044 61.9593C154.507 62.0205 153.052 62.5289 151.501 62.5259C150 62.5234 144.996 61.9134 143.978 62.2758C144.089 63.4603 141.952 63.5226 141.115 63.61C134.687 64.2833 126.499 63.7014 119.894 63.7895C120.81 64.0699 122.525 64.1122 123.244 64.7021L123.25 64.8739C122.252 65.9001 107.698 65.3204 105.788 65.1616L106.693 65.7828C99.9267 67.5744 81.8283 66.9547 74.1786 66.6153L63.728 66.2162C60.1055 66.0836 56.4885 66.2792 52.8614 66.0771C52.341 66.0596 51.263 66.1404 50.9586 65.5953L51.0695 65.4016C52.362 64.5229 55.6997 64.2534 57.3669 63.9876C54.9703 63.7717 52.3747 64.0382 49.9691 64.1387C45.7498 64.3146 32.9555 65.473 29.6414 64.721C30.9556 64.1274 32.4634 63.9942 33.8418 63.5867C28.3543 63.1082 22.1334 64.5109 16.3774 64.2363C17.5196 63.8897 18.6592 63.4822 19.781 63.0718C18.107 63.058 10.5512 64.0473 9.85001 63.1574L9.88516 63.0077C10.2327 62.6443 10.7099 62.4356 11.1483 62.2C9.50722 62.2364 0.987567 62.4491 0.52303 62.3231C0.231336 62.2437 -0.16834 61.9164 0.0755237 61.5948C0.999887 60.3753 10.4236 59.2381 12.439 59.0789C11.9415 55.3672 11.0186 48.9878 11.1288 45.3085C11.186 43.396 12.3477 41.6179 12.7985 39.7808C13.4906 36.9619 13.0739 29.8462 15.8455 29.2599C15.6335 28.7683 15.4024 28.3026 15.1418 27.835C15.4208 26.2036 16.547 21.5688 18.4505 21.0295C19.4459 21.4738 22.5943 25.0231 22.8918 25.7747C23.044 26.1596 22.8933 34.9234 22.8947 36.2158C22.5327 36.5781 22.1646 36.9328 21.7925 37.2845C22.0334 37.8424 22.4316 38.3519 22.5824 38.9458C23.6818 43.2747 21.5729 48.73 21.7504 53.2028C21.8167 54.8724 22.5842 56.2623 22.8947 57.8653C21.0221 58.5171 12.9547 59.5196 10.7102 59.8021C14.5059 60.3422 18.3548 59.4595 22.1512 59.2661C25.7577 59.0826 29.7592 59.4591 33.4755 59.3586C35.8612 59.2942 38.2118 58.7301 40.5899 58.6656C47.6029 58.4759 54.3506 59.4788 61.6053 58.8262C55.0286 58.0593 48.6182 58.0968 42.0621 57.7509C42.6256 55.2383 40.9682 50.3238 40.7406 47.1164C40.5548 44.4946 40.3305 32.4411 42.1364 30.3501C42.4872 29.9438 42.9981 29.5938 43.417 29.2595C44.0406 24.4044 43.2978 21.287 47.0608 17.6969C43.8525 18.6557 39.4608 19.1851 36.108 19.5664C37.686 20.9632 38.3027 20.9425 38.4426 23.4056C38.9865 32.9884 38.6828 42.6225 40.1094 52.1398C40.3881 53.9995 40.787 55.8719 40.8939 57.7509C35.0952 58.378 29.4367 58.3142 23.6165 58.3121C23.2469 55.0697 22.3432 51.8059 23.135 48.5515C24.2474 43.9793 24.0412 42.9222 24.0506 38.1803C24.0561 35.5093 24.2445 32.8333 24.3681 30.1655C24.5239 26.8019 24.0028 22.343 26.9694 20.043C25.7744 20.0547 24.1659 20.2655 23.4484 19.0478C22.8136 17.9703 21.9483 13.7892 22.2863 12.5948C22.9299 10.3208 32.8497 8.44505 35.047 7.70729C36.3047 7.28452 37.4708 6.41422 38.7535 6.13091C40.2978 5.79044 47.9406 5.06106 49.1302 5.44814H49.1288ZM78.6917 15.3463C79.9647 15.7174 83.7176 16.8277 84.747 15.8583C84.8521 15.7472 84.9742 15.6802 84.984 15.5229L84.9612 15.5619L84.8641 15.6012L84.8764 15.4851C83.149 15.3001 80.3691 15.1657 78.6917 15.3459V15.3463ZM67.9769 15.3463C62.9355 15.6325 57.7495 15.8911 52.8606 17.2828C54.4275 17.8087 56.4095 18.0195 56.6132 19.9586C57.0034 23.679 56.9255 27.4304 57.3741 31.1618C57.572 32.8099 58.255 34.4431 58.2778 36.1007C58.3115 38.5383 57.464 41.0236 57.3582 43.4918C57.2335 46.3903 58.2264 49.1615 58.3891 52.0247C58.4749 53.537 57.9238 54.979 58.0553 56.4895V57.7509C60.5277 57.5219 63.1819 57.7556 65.6742 57.7509C64.4487 49.2274 66.2717 41.2756 66.6254 32.7196C66.8946 26.2109 67.0616 28.252 69.2441 22.9274C70.2601 20.4487 70.5594 17.5275 72.2034 15.3463H67.9769ZM87.7633 15.61C90.2374 17.2016 89.8417 18.6007 90.1135 21.2881L90.7447 27.4778C91.0686 30.3793 91.835 33.1967 92.1539 36.0945C92.5543 39.729 92.2133 43.4415 92.297 47.0942C92.393 51.2899 93.1145 53.5957 91.9111 57.7513C94.6675 57.7462 97.4196 57.8824 100.175 57.8656C99.8423 56.1134 99.6524 54.2748 99.6068 52.4919C99.4658 48.4649 100.908 47.419 100.803 43.2897C100.62 36.1065 101.427 28.9817 103.086 21.9894C103.783 19.0555 103.369 18.2566 106.187 16.8579C101.291 16.3896 92.4999 15.4752 87.7633 15.6107V15.61ZM130.331 29.5148C129.567 32.2364 128.248 35.4212 127.77 38.1115C127.648 38.799 126.779 50.3344 126.921 50.8959C126.964 50.7426 127.013 50.5915 127.038 50.4338C127.36 48.978 127.547 47.4118 128.069 46.0164C128.48 44.9156 129.448 43.9214 129.642 42.7686C129.84 41.5887 128.904 40.4431 128.95 39.1828C129.041 36.6812 130.909 31.5959 130.331 29.5148H130.331ZM71.6682 32.3056C71.0751 34.1569 71.0526 35.8156 71.1791 37.7423C71.4689 42.1623 68.9238 43.345 69.6427 48.5468L69.7257 48.6513C69.7666 48.5483 69.8184 48.443 69.8391 48.3338C70.4641 46.0113 72.5335 42.4856 72.598 40.8109C72.6201 40.2327 71.9154 32.6282 71.6682 32.306V32.3056Z" fill="black"/>
</svg>
